<?xml version="1.0" encoding="utf-8"?>
<svg xmlns="http://www.w3.org/2000/svg" xmlns:xlink="http://www.w3.org/1999/xlink" width="600" height="400" viewBox="0 0 2400 1600">
<defs>
  <clipPath id="clip310">
    <rect x="0" y="0" width="2400" height="1600"/>
  </clipPath>
</defs>
<path clip-path="url(#clip310)" d="
M0 1600 L2400 1600 L2400 0 L0 0  Z
  " fill="#ffffff" fill-rule="evenodd" fill-opacity="1"/>
<defs>
  <clipPath id="clip311">
    <rect x="480" y="0" width="1681" height="1600"/>
  </clipPath>
</defs>
<path clip-path="url(#clip310)" d="
M264.287 1552.76 L2352.76 1552.76 L2352.76 47.2441 L264.287 47.2441  Z
  " fill="#ffffff" fill-rule="evenodd" fill-opacity="1"/>
<defs>
  <clipPath id="clip312">
    <rect x="264" y="47" width="2089" height="1507"/>
  </clipPath>
</defs>
<polyline clip-path="url(#clip310)" style="stroke:#000000; stroke-linecap:butt; stroke-linejoin:round; stroke-width:4; stroke-opacity:1; fill:none" points="
  264.287,1552.76 2352.76,1552.76 
  "/>
<polyline clip-path="url(#clip310)" style="stroke:#000000; stroke-linecap:butt; stroke-linejoin:round; stroke-width:4; stroke-opacity:1; fill:none" points="
  264.287,47.2441 2352.76,47.2441 
  "/>
<polyline clip-path="url(#clip312)" style="stroke:#000000; stroke-linecap:butt; stroke-linejoin:round; stroke-width:2; stroke-opacity:0.1; fill:none" points="
  264.287,1247.2 2352.76,1247.2 
  "/>
<polyline clip-path="url(#clip312)" style="stroke:#000000; stroke-linecap:butt; stroke-linejoin:round; stroke-width:2; stroke-opacity:0.1; fill:none" points="
  264.287,930.49 2352.76,930.49 
  "/>
<polyline clip-path="url(#clip312)" style="stroke:#000000; stroke-linecap:butt; stroke-linejoin:round; stroke-width:2; stroke-opacity:0.1; fill:none" points="
  264.287,613.78 2352.76,613.78 
  "/>
<polyline clip-path="url(#clip312)" style="stroke:#000000; stroke-linecap:butt; stroke-linejoin:round; stroke-width:2; stroke-opacity:0.1; fill:none" points="
  264.287,297.069 2352.76,297.069 
  "/>
<polyline clip-path="url(#clip310)" style="stroke:#000000; stroke-linecap:butt; stroke-linejoin:round; stroke-width:4; stroke-opacity:1; fill:none" points="
  264.287,1552.76 264.287,47.2441 
  "/>
<polyline clip-path="url(#clip310)" style="stroke:#000000; stroke-linecap:butt; stroke-linejoin:round; stroke-width:4; stroke-opacity:1; fill:none" points="
  2352.76,1552.76 2352.76,47.2441 
  "/>
<polyline clip-path="url(#clip310)" style="stroke:#000000; stroke-linecap:butt; stroke-linejoin:round; stroke-width:4; stroke-opacity:1; fill:none" points="
  264.287,1247.2 283.185,1247.2 
  "/>
<polyline clip-path="url(#clip310)" style="stroke:#000000; stroke-linecap:butt; stroke-linejoin:round; stroke-width:4; stroke-opacity:1; fill:none" points="
  264.287,930.49 283.185,930.49 
  "/>
<polyline clip-path="url(#clip310)" style="stroke:#000000; stroke-linecap:butt; stroke-linejoin:round; stroke-width:4; stroke-opacity:1; fill:none" points="
  264.287,613.78 283.185,613.78 
  "/>
<polyline clip-path="url(#clip310)" style="stroke:#000000; stroke-linecap:butt; stroke-linejoin:round; stroke-width:4; stroke-opacity:1; fill:none" points="
  264.287,297.069 283.185,297.069 
  "/>
<path clip-path="url(#clip310)" d="M119.885 1260.55 L136.204 1260.55 L136.204 1264.48 L114.26 1264.48 L114.26 1260.55 Q116.922 1257.79 121.505 1253.16 Q126.112 1248.51 127.292 1247.17 Q129.538 1244.64 130.417 1242.91 Q131.32 1241.15 131.32 1239.46 Q131.32 1236.7 129.376 1234.97 Q127.455 1233.23 124.353 1233.23 Q122.154 1233.23 119.7 1234 Q117.269 1234.76 114.492 1236.31 L114.492 1231.59 Q117.316 1230.45 119.769 1229.87 Q122.223 1229.3 124.26 1229.3 Q129.63 1229.3 132.825 1231.98 Q136.019 1234.67 136.019 1239.16 Q136.019 1241.29 135.209 1243.21 Q134.422 1245.11 132.316 1247.7 Q131.737 1248.37 128.635 1251.59 Q125.533 1254.78 119.885 1260.55 Z" fill="#000000" fill-rule="evenodd" fill-opacity="1" /><path clip-path="url(#clip310)" d="M144.839 1229.92 L167.061 1229.92 L167.061 1231.91 L154.515 1264.48 L149.63 1264.48 L161.436 1233.86 L144.839 1233.86 L144.839 1229.92 Z" fill="#000000" fill-rule="evenodd" fill-opacity="1" /><path clip-path="url(#clip310)" d="M186.181 1233 Q182.57 1233 180.741 1236.56 Q178.936 1240.11 178.936 1247.24 Q178.936 1254.34 180.741 1257.91 Q182.57 1261.45 186.181 1261.45 Q189.815 1261.45 191.621 1257.91 Q193.45 1254.34 193.45 1247.24 Q193.45 1240.11 191.621 1236.56 Q189.815 1233 186.181 1233 M186.181 1229.3 Q191.991 1229.3 195.047 1233.9 Q198.125 1238.49 198.125 1247.24 Q198.125 1255.96 195.047 1260.57 Q191.991 1265.15 186.181 1265.15 Q180.371 1265.15 177.292 1260.57 Q174.237 1255.96 174.237 1247.24 Q174.237 1238.49 177.292 1233.9 Q180.371 1229.3 186.181 1229.3 Z" fill="#000000" fill-rule="evenodd" fill-opacity="1" /><path clip-path="url(#clip310)" d="M216.343 1233 Q212.732 1233 210.903 1236.56 Q209.098 1240.11 209.098 1247.24 Q209.098 1254.34 210.903 1257.91 Q212.732 1261.45 216.343 1261.45 Q219.977 1261.45 221.783 1257.91 Q223.611 1254.34 223.611 1247.24 Q223.611 1240.11 221.783 1236.56 Q219.977 1233 216.343 1233 M216.343 1229.3 Q222.153 1229.3 225.209 1233.9 Q228.287 1238.49 228.287 1247.24 Q228.287 1255.96 225.209 1260.57 Q222.153 1265.15 216.343 1265.15 Q210.533 1265.15 207.454 1260.57 Q204.399 1255.96 204.399 1247.24 Q204.399 1238.49 207.454 1233.9 Q210.533 1229.3 216.343 1229.3 Z" fill="#000000" fill-rule="evenodd" fill-opacity="1" /><path clip-path="url(#clip310)" d="M119.885 943.835 L136.204 943.835 L136.204 947.77 L114.26 947.77 L114.26 943.835 Q116.922 941.081 121.505 936.451 Q126.112 931.798 127.292 930.456 Q129.538 927.933 130.417 926.197 Q131.32 924.437 131.32 922.747 Q131.32 919.993 129.376 918.257 Q127.455 916.521 124.353 916.521 Q122.154 916.521 119.7 917.285 Q117.269 918.048 114.492 919.599 L114.492 914.877 Q117.316 913.743 119.769 913.164 Q122.223 912.585 124.26 912.585 Q129.63 912.585 132.825 915.271 Q136.019 917.956 136.019 922.447 Q136.019 924.576 135.209 926.497 Q134.422 928.396 132.316 930.988 Q131.737 931.659 128.635 934.877 Q125.533 938.071 119.885 943.835 Z" fill="#000000" fill-rule="evenodd" fill-opacity="1" /><path clip-path="url(#clip310)" d="M156.019 931.359 Q152.686 931.359 150.765 933.141 Q148.866 934.923 148.866 938.048 Q148.866 941.173 150.765 942.956 Q152.686 944.738 156.019 944.738 Q159.353 944.738 161.274 942.956 Q163.195 941.15 163.195 938.048 Q163.195 934.923 161.274 933.141 Q159.376 931.359 156.019 931.359 M151.343 929.368 Q148.334 928.627 146.644 926.567 Q144.978 924.507 144.978 921.544 Q144.978 917.4 147.917 914.993 Q150.88 912.585 156.019 912.585 Q161.181 912.585 164.121 914.993 Q167.061 917.4 167.061 921.544 Q167.061 924.507 165.371 926.567 Q163.704 928.627 160.718 929.368 Q164.098 930.155 165.973 932.446 Q167.871 934.738 167.871 938.048 Q167.871 943.071 164.792 945.757 Q161.737 948.442 156.019 948.442 Q150.302 948.442 147.223 945.757 Q144.167 943.071 144.167 938.048 Q144.167 934.738 146.066 932.446 Q147.964 930.155 151.343 929.368 M149.63 921.984 Q149.63 924.669 151.297 926.173 Q152.987 927.678 156.019 927.678 Q159.028 927.678 160.718 926.173 Q162.431 924.669 162.431 921.984 Q162.431 919.298 160.718 917.794 Q159.028 916.289 156.019 916.289 Q152.987 916.289 151.297 917.794 Q149.63 919.298 149.63 921.984 Z" fill="#000000" fill-rule="evenodd" fill-opacity="1" /><path clip-path="url(#clip310)" d="M186.181 916.289 Q182.57 916.289 180.741 919.854 Q178.936 923.396 178.936 930.525 Q178.936 937.632 180.741 941.196 Q182.57 944.738 186.181 944.738 Q189.815 944.738 191.621 941.196 Q193.45 937.632 193.45 930.525 Q193.45 923.396 191.621 919.854 Q189.815 916.289 186.181 916.289 M186.181 912.585 Q191.991 912.585 195.047 917.192 Q198.125 921.775 198.125 930.525 Q198.125 939.252 195.047 943.858 Q191.991 948.442 186.181 948.442 Q180.371 948.442 177.292 943.858 Q174.237 939.252 174.237 930.525 Q174.237 921.775 177.292 917.192 Q180.371 912.585 186.181 912.585 Z" fill="#000000" fill-rule="evenodd" fill-opacity="1" /><path clip-path="url(#clip310)" d="M216.343 916.289 Q212.732 916.289 210.903 919.854 Q209.098 923.396 209.098 930.525 Q209.098 937.632 210.903 941.196 Q212.732 944.738 216.343 944.738 Q219.977 944.738 221.783 941.196 Q223.611 937.632 223.611 930.525 Q223.611 923.396 221.783 919.854 Q219.977 916.289 216.343 916.289 M216.343 912.585 Q222.153 912.585 225.209 917.192 Q228.287 921.775 228.287 930.525 Q228.287 939.252 225.209 943.858 Q222.153 948.442 216.343 948.442 Q210.533 948.442 207.454 943.858 Q204.399 939.252 204.399 930.525 Q204.399 921.775 207.454 917.192 Q210.533 912.585 216.343 912.585 Z" fill="#000000" fill-rule="evenodd" fill-opacity="1" /><path clip-path="url(#clip310)" d="M119.885 627.125 L136.204 627.125 L136.204 631.06 L114.26 631.06 L114.26 627.125 Q116.922 624.37 121.505 619.74 Q126.112 615.088 127.292 613.745 Q129.538 611.222 130.417 609.486 Q131.32 607.727 131.32 606.037 Q131.32 603.282 129.376 601.546 Q127.455 599.81 124.353 599.81 Q122.154 599.81 119.7 600.574 Q117.269 601.338 114.492 602.889 L114.492 598.166 Q117.316 597.032 119.769 596.453 Q122.223 595.875 124.26 595.875 Q129.63 595.875 132.825 598.56 Q136.019 601.245 136.019 605.736 Q136.019 607.865 135.209 609.787 Q134.422 611.685 132.316 614.277 Q131.737 614.949 128.635 618.166 Q125.533 621.361 119.885 627.125 Z" fill="#000000" fill-rule="evenodd" fill-opacity="1" /><path clip-path="url(#clip310)" d="M146.158 630.342 L146.158 626.083 Q147.917 626.916 149.723 627.356 Q151.528 627.796 153.265 627.796 Q157.894 627.796 160.325 624.694 Q162.778 621.569 163.126 615.227 Q161.783 617.217 159.723 618.282 Q157.663 619.347 155.163 619.347 Q149.978 619.347 146.945 616.222 Q143.936 613.074 143.936 607.634 Q143.936 602.31 147.084 599.092 Q150.232 595.875 155.464 595.875 Q161.459 595.875 164.607 600.481 Q167.778 605.065 167.778 613.815 Q167.778 621.986 163.89 626.87 Q160.024 631.731 153.473 631.731 Q151.714 631.731 149.908 631.384 Q148.103 631.037 146.158 630.342 M155.464 615.689 Q158.612 615.689 160.44 613.537 Q162.292 611.384 162.292 607.634 Q162.292 603.907 160.44 601.754 Q158.612 599.578 155.464 599.578 Q152.316 599.578 150.464 601.754 Q148.635 603.907 148.635 607.634 Q148.635 611.384 150.464 613.537 Q152.316 615.689 155.464 615.689 Z" fill="#000000" fill-rule="evenodd" fill-opacity="1" /><path clip-path="url(#clip310)" d="M186.181 599.578 Q182.57 599.578 180.741 603.143 Q178.936 606.685 178.936 613.815 Q178.936 620.921 180.741 624.486 Q182.57 628.027 186.181 628.027 Q189.815 628.027 191.621 624.486 Q193.45 620.921 193.45 613.815 Q193.45 606.685 191.621 603.143 Q189.815 599.578 186.181 599.578 M186.181 595.875 Q191.991 595.875 195.047 600.481 Q198.125 605.065 198.125 613.815 Q198.125 622.541 195.047 627.148 Q191.991 631.731 186.181 631.731 Q180.371 631.731 177.292 627.148 Q174.237 622.541 174.237 613.815 Q174.237 605.065 177.292 600.481 Q180.371 595.875 186.181 595.875 Z" fill="#000000" fill-rule="evenodd" fill-opacity="1" /><path clip-path="url(#clip310)" d="M216.343 599.578 Q212.732 599.578 210.903 603.143 Q209.098 606.685 209.098 613.815 Q209.098 620.921 210.903 624.486 Q212.732 628.027 216.343 628.027 Q219.977 628.027 221.783 624.486 Q223.611 620.921 223.611 613.815 Q223.611 606.685 221.783 603.143 Q219.977 599.578 216.343 599.578 M216.343 595.875 Q222.153 595.875 225.209 600.481 Q228.287 605.065 228.287 613.815 Q228.287 622.541 225.209 627.148 Q222.153 631.731 216.343 631.731 Q210.533 631.731 207.454 627.148 Q204.399 622.541 204.399 613.815 Q204.399 605.065 207.454 600.481 Q210.533 595.875 216.343 595.875 Z" fill="#000000" fill-rule="evenodd" fill-opacity="1" /><path clip-path="url(#clip310)" d="M130.024 295.715 Q133.38 296.433 135.255 298.701 Q137.154 300.97 137.154 304.303 Q137.154 309.419 133.635 312.219 Q130.117 315.02 123.635 315.02 Q121.459 315.02 119.144 314.581 Q116.853 314.164 114.399 313.307 L114.399 308.794 Q116.343 309.928 118.658 310.507 Q120.973 311.085 123.496 311.085 Q127.894 311.085 130.186 309.349 Q132.501 307.613 132.501 304.303 Q132.501 301.247 130.348 299.534 Q128.218 297.798 124.399 297.798 L120.371 297.798 L120.371 293.956 L124.584 293.956 Q128.033 293.956 129.862 292.59 Q131.691 291.201 131.691 288.608 Q131.691 285.946 129.792 284.534 Q127.917 283.099 124.399 283.099 Q122.478 283.099 120.279 283.516 Q118.08 283.933 115.441 284.812 L115.441 280.646 Q118.103 279.905 120.418 279.534 Q122.755 279.164 124.816 279.164 Q130.14 279.164 133.242 281.595 Q136.343 284.002 136.343 288.122 Q136.343 290.993 134.7 292.983 Q133.056 294.951 130.024 295.715 Z" fill="#000000" fill-rule="evenodd" fill-opacity="1" /><path clip-path="url(#clip310)" d="M156.019 282.868 Q152.408 282.868 150.579 286.433 Q148.774 289.974 148.774 297.104 Q148.774 304.21 150.579 307.775 Q152.408 311.317 156.019 311.317 Q159.653 311.317 161.459 307.775 Q163.288 304.21 163.288 297.104 Q163.288 289.974 161.459 286.433 Q159.653 282.868 156.019 282.868 M156.019 279.164 Q161.829 279.164 164.885 283.771 Q167.964 288.354 167.964 297.104 Q167.964 305.831 164.885 310.437 Q161.829 315.02 156.019 315.02 Q150.209 315.02 147.13 310.437 Q144.075 305.831 144.075 297.104 Q144.075 288.354 147.13 283.771 Q150.209 279.164 156.019 279.164 Z" fill="#000000" fill-rule="evenodd" fill-opacity="1" /><path clip-path="url(#clip310)" d="M186.181 282.868 Q182.57 282.868 180.741 286.433 Q178.936 289.974 178.936 297.104 Q178.936 304.21 180.741 307.775 Q182.57 311.317 186.181 311.317 Q189.815 311.317 191.621 307.775 Q193.45 304.21 193.45 297.104 Q193.45 289.974 191.621 286.433 Q189.815 282.868 186.181 282.868 M186.181 279.164 Q191.991 279.164 195.047 283.771 Q198.125 288.354 198.125 297.104 Q198.125 305.831 195.047 310.437 Q191.991 315.02 186.181 315.02 Q180.371 315.02 177.292 310.437 Q174.237 305.831 174.237 297.104 Q174.237 288.354 177.292 283.771 Q180.371 279.164 186.181 279.164 Z" fill="#000000" fill-rule="evenodd" fill-opacity="1" /><path clip-path="url(#clip310)" d="M216.343 282.868 Q212.732 282.868 210.903 286.433 Q209.098 289.974 209.098 297.104 Q209.098 304.21 210.903 307.775 Q212.732 311.317 216.343 311.317 Q219.977 311.317 221.783 307.775 Q223.611 304.21 223.611 297.104 Q223.611 289.974 221.783 286.433 Q219.977 282.868 216.343 282.868 M216.343 279.164 Q222.153 279.164 225.209 283.771 Q228.287 288.354 228.287 297.104 Q228.287 305.831 225.209 310.437 Q222.153 315.02 216.343 315.02 Q210.533 315.02 207.454 310.437 Q204.399 305.831 204.399 297.104 Q204.399 288.354 207.454 283.771 Q210.533 279.164 216.343 279.164 Z" fill="#000000" fill-rule="evenodd" fill-opacity="1" /><path clip-path="url(#clip310)" d="M22.818 922.094 L46.4666 930.815 L46.4666 913.341 L22.818 922.094 M16.4842 925.723 L16.4842 918.434 L64.0042 900.324 L64.0042 907.008 L51.8138 911.336 L51.8138 932.757 L64.0042 937.085 L64.0042 943.865 L16.4842 925.723 Z" fill="#000000" fill-rule="evenodd" fill-opacity="1" /><path clip-path="url(#clip310)" d="M45.7664 870.182 Q39.4007 870.182 35.8996 872.824 Q32.3984 875.434 32.3984 880.176 Q32.3984 884.887 35.8996 887.528 Q39.4007 890.138 45.7664 890.138 Q52.1003 890.138 55.6014 887.528 Q59.1026 884.887 59.1026 880.176 Q59.1026 875.434 55.6014 872.824 Q52.1003 870.182 45.7664 870.182 M59.58 864.325 Q68.683 864.325 73.1071 868.368 Q77.5631 872.41 77.5631 880.749 Q77.5631 883.836 77.0857 886.574 Q76.6401 889.311 75.6852 891.889 L69.9879 891.889 Q71.3884 889.311 72.0568 886.796 Q72.7252 884.282 72.7252 881.672 Q72.7252 875.911 69.7015 873.046 Q66.7096 870.182 60.6303 870.182 L57.7339 870.182 Q60.885 871.996 62.4446 874.829 Q64.0042 877.662 64.0042 881.608 Q64.0042 888.165 59.0071 892.175 Q54.01 896.186 45.7664 896.186 Q37.491 896.186 32.4939 892.175 Q27.4968 888.165 27.4968 881.608 Q27.4968 877.662 29.0564 874.829 Q30.616 871.996 33.7671 870.182 L28.3562 870.182 L28.3562 864.325 L59.58 864.325 Z" fill="#000000" fill-rule="evenodd" fill-opacity="1" /><path clip-path="url(#clip310)" d="M44.7161 821.771 L47.5806 821.771 L47.5806 848.698 Q53.6281 848.316 56.8109 845.069 Q59.9619 841.791 59.9619 835.966 Q59.9619 832.592 59.1344 829.441 Q58.3069 826.259 56.6518 823.139 L62.1899 823.139 Q63.5267 826.29 64.227 829.601 Q64.9272 832.911 64.9272 836.316 Q64.9272 844.846 59.9619 849.843 Q54.9967 854.809 46.5303 854.809 Q37.7774 854.809 32.6531 850.098 Q27.4968 845.356 27.4968 837.335 Q27.4968 830.142 32.1438 825.972 Q36.7589 821.771 44.7161 821.771 M42.9973 827.627 Q38.1912 827.691 35.3266 830.333 Q32.4621 832.943 32.4621 837.271 Q32.4621 842.173 35.2312 845.133 Q38.0002 848.061 43.0292 848.507 L42.9973 827.627 Z" fill="#000000" fill-rule="evenodd" fill-opacity="1" /><path clip-path="url(#clip310)" d="M14.5426 777.37 Q21.8632 781.635 29.0246 783.704 Q36.186 785.773 43.5384 785.773 Q50.8908 785.773 58.1159 783.704 Q65.3091 781.603 72.5979 777.37 L72.5979 782.462 Q65.1182 787.237 57.8931 789.624 Q50.668 791.979 43.5384 791.979 Q36.4406 791.979 29.2474 789.624 Q22.0542 787.269 14.5426 782.462 L14.5426 777.37 Z" fill="#000000" fill-rule="evenodd" fill-opacity="1" /><path clip-path="url(#clip310)" d="M16.4842 765.752 L16.4842 756.172 L48.8219 744.045 L16.4842 731.855 L16.4842 722.275 L64.0042 722.275 L64.0042 728.545 L22.277 728.545 L54.8694 740.799 L54.8694 747.26 L22.277 759.514 L64.0042 759.514 L64.0042 765.752 L16.4842 765.752 Z" fill="#000000" fill-rule="evenodd" fill-opacity="1" /><path clip-path="url(#clip310)" d="M46.0847 693.565 Q46.0847 700.663 47.7079 703.4 Q49.3312 706.138 53.2461 706.138 Q56.3653 706.138 58.2114 704.101 Q60.0256 702.032 60.0256 698.499 Q60.0256 693.629 56.5881 690.701 Q53.1188 687.741 47.3897 687.741 L46.0847 687.741 L46.0847 693.565 M43.6657 681.884 L64.0042 681.884 L64.0042 687.741 L58.5933 687.741 Q61.8398 689.746 63.3994 692.738 Q64.9272 695.73 64.9272 700.058 Q64.9272 705.533 61.8716 708.779 Q58.7843 711.994 53.6281 711.994 Q47.6125 711.994 44.5569 707.984 Q41.5014 703.941 41.5014 695.953 L41.5014 687.741 L40.9285 687.741 Q36.8862 687.741 34.6901 690.414 Q32.4621 693.056 32.4621 697.862 Q32.4621 700.918 33.1941 703.814 Q33.9262 706.711 35.3903 709.384 L29.9795 709.384 Q28.7381 706.169 28.1334 703.146 Q27.4968 700.122 27.4968 697.257 Q27.4968 689.523 31.5072 685.704 Q35.5176 681.884 43.6657 681.884 Z" fill="#000000" fill-rule="evenodd" fill-opacity="1" /><path clip-path="url(#clip310)" d="M14.5426 670.744 L14.5426 665.652 Q22.0542 660.877 29.2474 658.522 Q36.4406 656.135 43.5384 656.135 Q50.668 656.135 57.8931 658.522 Q65.1182 660.877 72.5979 665.652 L72.5979 670.744 Q65.3091 666.511 58.1159 664.442 Q50.8908 662.342 43.5384 662.342 Q36.186 662.342 29.0246 664.442 Q21.8632 666.511 14.5426 670.744 Z" fill="#000000" fill-rule="evenodd" fill-opacity="1" /><polyline clip-path="url(#clip312)" style="stroke:#009af9; stroke-linecap:butt; stroke-linejoin:round; stroke-width:4; stroke-opacity:1; fill:none" points="
  323.395,1510.15 323.395,1298.43 
  "/>
<polyline clip-path="url(#clip312)" style="stroke:#009af9; stroke-linecap:butt; stroke-linejoin:round; stroke-width:4; stroke-opacity:1; fill:none" points="
  379.688,1471.47 379.688,1257.93 
  "/>
<polyline clip-path="url(#clip312)" style="stroke:#009af9; stroke-linecap:butt; stroke-linejoin:round; stroke-width:4; stroke-opacity:1; fill:none" points="
  435.981,1470.64 435.981,1258.76 
  "/>
<polyline clip-path="url(#clip312)" style="stroke:#009af9; stroke-linecap:butt; stroke-linejoin:round; stroke-width:4; stroke-opacity:1; fill:none" points="
  492.274,1460.91 492.274,1246.32 
  "/>
<polyline clip-path="url(#clip312)" style="stroke:#009af9; stroke-linecap:butt; stroke-linejoin:round; stroke-width:4; stroke-opacity:1; fill:none" points="
  548.567,1455.8 548.567,1244.47 
  "/>
<polyline clip-path="url(#clip312)" style="stroke:#009af9; stroke-linecap:butt; stroke-linejoin:round; stroke-width:4; stroke-opacity:1; fill:none" points="
  604.86,1450.24 604.86,1236.09 
  "/>
<polyline clip-path="url(#clip312)" style="stroke:#009af9; stroke-linecap:butt; stroke-linejoin:round; stroke-width:4; stroke-opacity:1; fill:none" points="
  661.153,1442.24 661.153,1230.79 
  "/>
<polyline clip-path="url(#clip312)" style="stroke:#009af9; stroke-linecap:butt; stroke-linejoin:round; stroke-width:4; stroke-opacity:1; fill:none" points="
  717.446,1440.33 717.446,1228.26 
  "/>
<polyline clip-path="url(#clip312)" style="stroke:#009af9; stroke-linecap:butt; stroke-linejoin:round; stroke-width:4; stroke-opacity:1; fill:none" points="
  773.739,1433.23 773.739,1219.53 
  "/>
<polyline clip-path="url(#clip312)" style="stroke:#009af9; stroke-linecap:butt; stroke-linejoin:round; stroke-width:4; stroke-opacity:1; fill:none" points="
  830.032,1415.72 830.032,1204.73 
  "/>
<polyline clip-path="url(#clip312)" style="stroke:#009af9; stroke-linecap:butt; stroke-linejoin:round; stroke-width:4; stroke-opacity:1; fill:none" points="
  886.324,1415.32 886.324,1203.24 
  "/>
<polyline clip-path="url(#clip312)" style="stroke:#009af9; stroke-linecap:butt; stroke-linejoin:round; stroke-width:4; stroke-opacity:1; fill:none" points="
  942.617,1408 942.617,1195.35 
  "/>
<polyline clip-path="url(#clip312)" style="stroke:#009af9; stroke-linecap:butt; stroke-linejoin:round; stroke-width:4; stroke-opacity:1; fill:none" points="
  998.91,1396.09 998.91,1181.29 
  "/>
<polyline clip-path="url(#clip312)" style="stroke:#009af9; stroke-linecap:butt; stroke-linejoin:round; stroke-width:4; stroke-opacity:1; fill:none" points="
  1055.2,1393.84 1055.2,1181.64 
  "/>
<polyline clip-path="url(#clip312)" style="stroke:#009af9; stroke-linecap:butt; stroke-linejoin:round; stroke-width:4; stroke-opacity:1; fill:none" points="
  1111.5,1388.97 1111.5,1168.77 
  "/>
<polyline clip-path="url(#clip312)" style="stroke:#009af9; stroke-linecap:butt; stroke-linejoin:round; stroke-width:4; stroke-opacity:1; fill:none" points="
  1167.79,1376.25 1167.79,1163.13 
  "/>
<polyline clip-path="url(#clip312)" style="stroke:#009af9; stroke-linecap:butt; stroke-linejoin:round; stroke-width:4; stroke-opacity:1; fill:none" points="
  1224.08,1374.35 1224.08,1160.59 
  "/>
<polyline clip-path="url(#clip312)" style="stroke:#009af9; stroke-linecap:butt; stroke-linejoin:round; stroke-width:4; stroke-opacity:1; fill:none" points="
  1280.38,1347.82 1280.38,1135.81 
  "/>
<polyline clip-path="url(#clip312)" style="stroke:#009af9; stroke-linecap:butt; stroke-linejoin:round; stroke-width:4; stroke-opacity:1; fill:none" points="
  1336.67,1341.95 1336.67,1114.45 
  "/>
<polyline clip-path="url(#clip312)" style="stroke:#009af9; stroke-linecap:butt; stroke-linejoin:round; stroke-width:4; stroke-opacity:1; fill:none" points="
  1392.96,1332.66 1392.96,1121.83 
  "/>
<polyline clip-path="url(#clip312)" style="stroke:#009af9; stroke-linecap:butt; stroke-linejoin:round; stroke-width:4; stroke-opacity:1; fill:none" points="
  1449.25,1319.61 1449.25,1106.39 
  "/>
<polyline clip-path="url(#clip312)" style="stroke:#009af9; stroke-linecap:butt; stroke-linejoin:round; stroke-width:4; stroke-opacity:1; fill:none" points="
  1505.55,1308.2 1505.55,1097.52 
  "/>
<polyline clip-path="url(#clip312)" style="stroke:#009af9; stroke-linecap:butt; stroke-linejoin:round; stroke-width:4; stroke-opacity:1; fill:none" points="
  1561.84,1304.19 1561.84,1092.67 
  "/>
<polyline clip-path="url(#clip312)" style="stroke:#009af9; stroke-linecap:butt; stroke-linejoin:round; stroke-width:4; stroke-opacity:1; fill:none" points="
  1618.13,1301.8 1618.13,1088.72 
  "/>
<polyline clip-path="url(#clip312)" style="stroke:#009af9; stroke-linecap:butt; stroke-linejoin:round; stroke-width:4; stroke-opacity:1; fill:none" points="
  1674.43,1292.75 1674.43,1083.2 
  "/>
<polyline clip-path="url(#clip312)" style="stroke:#009af9; stroke-linecap:butt; stroke-linejoin:round; stroke-width:4; stroke-opacity:1; fill:none" points="
  1730.72,1261.83 1730.72,1050.15 
  "/>
<polyline clip-path="url(#clip312)" style="stroke:#009af9; stroke-linecap:butt; stroke-linejoin:round; stroke-width:4; stroke-opacity:1; fill:none" points="
  1787.01,1259.48 1787.01,1048.7 
  "/>
<polyline clip-path="url(#clip312)" style="stroke:#009af9; stroke-linecap:butt; stroke-linejoin:round; stroke-width:4; stroke-opacity:1; fill:none" points="
  1843.3,1254.94 1843.3,1041.2 
  "/>
<polyline clip-path="url(#clip312)" style="stroke:#009af9; stroke-linecap:butt; stroke-linejoin:round; stroke-width:4; stroke-opacity:1; fill:none" points="
  1899.6,1234.18 1899.6,1024.59 
  "/>
<polyline clip-path="url(#clip312)" style="stroke:#009af9; stroke-linecap:butt; stroke-linejoin:round; stroke-width:4; stroke-opacity:1; fill:none" points="
  1955.89,1219.13 1955.89,1005.44 
  "/>
<polyline clip-path="url(#clip312)" style="stroke:#009af9; stroke-linecap:butt; stroke-linejoin:round; stroke-width:4; stroke-opacity:1; fill:none" points="
  2012.18,1210 2012.18,1000.63 
  "/>
<polyline clip-path="url(#clip312)" style="stroke:#009af9; stroke-linecap:butt; stroke-linejoin:round; stroke-width:4; stroke-opacity:1; fill:none" points="
  2068.48,1034.65 2068.48,823.802 
  "/>
<polyline clip-path="url(#clip312)" style="stroke:#009af9; stroke-linecap:butt; stroke-linejoin:round; stroke-width:4; stroke-opacity:1; fill:none" points="
  2124.77,979.26 2124.77,768.338 
  "/>
<polyline clip-path="url(#clip312)" style="stroke:#009af9; stroke-linecap:butt; stroke-linejoin:round; stroke-width:4; stroke-opacity:1; fill:none" points="
  2181.06,831.291 2181.06,619.233 
  "/>
<polyline clip-path="url(#clip312)" style="stroke:#009af9; stroke-linecap:butt; stroke-linejoin:round; stroke-width:4; stroke-opacity:1; fill:none" points="
  2237.36,320.378 2237.36,115.405 
  "/>
<polyline clip-path="url(#clip312)" style="stroke:#009af9; stroke-linecap:butt; stroke-linejoin:round; stroke-width:4; stroke-opacity:1; fill:none" points="
  2293.65,293.989 2293.65,89.8529 
  "/>
<line clip-path="url(#clip312)" x1="331.395" y1="1510.15" x2="315.395" y2="1510.15" style="stroke:#009af9; stroke-width:3.2; stroke-opacity:1"/>
<line clip-path="url(#clip312)" x1="331.395" y1="1298.43" x2="315.395" y2="1298.43" style="stroke:#009af9; stroke-width:3.2; stroke-opacity:1"/>
<line clip-path="url(#clip312)" x1="387.688" y1="1471.47" x2="371.688" y2="1471.47" style="stroke:#009af9; stroke-width:3.2; stroke-opacity:1"/>
<line clip-path="url(#clip312)" x1="387.688" y1="1257.93" x2="371.688" y2="1257.93" style="stroke:#009af9; stroke-width:3.2; stroke-opacity:1"/>
<line clip-path="url(#clip312)" x1="443.981" y1="1470.64" x2="427.981" y2="1470.64" style="stroke:#009af9; stroke-width:3.2; stroke-opacity:1"/>
<line clip-path="url(#clip312)" x1="443.981" y1="1258.76" x2="427.981" y2="1258.76" style="stroke:#009af9; stroke-width:3.2; stroke-opacity:1"/>
<line clip-path="url(#clip312)" x1="500.274" y1="1460.91" x2="484.274" y2="1460.91" style="stroke:#009af9; stroke-width:3.2; stroke-opacity:1"/>
<line clip-path="url(#clip312)" x1="500.274" y1="1246.32" x2="484.274" y2="1246.32" style="stroke:#009af9; stroke-width:3.2; stroke-opacity:1"/>
<line clip-path="url(#clip312)" x1="556.567" y1="1455.8" x2="540.567" y2="1455.8" style="stroke:#009af9; stroke-width:3.2; stroke-opacity:1"/>
<line clip-path="url(#clip312)" x1="556.567" y1="1244.47" x2="540.567" y2="1244.47" style="stroke:#009af9; stroke-width:3.2; stroke-opacity:1"/>
<line clip-path="url(#clip312)" x1="612.86" y1="1450.24" x2="596.86" y2="1450.24" style="stroke:#009af9; stroke-width:3.2; stroke-opacity:1"/>
<line clip-path="url(#clip312)" x1="612.86" y1="1236.09" x2="596.86" y2="1236.09" style="stroke:#009af9; stroke-width:3.2; stroke-opacity:1"/>
<line clip-path="url(#clip312)" x1="669.153" y1="1442.24" x2="653.153" y2="1442.24" style="stroke:#009af9; stroke-width:3.2; stroke-opacity:1"/>
<line clip-path="url(#clip312)" x1="669.153" y1="1230.79" x2="653.153" y2="1230.79" style="stroke:#009af9; stroke-width:3.2; stroke-opacity:1"/>
<line clip-path="url(#clip312)" x1="725.446" y1="1440.33" x2="709.446" y2="1440.33" style="stroke:#009af9; stroke-width:3.2; stroke-opacity:1"/>
<line clip-path="url(#clip312)" x1="725.446" y1="1228.26" x2="709.446" y2="1228.26" style="stroke:#009af9; stroke-width:3.2; stroke-opacity:1"/>
<line clip-path="url(#clip312)" x1="781.739" y1="1433.23" x2="765.739" y2="1433.23" style="stroke:#009af9; stroke-width:3.2; stroke-opacity:1"/>
<line clip-path="url(#clip312)" x1="781.739" y1="1219.53" x2="765.739" y2="1219.53" style="stroke:#009af9; stroke-width:3.2; stroke-opacity:1"/>
<line clip-path="url(#clip312)" x1="838.032" y1="1415.72" x2="822.032" y2="1415.72" style="stroke:#009af9; stroke-width:3.2; stroke-opacity:1"/>
<line clip-path="url(#clip312)" x1="838.032" y1="1204.73" x2="822.032" y2="1204.73" style="stroke:#009af9; stroke-width:3.2; stroke-opacity:1"/>
<line clip-path="url(#clip312)" x1="894.324" y1="1415.32" x2="878.324" y2="1415.32" style="stroke:#009af9; stroke-width:3.2; stroke-opacity:1"/>
<line clip-path="url(#clip312)" x1="894.324" y1="1203.24" x2="878.324" y2="1203.24" style="stroke:#009af9; stroke-width:3.2; stroke-opacity:1"/>
<line clip-path="url(#clip312)" x1="950.617" y1="1408" x2="934.617" y2="1408" style="stroke:#009af9; stroke-width:3.2; stroke-opacity:1"/>
<line clip-path="url(#clip312)" x1="950.617" y1="1195.35" x2="934.617" y2="1195.35" style="stroke:#009af9; stroke-width:3.2; stroke-opacity:1"/>
<line clip-path="url(#clip312)" x1="1006.91" y1="1396.09" x2="990.91" y2="1396.09" style="stroke:#009af9; stroke-width:3.2; stroke-opacity:1"/>
<line clip-path="url(#clip312)" x1="1006.91" y1="1181.29" x2="990.91" y2="1181.29" style="stroke:#009af9; stroke-width:3.2; stroke-opacity:1"/>
<line clip-path="url(#clip312)" x1="1063.2" y1="1393.84" x2="1047.2" y2="1393.84" style="stroke:#009af9; stroke-width:3.2; stroke-opacity:1"/>
<line clip-path="url(#clip312)" x1="1063.2" y1="1181.64" x2="1047.2" y2="1181.64" style="stroke:#009af9; stroke-width:3.2; stroke-opacity:1"/>
<line clip-path="url(#clip312)" x1="1119.5" y1="1388.97" x2="1103.5" y2="1388.97" style="stroke:#009af9; stroke-width:3.2; stroke-opacity:1"/>
<line clip-path="url(#clip312)" x1="1119.5" y1="1168.77" x2="1103.5" y2="1168.77" style="stroke:#009af9; stroke-width:3.2; stroke-opacity:1"/>
<line clip-path="url(#clip312)" x1="1175.79" y1="1376.25" x2="1159.79" y2="1376.25" style="stroke:#009af9; stroke-width:3.2; stroke-opacity:1"/>
<line clip-path="url(#clip312)" x1="1175.79" y1="1163.13" x2="1159.79" y2="1163.13" style="stroke:#009af9; stroke-width:3.2; stroke-opacity:1"/>
<line clip-path="url(#clip312)" x1="1232.08" y1="1374.35" x2="1216.08" y2="1374.35" style="stroke:#009af9; stroke-width:3.2; stroke-opacity:1"/>
<line clip-path="url(#clip312)" x1="1232.08" y1="1160.59" x2="1216.08" y2="1160.59" style="stroke:#009af9; stroke-width:3.2; stroke-opacity:1"/>
<line clip-path="url(#clip312)" x1="1288.38" y1="1347.82" x2="1272.38" y2="1347.82" style="stroke:#009af9; stroke-width:3.2; stroke-opacity:1"/>
<line clip-path="url(#clip312)" x1="1288.38" y1="1135.81" x2="1272.38" y2="1135.81" style="stroke:#009af9; stroke-width:3.2; stroke-opacity:1"/>
<line clip-path="url(#clip312)" x1="1344.67" y1="1341.95" x2="1328.67" y2="1341.95" style="stroke:#009af9; stroke-width:3.2; stroke-opacity:1"/>
<line clip-path="url(#clip312)" x1="1344.67" y1="1114.45" x2="1328.67" y2="1114.45" style="stroke:#009af9; stroke-width:3.2; stroke-opacity:1"/>
<line clip-path="url(#clip312)" x1="1400.96" y1="1332.66" x2="1384.96" y2="1332.66" style="stroke:#009af9; stroke-width:3.2; stroke-opacity:1"/>
<line clip-path="url(#clip312)" x1="1400.96" y1="1121.83" x2="1384.96" y2="1121.83" style="stroke:#009af9; stroke-width:3.2; stroke-opacity:1"/>
<line clip-path="url(#clip312)" x1="1457.25" y1="1319.61" x2="1441.25" y2="1319.61" style="stroke:#009af9; stroke-width:3.2; stroke-opacity:1"/>
<line clip-path="url(#clip312)" x1="1457.25" y1="1106.39" x2="1441.25" y2="1106.39" style="stroke:#009af9; stroke-width:3.2; stroke-opacity:1"/>
<line clip-path="url(#clip312)" x1="1513.55" y1="1308.2" x2="1497.55" y2="1308.2" style="stroke:#009af9; stroke-width:3.2; stroke-opacity:1"/>
<line clip-path="url(#clip312)" x1="1513.55" y1="1097.52" x2="1497.55" y2="1097.52" style="stroke:#009af9; stroke-width:3.2; stroke-opacity:1"/>
<line clip-path="url(#clip312)" x1="1569.84" y1="1304.19" x2="1553.84" y2="1304.19" style="stroke:#009af9; stroke-width:3.2; stroke-opacity:1"/>
<line clip-path="url(#clip312)" x1="1569.84" y1="1092.67" x2="1553.84" y2="1092.67" style="stroke:#009af9; stroke-width:3.2; stroke-opacity:1"/>
<line clip-path="url(#clip312)" x1="1626.13" y1="1301.8" x2="1610.13" y2="1301.8" style="stroke:#009af9; stroke-width:3.2; stroke-opacity:1"/>
<line clip-path="url(#clip312)" x1="1626.13" y1="1088.72" x2="1610.13" y2="1088.72" style="stroke:#009af9; stroke-width:3.2; stroke-opacity:1"/>
<line clip-path="url(#clip312)" x1="1682.43" y1="1292.75" x2="1666.43" y2="1292.75" style="stroke:#009af9; stroke-width:3.2; stroke-opacity:1"/>
<line clip-path="url(#clip312)" x1="1682.43" y1="1083.2" x2="1666.43" y2="1083.2" style="stroke:#009af9; stroke-width:3.2; stroke-opacity:1"/>
<line clip-path="url(#clip312)" x1="1738.72" y1="1261.83" x2="1722.72" y2="1261.83" style="stroke:#009af9; stroke-width:3.2; stroke-opacity:1"/>
<line clip-path="url(#clip312)" x1="1738.72" y1="1050.15" x2="1722.72" y2="1050.15" style="stroke:#009af9; stroke-width:3.2; stroke-opacity:1"/>
<line clip-path="url(#clip312)" x1="1795.01" y1="1259.48" x2="1779.01" y2="1259.48" style="stroke:#009af9; stroke-width:3.2; stroke-opacity:1"/>
<line clip-path="url(#clip312)" x1="1795.01" y1="1048.7" x2="1779.01" y2="1048.7" style="stroke:#009af9; stroke-width:3.2; stroke-opacity:1"/>
<line clip-path="url(#clip312)" x1="1851.3" y1="1254.94" x2="1835.3" y2="1254.94" style="stroke:#009af9; stroke-width:3.2; stroke-opacity:1"/>
<line clip-path="url(#clip312)" x1="1851.3" y1="1041.2" x2="1835.3" y2="1041.2" style="stroke:#009af9; stroke-width:3.2; stroke-opacity:1"/>
<line clip-path="url(#clip312)" x1="1907.6" y1="1234.18" x2="1891.6" y2="1234.18" style="stroke:#009af9; stroke-width:3.2; stroke-opacity:1"/>
<line clip-path="url(#clip312)" x1="1907.6" y1="1024.59" x2="1891.6" y2="1024.59" style="stroke:#009af9; stroke-width:3.2; stroke-opacity:1"/>
<line clip-path="url(#clip312)" x1="1963.89" y1="1219.13" x2="1947.89" y2="1219.13" style="stroke:#009af9; stroke-width:3.2; stroke-opacity:1"/>
<line clip-path="url(#clip312)" x1="1963.89" y1="1005.44" x2="1947.89" y2="1005.44" style="stroke:#009af9; stroke-width:3.2; stroke-opacity:1"/>
<line clip-path="url(#clip312)" x1="2020.18" y1="1210" x2="2004.18" y2="1210" style="stroke:#009af9; stroke-width:3.2; stroke-opacity:1"/>
<line clip-path="url(#clip312)" x1="2020.18" y1="1000.63" x2="2004.18" y2="1000.63" style="stroke:#009af9; stroke-width:3.2; stroke-opacity:1"/>
<line clip-path="url(#clip312)" x1="2076.48" y1="1034.65" x2="2060.48" y2="1034.65" style="stroke:#009af9; stroke-width:3.2; stroke-opacity:1"/>
<line clip-path="url(#clip312)" x1="2076.48" y1="823.802" x2="2060.48" y2="823.802" style="stroke:#009af9; stroke-width:3.2; stroke-opacity:1"/>
<line clip-path="url(#clip312)" x1="2132.77" y1="979.26" x2="2116.77" y2="979.26" style="stroke:#009af9; stroke-width:3.2; stroke-opacity:1"/>
<line clip-path="url(#clip312)" x1="2132.77" y1="768.338" x2="2116.77" y2="768.338" style="stroke:#009af9; stroke-width:3.2; stroke-opacity:1"/>
<line clip-path="url(#clip312)" x1="2189.06" y1="831.291" x2="2173.06" y2="831.291" style="stroke:#009af9; stroke-width:3.2; stroke-opacity:1"/>
<line clip-path="url(#clip312)" x1="2189.06" y1="619.233" x2="2173.06" y2="619.233" style="stroke:#009af9; stroke-width:3.2; stroke-opacity:1"/>
<line clip-path="url(#clip312)" x1="2245.36" y1="320.378" x2="2229.36" y2="320.378" style="stroke:#009af9; stroke-width:3.2; stroke-opacity:1"/>
<line clip-path="url(#clip312)" x1="2245.36" y1="115.405" x2="2229.36" y2="115.405" style="stroke:#009af9; stroke-width:3.2; stroke-opacity:1"/>
<line clip-path="url(#clip312)" x1="2301.65" y1="293.989" x2="2285.65" y2="293.989" style="stroke:#009af9; stroke-width:3.2; stroke-opacity:1"/>
<line clip-path="url(#clip312)" x1="2301.65" y1="89.8529" x2="2285.65" y2="89.8529" style="stroke:#009af9; stroke-width:3.2; stroke-opacity:1"/>
<circle clip-path="url(#clip312)" cx="323.395" cy="1404.29" r="7" fill="#009af9" fill-rule="evenodd" fill-opacity="1" stroke="none"/>
<circle clip-path="url(#clip312)" cx="379.688" cy="1364.7" r="7" fill="#009af9" fill-rule="evenodd" fill-opacity="1" stroke="none"/>
<circle clip-path="url(#clip312)" cx="435.981" cy="1364.7" r="7" fill="#009af9" fill-rule="evenodd" fill-opacity="1" stroke="none"/>
<circle clip-path="url(#clip312)" cx="492.274" cy="1353.62" r="7" fill="#009af9" fill-rule="evenodd" fill-opacity="1" stroke="none"/>
<circle clip-path="url(#clip312)" cx="548.567" cy="1350.13" r="7" fill="#009af9" fill-rule="evenodd" fill-opacity="1" stroke="none"/>
<circle clip-path="url(#clip312)" cx="604.86" cy="1343.16" r="7" fill="#009af9" fill-rule="evenodd" fill-opacity="1" stroke="none"/>
<circle clip-path="url(#clip312)" cx="661.153" cy="1336.51" r="7" fill="#009af9" fill-rule="evenodd" fill-opacity="1" stroke="none"/>
<circle clip-path="url(#clip312)" cx="717.446" cy="1334.3" r="7" fill="#009af9" fill-rule="evenodd" fill-opacity="1" stroke="none"/>
<circle clip-path="url(#clip312)" cx="773.739" cy="1326.38" r="7" fill="#009af9" fill-rule="evenodd" fill-opacity="1" stroke="none"/>
<circle clip-path="url(#clip312)" cx="830.032" cy="1310.23" r="7" fill="#009af9" fill-rule="evenodd" fill-opacity="1" stroke="none"/>
<circle clip-path="url(#clip312)" cx="886.324" cy="1309.28" r="7" fill="#009af9" fill-rule="evenodd" fill-opacity="1" stroke="none"/>
<circle clip-path="url(#clip312)" cx="942.617" cy="1301.68" r="7" fill="#009af9" fill-rule="evenodd" fill-opacity="1" stroke="none"/>
<circle clip-path="url(#clip312)" cx="998.91" cy="1288.69" r="7" fill="#009af9" fill-rule="evenodd" fill-opacity="1" stroke="none"/>
<circle clip-path="url(#clip312)" cx="1055.2" cy="1287.74" r="7" fill="#009af9" fill-rule="evenodd" fill-opacity="1" stroke="none"/>
<circle clip-path="url(#clip312)" cx="1111.5" cy="1278.87" r="7" fill="#009af9" fill-rule="evenodd" fill-opacity="1" stroke="none"/>
<circle clip-path="url(#clip312)" cx="1167.79" cy="1269.69" r="7" fill="#009af9" fill-rule="evenodd" fill-opacity="1" stroke="none"/>
<circle clip-path="url(#clip312)" cx="1224.08" cy="1267.47" r="7" fill="#009af9" fill-rule="evenodd" fill-opacity="1" stroke="none"/>
<circle clip-path="url(#clip312)" cx="1280.38" cy="1241.82" r="7" fill="#009af9" fill-rule="evenodd" fill-opacity="1" stroke="none"/>
<circle clip-path="url(#clip312)" cx="1336.67" cy="1228.2" r="7" fill="#009af9" fill-rule="evenodd" fill-opacity="1" stroke="none"/>
<circle clip-path="url(#clip312)" cx="1392.96" cy="1227.25" r="7" fill="#009af9" fill-rule="evenodd" fill-opacity="1" stroke="none"/>
<circle clip-path="url(#clip312)" cx="1449.25" cy="1213" r="7" fill="#009af9" fill-rule="evenodd" fill-opacity="1" stroke="none"/>
<circle clip-path="url(#clip312)" cx="1505.55" cy="1202.86" r="7" fill="#009af9" fill-rule="evenodd" fill-opacity="1" stroke="none"/>
<circle clip-path="url(#clip312)" cx="1561.84" cy="1198.43" r="7" fill="#009af9" fill-rule="evenodd" fill-opacity="1" stroke="none"/>
<circle clip-path="url(#clip312)" cx="1618.13" cy="1195.26" r="7" fill="#009af9" fill-rule="evenodd" fill-opacity="1" stroke="none"/>
<circle clip-path="url(#clip312)" cx="1674.43" cy="1187.98" r="7" fill="#009af9" fill-rule="evenodd" fill-opacity="1" stroke="none"/>
<circle clip-path="url(#clip312)" cx="1730.72" cy="1155.99" r="7" fill="#009af9" fill-rule="evenodd" fill-opacity="1" stroke="none"/>
<circle clip-path="url(#clip312)" cx="1787.01" cy="1154.09" r="7" fill="#009af9" fill-rule="evenodd" fill-opacity="1" stroke="none"/>
<circle clip-path="url(#clip312)" cx="1843.3" cy="1148.07" r="7" fill="#009af9" fill-rule="evenodd" fill-opacity="1" stroke="none"/>
<circle clip-path="url(#clip312)" cx="1899.6" cy="1129.38" r="7" fill="#009af9" fill-rule="evenodd" fill-opacity="1" stroke="none"/>
<circle clip-path="url(#clip312)" cx="1955.89" cy="1112.28" r="7" fill="#009af9" fill-rule="evenodd" fill-opacity="1" stroke="none"/>
<circle clip-path="url(#clip312)" cx="2012.18" cy="1105.31" r="7" fill="#009af9" fill-rule="evenodd" fill-opacity="1" stroke="none"/>
<circle clip-path="url(#clip312)" cx="2068.48" cy="929.224" r="7" fill="#009af9" fill-rule="evenodd" fill-opacity="1" stroke="none"/>
<circle clip-path="url(#clip312)" cx="2124.77" cy="873.799" r="7" fill="#009af9" fill-rule="evenodd" fill-opacity="1" stroke="none"/>
<circle clip-path="url(#clip312)" cx="2181.06" cy="725.262" r="7" fill="#009af9" fill-rule="evenodd" fill-opacity="1" stroke="none"/>
<circle clip-path="url(#clip312)" cx="2237.36" cy="217.891" r="7" fill="#009af9" fill-rule="evenodd" fill-opacity="1" stroke="none"/>
<circle clip-path="url(#clip312)" cx="2293.65" cy="191.921" r="7" fill="#009af9" fill-rule="evenodd" fill-opacity="1" stroke="none"/>
<path clip-path="url(#clip312)" d="
M323.395 1480.93 L379.688 1480.93 L435.981 1480.93 L492.274 1480.93 L548.567 1480.93 L604.86 1480.93 L661.153 1480.93 L717.446 1480.93 L773.739 1480.93 L830.032 1480.93 
  L886.324 1480.93 L942.617 1480.93 L998.91 1480.93 L1055.2 1480.93 L1111.5 1480.93 L1167.79 1480.93 L1224.08 1480.93 L1280.38 1480.93 L1336.67 1480.93 L1392.96 1480.93 
  L1449.25 1480.93 L1505.55 1480.93 L1561.84 1480.93 L1618.13 1480.93 L1674.43 1480.93 L1730.72 1480.93 L1787.01 1480.93 L1843.3 1480.93 L1899.6 1480.93 L1955.89 1480.93 
  L2012.18 1480.93 L2068.48 1480.93 L2124.77 1480.93 L2181.06 1480.93 L2237.36 1480.93 L2293.65 1480.93 L2293.65 1359.82 L2237.36 1359.82 L2181.06 1359.82 L2124.77 1359.82 
  L2068.48 1359.82 L2012.18 1359.82 L1955.89 1359.82 L1899.6 1359.82 L1843.3 1359.82 L1787.01 1359.82 L1730.72 1359.82 L1674.43 1359.82 L1618.13 1359.82 L1561.84 1359.82 
  L1505.55 1359.82 L1449.25 1359.82 L1392.96 1359.82 L1336.67 1359.82 L1280.38 1359.82 L1224.08 1359.82 L1167.79 1359.82 L1111.5 1359.82 L1055.2 1359.82 L998.91 1359.82 
  L942.617 1359.82 L886.324 1359.82 L830.032 1359.82 L773.739 1359.82 L717.446 1359.82 L661.153 1359.82 L604.86 1359.82 L548.567 1359.82 L492.274 1359.82 L435.981 1359.82 
  L379.688 1359.82 L323.395 1359.82  Z
  " fill="#e26f46" fill-rule="evenodd" fill-opacity="0.6"/>
<polyline clip-path="url(#clip312)" style="stroke:#e26f46; stroke-linecap:butt; stroke-linejoin:round; stroke-width:4; stroke-opacity:0; fill:none" points="
  323.395,1480.93 379.688,1480.93 435.981,1480.93 492.274,1480.93 548.567,1480.93 604.86,1480.93 661.153,1480.93 717.446,1480.93 773.739,1480.93 830.032,1480.93 
  886.324,1480.93 942.617,1480.93 998.91,1480.93 1055.2,1480.93 1111.5,1480.93 1167.79,1480.93 1224.08,1480.93 1280.38,1480.93 1336.67,1480.93 1392.96,1480.93 
  1449.25,1480.93 1505.55,1480.93 1561.84,1480.93 1618.13,1480.93 1674.43,1480.93 1730.72,1480.93 1787.01,1480.93 1843.3,1480.93 1899.6,1480.93 1955.89,1480.93 
  2012.18,1480.93 2068.48,1480.93 2124.77,1480.93 2181.06,1480.93 2237.36,1480.93 2293.65,1480.93 
  "/>
<polyline clip-path="url(#clip312)" style="stroke:#000000; stroke-linecap:butt; stroke-linejoin:round; stroke-width:4; stroke-opacity:1; fill:none" stroke-dasharray="2, 4" points="
  323.395,1410.89 379.688,1410.89 435.981,1410.89 492.274,1410.89 548.567,1410.89 604.86,1410.89 661.153,1410.89 717.446,1410.89 773.739,1410.89 830.032,1410.89 
  886.324,1410.89 942.617,1410.89 998.91,1410.89 1055.2,1410.89 1111.5,1410.89 1167.79,1410.89 1224.08,1410.89 1280.38,1410.89 1336.67,1410.89 1392.96,1410.89 
  1449.25,1410.89 1505.55,1410.89 1561.84,1410.89 1618.13,1410.89 1674.43,1410.89 1730.72,1410.89 1787.01,1410.89 1843.3,1410.89 1899.6,1410.89 1955.89,1410.89 
  2012.18,1410.89 2068.48,1410.89 2124.77,1410.89 2181.06,1410.89 2237.36,1410.89 2293.65,1410.89 
  "/>
<path clip-path="url(#clip310)" d="
M333.903 252.948 L1490.43 252.948 L1490.43 97.4278 L333.903 97.4278  Z
  " fill="#ffffff" fill-rule="evenodd" fill-opacity="1"/>
<polyline clip-path="url(#clip310)" style="stroke:#ffffff; stroke-linecap:butt; stroke-linejoin:round; stroke-width:4; stroke-opacity:1; fill:none" points="
  333.903,252.948 1490.43,252.948 1490.43,97.4278 333.903,97.4278 333.903,252.948 
  "/>
<circle clip-path="url(#clip310)" cx="429.903" cy="149.268" r="23" fill="#009af9" fill-rule="evenodd" fill-opacity="1" stroke="none"/>
<path clip-path="url(#clip310)" d="M530.579 135.83 L530.579 162.705 L536.227 162.705 Q543.38 162.705 546.69 159.465 Q550.023 156.224 550.023 149.233 Q550.023 142.289 546.69 139.071 Q543.38 135.83 536.227 135.83 L530.579 135.83 M525.903 131.988 L535.509 131.988 Q545.556 131.988 550.255 136.178 Q554.954 140.344 554.954 149.233 Q554.954 158.168 550.232 162.358 Q545.509 166.548 535.509 166.548 L525.903 166.548 L525.903 131.988 Z" fill="#000000" fill-rule="evenodd" fill-opacity="1" /><path clip-path="url(#clip310)" d="M574.005 153.515 Q568.843 153.515 566.852 154.696 Q564.861 155.877 564.861 158.724 Q564.861 160.992 566.343 162.335 Q567.847 163.654 570.417 163.654 Q573.958 163.654 576.088 161.154 Q578.241 158.631 578.241 154.465 L578.241 153.515 L574.005 153.515 M582.5 151.756 L582.5 166.548 L578.241 166.548 L578.241 162.613 Q576.782 164.974 574.606 166.108 Q572.43 167.219 569.282 167.219 Q565.301 167.219 562.94 164.997 Q560.602 162.752 560.602 159.002 Q560.602 154.627 563.518 152.404 Q566.458 150.182 572.268 150.182 L578.241 150.182 L578.241 149.766 Q578.241 146.826 576.296 145.228 Q574.375 143.608 570.88 143.608 Q568.657 143.608 566.551 144.141 Q564.444 144.673 562.5 145.738 L562.5 141.803 Q564.838 140.9 567.037 140.46 Q569.236 139.997 571.319 139.997 Q576.944 139.997 579.722 142.914 Q582.5 145.83 582.5 151.756 Z" fill="#000000" fill-rule="evenodd" fill-opacity="1" /><path clip-path="url(#clip310)" d="M595.486 133.261 L595.486 140.622 L604.259 140.622 L604.259 143.932 L595.486 143.932 L595.486 158.006 Q595.486 161.177 596.342 162.08 Q597.222 162.983 599.884 162.983 L604.259 162.983 L604.259 166.548 L599.884 166.548 Q594.953 166.548 593.079 164.719 Q591.204 162.867 591.204 158.006 L591.204 143.932 L588.079 143.932 L588.079 140.622 L591.204 140.622 L591.204 133.261 L595.486 133.261 Z" fill="#000000" fill-rule="evenodd" fill-opacity="1" /><path clip-path="url(#clip310)" d="M621.643 153.515 Q616.481 153.515 614.49 154.696 Q612.5 155.877 612.5 158.724 Q612.5 160.992 613.981 162.335 Q615.486 163.654 618.055 163.654 Q621.597 163.654 623.726 161.154 Q625.879 158.631 625.879 154.465 L625.879 153.515 L621.643 153.515 M630.138 151.756 L630.138 166.548 L625.879 166.548 L625.879 162.613 Q624.421 164.974 622.245 166.108 Q620.069 167.219 616.921 167.219 Q612.94 167.219 610.578 164.997 Q608.24 162.752 608.24 159.002 Q608.24 154.627 611.157 152.404 Q614.097 150.182 619.907 150.182 L625.879 150.182 L625.879 149.766 Q625.879 146.826 623.935 145.228 Q622.014 143.608 618.518 143.608 Q616.296 143.608 614.19 144.141 Q612.083 144.673 610.139 145.738 L610.139 141.803 Q612.477 140.9 614.676 140.46 Q616.875 139.997 618.958 139.997 Q624.583 139.997 627.361 142.914 Q630.138 145.83 630.138 151.756 Z" fill="#000000" fill-rule="evenodd" fill-opacity="1" /><path clip-path="url(#clip310)" d="M664.212 130.576 Q661.111 135.9 659.606 141.108 Q658.101 146.316 658.101 151.664 Q658.101 157.011 659.606 162.265 Q661.134 167.497 664.212 172.798 L660.509 172.798 Q657.037 167.358 655.3 162.103 Q653.587 156.849 653.587 151.664 Q653.587 146.502 655.3 141.27 Q657.013 136.039 660.509 130.576 L664.212 130.576 Z" fill="#000000" fill-rule="evenodd" fill-opacity="1" /><path clip-path="url(#clip310)" d="M682.522 143.608 Q679.097 143.608 677.106 146.293 Q675.115 148.955 675.115 153.608 Q675.115 158.261 677.083 160.946 Q679.073 163.608 682.522 163.608 Q685.925 163.608 687.916 160.923 Q689.907 158.238 689.907 153.608 Q689.907 149.002 687.916 146.316 Q685.925 143.608 682.522 143.608 M682.522 139.997 Q688.078 139.997 691.249 143.608 Q694.421 147.219 694.421 153.608 Q694.421 159.974 691.249 163.608 Q688.078 167.219 682.522 167.219 Q676.944 167.219 673.773 163.608 Q670.624 159.974 670.624 153.608 Q670.624 147.219 673.773 143.608 Q676.944 139.997 682.522 139.997 Z" fill="#000000" fill-rule="evenodd" fill-opacity="1" /><path clip-path="url(#clip310)" d="M720.092 153.608 Q720.092 148.909 718.147 146.247 Q716.226 143.562 712.846 143.562 Q709.467 143.562 707.522 146.247 Q705.601 148.909 705.601 153.608 Q705.601 158.307 707.522 160.992 Q709.467 163.654 712.846 163.654 Q716.226 163.654 718.147 160.992 Q720.092 158.307 720.092 153.608 M705.601 144.557 Q706.944 142.242 708.981 141.131 Q711.041 139.997 713.888 139.997 Q718.61 139.997 721.55 143.747 Q724.513 147.497 724.513 153.608 Q724.513 159.719 721.55 163.469 Q718.61 167.219 713.888 167.219 Q711.041 167.219 708.981 166.108 Q706.944 164.974 705.601 162.659 L705.601 166.548 L701.319 166.548 L701.319 130.529 L705.601 130.529 L705.601 144.557 Z" fill="#000000" fill-rule="evenodd" fill-opacity="1" /><path clip-path="url(#clip310)" d="M748.101 141.386 L748.101 145.414 Q746.295 144.488 744.351 144.025 Q742.406 143.562 740.323 143.562 Q737.152 143.562 735.555 144.534 Q733.981 145.506 733.981 147.451 Q733.981 148.932 735.115 149.789 Q736.249 150.622 739.675 151.386 L741.133 151.71 Q745.67 152.682 747.568 154.465 Q749.49 156.224 749.49 159.395 Q749.49 163.006 746.619 165.113 Q743.772 167.219 738.772 167.219 Q736.689 167.219 734.42 166.802 Q732.175 166.409 729.675 165.599 L729.675 161.201 Q732.036 162.427 734.328 163.052 Q736.619 163.654 738.865 163.654 Q741.874 163.654 743.494 162.636 Q745.115 161.594 745.115 159.719 Q745.115 157.983 743.934 157.057 Q742.777 156.131 738.818 155.275 L737.337 154.928 Q733.379 154.094 731.619 152.381 Q729.86 150.645 729.86 147.636 Q729.86 143.978 732.453 141.988 Q735.045 139.997 739.814 139.997 Q742.175 139.997 744.258 140.344 Q746.342 140.691 748.101 141.386 Z" fill="#000000" fill-rule="evenodd" fill-opacity="1" /><path clip-path="url(#clip310)" d="M778.448 152.52 L778.448 154.603 L758.865 154.603 Q759.142 159.002 761.504 161.316 Q763.888 163.608 768.124 163.608 Q770.578 163.608 772.869 163.006 Q775.184 162.404 777.453 161.201 L777.453 165.228 Q775.161 166.201 772.753 166.71 Q770.346 167.219 767.869 167.219 Q761.666 167.219 758.031 163.608 Q754.42 159.997 754.42 153.84 Q754.42 147.474 757.846 143.747 Q761.295 139.997 767.129 139.997 Q772.36 139.997 775.392 143.377 Q778.448 146.733 778.448 152.52 M774.189 151.27 Q774.142 147.775 772.221 145.691 Q770.323 143.608 767.175 143.608 Q763.61 143.608 761.457 145.622 Q759.328 147.636 759.004 151.293 L774.189 151.27 Z" fill="#000000" fill-rule="evenodd" fill-opacity="1" /><path clip-path="url(#clip310)" d="M800.462 144.603 Q799.744 144.187 798.888 144.002 Q798.054 143.793 797.036 143.793 Q793.425 143.793 791.48 146.154 Q789.559 148.492 789.559 152.89 L789.559 166.548 L785.277 166.548 L785.277 140.622 L789.559 140.622 L789.559 144.65 Q790.902 142.289 793.054 141.154 Q795.207 139.997 798.286 139.997 Q798.726 139.997 799.258 140.066 Q799.79 140.113 800.439 140.229 L800.462 144.603 Z" fill="#000000" fill-rule="evenodd" fill-opacity="1" /><path clip-path="url(#clip310)" d="M801.874 140.622 L806.388 140.622 L814.489 162.381 L822.591 140.622 L827.105 140.622 L817.383 166.548 L811.596 166.548 L801.874 140.622 Z" fill="#000000" fill-rule="evenodd" fill-opacity="1" /><path clip-path="url(#clip310)" d="M855.16 152.52 L855.16 154.603 L835.577 154.603 Q835.855 159.002 838.216 161.316 Q840.6 163.608 844.836 163.608 Q847.29 163.608 849.582 163.006 Q851.897 162.404 854.165 161.201 L854.165 165.228 Q851.873 166.201 849.466 166.71 Q847.059 167.219 844.582 167.219 Q838.378 167.219 834.744 163.608 Q831.133 159.997 831.133 153.84 Q831.133 147.474 834.559 143.747 Q838.008 139.997 843.841 139.997 Q849.073 139.997 852.105 143.377 Q855.16 146.733 855.16 152.52 M850.901 151.27 Q850.855 147.775 848.934 145.691 Q847.035 143.608 843.887 143.608 Q840.323 143.608 838.17 145.622 Q836.04 147.636 835.716 151.293 L850.901 151.27 Z" fill="#000000" fill-rule="evenodd" fill-opacity="1" /><path clip-path="url(#clip310)" d="M879.211 144.557 L879.211 130.529 L883.47 130.529 L883.47 166.548 L879.211 166.548 L879.211 162.659 Q877.869 164.974 875.808 166.108 Q873.771 167.219 870.901 167.219 Q866.202 167.219 863.239 163.469 Q860.299 159.719 860.299 153.608 Q860.299 147.497 863.239 143.747 Q866.202 139.997 870.901 139.997 Q873.771 139.997 875.808 141.131 Q877.869 142.242 879.211 144.557 M864.697 153.608 Q864.697 158.307 866.619 160.992 Q868.563 163.654 871.943 163.654 Q875.322 163.654 877.267 160.992 Q879.211 158.307 879.211 153.608 Q879.211 148.909 877.267 146.247 Q875.322 143.562 871.943 143.562 Q868.563 143.562 866.619 146.247 Q864.697 148.909 864.697 153.608 Z" fill="#000000" fill-rule="evenodd" fill-opacity="1" /><path clip-path="url(#clip310)" d="M919.095 153.515 Q913.933 153.515 911.943 154.696 Q909.952 155.877 909.952 158.724 Q909.952 160.992 911.433 162.335 Q912.938 163.654 915.507 163.654 Q919.049 163.654 921.179 161.154 Q923.331 158.631 923.331 154.465 L923.331 153.515 L919.095 153.515 M927.591 151.756 L927.591 166.548 L923.331 166.548 L923.331 162.613 Q921.873 164.974 919.697 166.108 Q917.521 167.219 914.373 167.219 Q910.392 167.219 908.031 164.997 Q905.693 162.752 905.693 159.002 Q905.693 154.627 908.609 152.404 Q911.549 150.182 917.359 150.182 L923.331 150.182 L923.331 149.766 Q923.331 146.826 921.387 145.228 Q919.466 143.608 915.97 143.608 Q913.748 143.608 911.642 144.141 Q909.535 144.673 907.591 145.738 L907.591 141.803 Q909.929 140.9 912.128 140.46 Q914.327 139.997 916.41 139.997 Q922.035 139.997 924.813 142.914 Q927.591 145.83 927.591 151.756 Z" fill="#000000" fill-rule="evenodd" fill-opacity="1" /><path clip-path="url(#clip310)" d="M953.424 153.284 Q953.424 148.654 951.503 146.108 Q949.604 143.562 946.155 143.562 Q942.729 143.562 940.808 146.108 Q938.91 148.654 938.91 153.284 Q938.91 157.89 940.808 160.437 Q942.729 162.983 946.155 162.983 Q949.604 162.983 951.503 160.437 Q953.424 157.89 953.424 153.284 M957.683 163.33 Q957.683 169.951 954.743 173.168 Q951.803 176.409 945.739 176.409 Q943.493 176.409 941.503 176.062 Q939.512 175.738 937.637 175.043 L937.637 170.9 Q939.512 171.918 941.341 172.404 Q943.169 172.89 945.067 172.89 Q949.257 172.89 951.34 170.691 Q953.424 168.515 953.424 164.094 L953.424 161.988 Q952.104 164.279 950.044 165.414 Q947.984 166.548 945.114 166.548 Q940.345 166.548 937.429 162.914 Q934.512 159.279 934.512 153.284 Q934.512 147.266 937.429 143.631 Q940.345 139.997 945.114 139.997 Q947.984 139.997 950.044 141.131 Q952.104 142.266 953.424 144.557 L953.424 140.622 L957.683 140.622 L957.683 163.33 Z" fill="#000000" fill-rule="evenodd" fill-opacity="1" /><path clip-path="url(#clip310)" d="M988.632 152.52 L988.632 154.603 L969.049 154.603 Q969.326 159.002 971.688 161.316 Q974.072 163.608 978.308 163.608 Q980.762 163.608 983.053 163.006 Q985.368 162.404 987.637 161.201 L987.637 165.228 Q985.345 166.201 982.938 166.71 Q980.53 167.219 978.053 167.219 Q971.85 167.219 968.215 163.608 Q964.604 159.997 964.604 153.84 Q964.604 147.474 968.03 143.747 Q971.479 139.997 977.313 139.997 Q982.544 139.997 985.576 143.377 Q988.632 146.733 988.632 152.52 M984.373 151.27 Q984.326 147.775 982.405 145.691 Q980.507 143.608 977.359 143.608 Q973.794 143.608 971.641 145.622 Q969.512 147.636 969.188 151.293 L984.373 151.27 Z" fill="#000000" fill-rule="evenodd" fill-opacity="1" /><path clip-path="url(#clip310)" d="M1012.15 141.386 L1012.15 145.414 Q1010.34 144.488 1008.4 144.025 Q1006.46 143.562 1004.37 143.562 Q1001.2 143.562 999.604 144.534 Q998.03 145.506 998.03 147.451 Q998.03 148.932 999.164 149.789 Q1000.3 150.622 1003.72 151.386 L1005.18 151.71 Q1009.72 152.682 1011.62 154.465 Q1013.54 156.224 1013.54 159.395 Q1013.54 163.006 1010.67 165.113 Q1007.82 167.219 1002.82 167.219 Q1000.74 167.219 998.47 166.802 Q996.224 166.409 993.725 165.599 L993.725 161.201 Q996.086 162.427 998.377 163.052 Q1000.67 163.654 1002.91 163.654 Q1005.92 163.654 1007.54 162.636 Q1009.16 161.594 1009.16 159.719 Q1009.16 157.983 1007.98 157.057 Q1006.83 156.131 1002.87 155.275 L1001.39 154.928 Q997.428 154.094 995.669 152.381 Q993.91 150.645 993.91 147.636 Q993.91 143.978 996.502 141.988 Q999.095 139.997 1003.86 139.997 Q1006.22 139.997 1008.31 140.344 Q1010.39 140.691 1012.15 141.386 Z" fill="#000000" fill-rule="evenodd" fill-opacity="1" /><path clip-path="url(#clip310)" d="M1019.65 130.576 L1023.35 130.576 Q1026.83 136.039 1028.54 141.27 Q1030.28 146.502 1030.28 151.664 Q1030.28 156.849 1028.54 162.103 Q1026.83 167.358 1023.35 172.798 L1019.65 172.798 Q1022.73 167.497 1024.23 162.265 Q1025.76 157.011 1025.76 151.664 Q1025.76 146.316 1024.23 141.108 Q1022.73 135.9 1019.65 130.576 Z" fill="#000000" fill-rule="evenodd" fill-opacity="1" /><path clip-path="url(#clip310)" d="
M357.903 221.844 L501.903 221.844 L501.903 180.372 L357.903 180.372 L357.903 221.844  Z
  " fill="#e26f46" fill-rule="evenodd" fill-opacity="0.6"/>
<polyline clip-path="url(#clip310)" style="stroke:#e26f46; stroke-linecap:butt; stroke-linejoin:round; stroke-width:4; stroke-opacity:0; fill:none" points="
  357.903,180.372 501.903,180.372 
  "/>
<path clip-path="url(#clip310)" d="M525.903 183.828 L532.87 183.828 L541.69 207.346 L550.556 183.828 L557.523 183.828 L557.523 218.388 L552.963 218.388 L552.963 188.041 L544.051 211.744 L539.352 211.744 L530.44 188.041 L530.44 218.388 L525.903 218.388 L525.903 183.828 Z" fill="#000000" fill-rule="evenodd" fill-opacity="1" /><path clip-path="url(#clip310)" d="M576.667 195.448 Q573.241 195.448 571.25 198.133 Q569.259 200.795 569.259 205.448 Q569.259 210.101 571.227 212.786 Q573.218 215.448 576.667 215.448 Q580.069 215.448 582.06 212.763 Q584.051 210.078 584.051 205.448 Q584.051 200.842 582.06 198.156 Q580.069 195.448 576.667 195.448 M576.667 191.837 Q582.222 191.837 585.393 195.448 Q588.565 199.059 588.565 205.448 Q588.565 211.814 585.393 215.448 Q582.222 219.059 576.667 219.059 Q571.088 219.059 567.917 215.448 Q564.768 211.814 564.768 205.448 Q564.768 199.059 567.917 195.448 Q571.088 191.837 576.667 191.837 Z" fill="#000000" fill-rule="evenodd" fill-opacity="1" /><path clip-path="url(#clip310)" d="M612.685 196.397 L612.685 182.369 L616.944 182.369 L616.944 218.388 L612.685 218.388 L612.685 214.499 Q611.342 216.814 609.282 217.948 Q607.245 219.059 604.375 219.059 Q599.676 219.059 596.713 215.309 Q593.773 211.559 593.773 205.448 Q593.773 199.337 596.713 195.587 Q599.676 191.837 604.375 191.837 Q607.245 191.837 609.282 192.971 Q611.342 194.082 612.685 196.397 M598.171 205.448 Q598.171 210.147 600.092 212.832 Q602.037 215.494 605.416 215.494 Q608.796 215.494 610.74 212.832 Q612.685 210.147 612.685 205.448 Q612.685 200.749 610.74 198.087 Q608.796 195.402 605.416 195.402 Q602.037 195.402 600.092 198.087 Q598.171 200.749 598.171 205.448 Z" fill="#000000" fill-rule="evenodd" fill-opacity="1" /><path clip-path="url(#clip310)" d="M647.893 204.36 L647.893 206.443 L628.31 206.443 Q628.588 210.842 630.949 213.156 Q633.333 215.448 637.569 215.448 Q640.023 215.448 642.314 214.846 Q644.629 214.244 646.898 213.041 L646.898 217.068 Q644.606 218.041 642.199 218.55 Q639.791 219.059 637.314 219.059 Q631.111 219.059 627.476 215.448 Q623.865 211.837 623.865 205.68 Q623.865 199.314 627.291 195.587 Q630.74 191.837 636.574 191.837 Q641.805 191.837 644.837 195.217 Q647.893 198.573 647.893 204.36 M643.634 203.11 Q643.587 199.615 641.666 197.531 Q639.768 195.448 636.62 195.448 Q633.055 195.448 630.902 197.462 Q628.773 199.476 628.449 203.133 L643.634 203.11 Z" fill="#000000" fill-rule="evenodd" fill-opacity="1" /><path clip-path="url(#clip310)" d="M654.884 182.369 L659.143 182.369 L659.143 218.388 L654.884 218.388 L654.884 182.369 Z" fill="#000000" fill-rule="evenodd" fill-opacity="1" /><path clip-path="url(#clip310)" d="M693.356 182.416 Q690.254 187.74 688.749 192.948 Q687.245 198.156 687.245 203.504 Q687.245 208.851 688.749 214.105 Q690.277 219.337 693.356 224.638 L689.652 224.638 Q686.18 219.198 684.444 213.943 Q682.731 208.689 682.731 203.504 Q682.731 198.342 684.444 193.11 Q686.157 187.879 689.652 182.416 L693.356 182.416 Z" fill="#000000" fill-rule="evenodd" fill-opacity="1" /><path clip-path="url(#clip310)" d="M706.249 214.453 L722.569 214.453 L722.569 218.388 L700.624 218.388 L700.624 214.453 Q703.286 211.698 707.87 207.068 Q712.476 202.416 713.657 201.073 Q715.902 198.55 716.782 196.814 Q717.684 195.055 717.684 193.365 Q717.684 190.61 715.74 188.874 Q713.819 187.138 710.717 187.138 Q708.518 187.138 706.064 187.902 Q703.633 188.666 700.856 190.217 L700.856 185.494 Q703.68 184.36 706.133 183.782 Q708.587 183.203 710.624 183.203 Q715.995 183.203 719.189 185.888 Q722.383 188.573 722.383 193.064 Q722.383 195.194 721.573 197.115 Q720.786 199.013 718.68 201.606 Q718.101 202.277 714.999 205.494 Q711.897 208.689 706.249 214.453 Z" fill="#000000" fill-rule="evenodd" fill-opacity="1" /><path clip-path="url(#clip310)" d="M742.962 199.244 Q739.814 199.244 737.962 201.397 Q736.133 203.55 736.133 207.3 Q736.133 211.027 737.962 213.203 Q739.814 215.355 742.962 215.355 Q746.11 215.355 747.939 213.203 Q749.791 211.027 749.791 207.3 Q749.791 203.55 747.939 201.397 Q746.11 199.244 742.962 199.244 M752.244 184.592 L752.244 188.851 Q750.485 188.018 748.68 187.578 Q746.897 187.138 745.138 187.138 Q740.508 187.138 738.055 190.263 Q735.624 193.388 735.277 199.707 Q736.643 197.693 738.703 196.629 Q740.763 195.541 743.24 195.541 Q748.448 195.541 751.457 198.712 Q754.49 201.86 754.49 207.3 Q754.49 212.624 751.342 215.842 Q748.193 219.059 742.962 219.059 Q736.967 219.059 733.795 214.476 Q730.624 209.869 730.624 201.143 Q730.624 192.948 734.513 188.087 Q738.402 183.203 744.953 183.203 Q746.712 183.203 748.494 183.55 Q750.3 183.897 752.244 184.592 Z" fill="#000000" fill-rule="evenodd" fill-opacity="1" /><path clip-path="url(#clip310)" d="M775.392 187.902 L763.587 206.351 L775.392 206.351 L775.392 187.902 M774.166 183.828 L780.045 183.828 L780.045 206.351 L784.976 206.351 L784.976 210.24 L780.045 210.24 L780.045 218.388 L775.392 218.388 L775.392 210.24 L759.791 210.24 L759.791 205.726 L774.166 183.828 Z" fill="#000000" fill-rule="evenodd" fill-opacity="1" /><path clip-path="url(#clip310)" d="M802.707 201.976 Q799.374 201.976 797.452 203.758 Q795.554 205.541 795.554 208.666 Q795.554 211.791 797.452 213.573 Q799.374 215.355 802.707 215.355 Q806.04 215.355 807.962 213.573 Q809.883 211.767 809.883 208.666 Q809.883 205.541 807.962 203.758 Q806.063 201.976 802.707 201.976 M798.031 199.985 Q795.022 199.244 793.332 197.184 Q791.665 195.124 791.665 192.161 Q791.665 188.018 794.605 185.61 Q797.568 183.203 802.707 183.203 Q807.869 183.203 810.809 185.61 Q813.749 188.018 813.749 192.161 Q813.749 195.124 812.059 197.184 Q810.392 199.244 807.406 199.985 Q810.786 200.772 812.661 203.064 Q814.559 205.355 814.559 208.666 Q814.559 213.689 811.48 216.374 Q808.425 219.059 802.707 219.059 Q796.989 219.059 793.911 216.374 Q790.855 213.689 790.855 208.666 Q790.855 205.355 792.753 203.064 Q794.652 200.772 798.031 199.985 M796.318 192.601 Q796.318 195.286 797.985 196.791 Q799.675 198.295 802.707 198.295 Q805.716 198.295 807.406 196.791 Q809.119 195.286 809.119 192.601 Q809.119 189.916 807.406 188.411 Q805.716 186.907 802.707 186.907 Q799.675 186.907 797.985 188.411 Q796.318 189.916 796.318 192.601 Z" fill="#000000" fill-rule="evenodd" fill-opacity="1" /><path clip-path="url(#clip310)" d="M822.869 212.508 L827.753 212.508 L827.753 218.388 L822.869 218.388 L822.869 212.508 Z" fill="#000000" fill-rule="evenodd" fill-opacity="1" /><path clip-path="url(#clip310)" d="M852.105 199.754 Q855.461 200.471 857.336 202.74 Q859.234 205.008 859.234 208.342 Q859.234 213.457 855.716 216.258 Q852.197 219.059 845.716 219.059 Q843.54 219.059 841.225 218.619 Q838.934 218.203 836.48 217.346 L836.48 212.832 Q838.424 213.967 840.739 214.545 Q843.054 215.124 845.577 215.124 Q849.975 215.124 852.267 213.388 Q854.582 211.652 854.582 208.342 Q854.582 205.286 852.429 203.573 Q850.299 201.837 846.48 201.837 L842.452 201.837 L842.452 197.994 L846.665 197.994 Q850.114 197.994 851.943 196.629 Q853.772 195.24 853.772 192.647 Q853.772 189.985 851.873 188.573 Q849.998 187.138 846.48 187.138 Q844.559 187.138 842.36 187.555 Q840.161 187.971 837.522 188.851 L837.522 184.684 Q840.184 183.944 842.498 183.573 Q844.836 183.203 846.897 183.203 Q852.221 183.203 855.322 185.633 Q858.424 188.041 858.424 192.161 Q858.424 195.031 856.781 197.022 Q855.137 198.99 852.105 199.754 Z" fill="#000000" fill-rule="evenodd" fill-opacity="1" /><path clip-path="url(#clip310)" d="M868.91 214.453 L876.549 214.453 L876.549 188.087 L868.239 189.754 L868.239 185.494 L876.503 183.828 L881.179 183.828 L881.179 214.453 L888.818 214.453 L888.818 218.388 L868.91 218.388 L868.91 214.453 Z" fill="#000000" fill-rule="evenodd" fill-opacity="1" /><path clip-path="url(#clip310)" d="M908.841 199.244 Q905.693 199.244 903.841 201.397 Q902.012 203.55 902.012 207.3 Q902.012 211.027 903.841 213.203 Q905.693 215.355 908.841 215.355 Q911.989 215.355 913.818 213.203 Q915.669 211.027 915.669 207.3 Q915.669 203.55 913.818 201.397 Q911.989 199.244 908.841 199.244 M918.123 184.592 L918.123 188.851 Q916.364 188.018 914.558 187.578 Q912.776 187.138 911.017 187.138 Q906.387 187.138 903.933 190.263 Q901.503 193.388 901.156 199.707 Q902.521 197.693 904.581 196.629 Q906.642 195.541 909.118 195.541 Q914.327 195.541 917.336 198.712 Q920.368 201.86 920.368 207.3 Q920.368 212.624 917.22 215.842 Q914.072 219.059 908.841 219.059 Q902.845 219.059 899.674 214.476 Q896.503 209.869 896.503 201.143 Q896.503 192.948 900.392 188.087 Q904.281 183.203 910.831 183.203 Q912.591 183.203 914.373 183.55 Q916.179 183.897 918.123 184.592 Z" fill="#000000" fill-rule="evenodd" fill-opacity="1" /><path clip-path="url(#clip310)" d="M960.229 188.666 L960.229 201.559 L973.123 201.559 L973.123 205.494 L960.229 205.494 L960.229 218.388 L956.34 218.388 L956.34 205.494 L943.447 205.494 L943.447 201.559 L956.34 201.559 L956.34 188.666 L960.229 188.666 Z" fill="#000000" fill-rule="evenodd" fill-opacity="1" /><path clip-path="url(#clip310)" d="M984.025 214.453 L991.664 214.453 L991.664 188.087 L983.354 189.754 L983.354 185.494 L991.618 183.828 L996.294 183.828 L996.294 214.453 L1003.93 214.453 L1003.93 218.388 L984.025 218.388 L984.025 214.453 Z" fill="#000000" fill-rule="evenodd" fill-opacity="1" /><path clip-path="url(#clip310)" d="M1023.96 199.244 Q1020.81 199.244 1018.96 201.397 Q1017.13 203.55 1017.13 207.3 Q1017.13 211.027 1018.96 213.203 Q1020.81 215.355 1023.96 215.355 Q1027.1 215.355 1028.93 213.203 Q1030.78 211.027 1030.78 207.3 Q1030.78 203.55 1028.93 201.397 Q1027.1 199.244 1023.96 199.244 M1033.24 184.592 L1033.24 188.851 Q1031.48 188.018 1029.67 187.578 Q1027.89 187.138 1026.13 187.138 Q1021.5 187.138 1019.05 190.263 Q1016.62 193.388 1016.27 199.707 Q1017.64 197.693 1019.7 196.629 Q1021.76 195.541 1024.23 195.541 Q1029.44 195.541 1032.45 198.712 Q1035.48 201.86 1035.48 207.3 Q1035.48 212.624 1032.34 215.842 Q1029.19 219.059 1023.96 219.059 Q1017.96 219.059 1014.79 214.476 Q1011.62 209.869 1011.62 201.143 Q1011.62 192.948 1015.51 188.087 Q1019.4 183.203 1025.95 183.203 Q1027.71 183.203 1029.49 183.55 Q1031.29 183.897 1033.24 184.592 Z" fill="#000000" fill-rule="evenodd" fill-opacity="1" /><path clip-path="url(#clip310)" d="M1043.54 212.508 L1048.42 212.508 L1048.42 218.388 L1043.54 218.388 L1043.54 212.508 Z" fill="#000000" fill-rule="evenodd" fill-opacity="1" /><path clip-path="url(#clip310)" d="M1059.42 214.453 L1067.06 214.453 L1067.06 188.087 L1058.75 189.754 L1058.75 185.494 L1067.01 183.828 L1071.69 183.828 L1071.69 214.453 L1079.33 214.453 L1079.33 218.388 L1059.42 218.388 L1059.42 214.453 Z" fill="#000000" fill-rule="evenodd" fill-opacity="1" /><path clip-path="url(#clip310)" d="M1092.8 214.453 L1109.12 214.453 L1109.12 218.388 L1087.17 218.388 L1087.17 214.453 Q1089.84 211.698 1094.42 207.068 Q1099.02 202.416 1100.21 201.073 Q1102.45 198.55 1103.33 196.814 Q1104.23 195.055 1104.23 193.365 Q1104.23 190.61 1102.29 188.874 Q1100.37 187.138 1097.27 187.138 Q1095.07 187.138 1092.61 187.902 Q1090.18 188.666 1087.4 190.217 L1087.4 185.494 Q1090.23 184.36 1092.68 183.782 Q1095.14 183.203 1097.17 183.203 Q1102.54 183.203 1105.74 185.888 Q1108.93 188.573 1108.93 193.064 Q1108.93 195.194 1108.12 197.115 Q1107.34 199.013 1105.23 201.606 Q1104.65 202.277 1101.55 205.494 Q1098.45 208.689 1092.8 214.453 Z" fill="#000000" fill-rule="evenodd" fill-opacity="1" /><path clip-path="url(#clip310)" d="M1131.78 187.902 L1119.97 206.351 L1131.78 206.351 L1131.78 187.902 M1130.55 183.828 L1136.43 183.828 L1136.43 206.351 L1141.36 206.351 L1141.36 210.24 L1136.43 210.24 L1136.43 218.388 L1131.78 218.388 L1131.78 210.24 L1116.18 210.24 L1116.18 205.726 L1130.55 183.828 Z" fill="#000000" fill-rule="evenodd" fill-opacity="1" /><path clip-path="url(#clip310)" d="M1156.06 183.828 L1160 183.828 L1147.96 222.786 L1144.02 222.786 L1156.06 183.828 Z" fill="#000000" fill-rule="evenodd" fill-opacity="1" /><path clip-path="url(#clip310)" d="M1162.31 203.504 L1174.79 203.504 L1174.79 207.3 L1162.31 207.3 L1162.31 203.504 Z" fill="#000000" fill-rule="evenodd" fill-opacity="1" /><path clip-path="url(#clip310)" d="M1186.2 214.453 L1202.52 214.453 L1202.52 218.388 L1180.58 218.388 L1180.58 214.453 Q1183.24 211.698 1187.82 207.068 Q1192.43 202.416 1193.61 201.073 Q1195.85 198.55 1196.73 196.814 Q1197.64 195.055 1197.64 193.365 Q1197.64 190.61 1195.69 188.874 Q1193.77 187.138 1190.67 187.138 Q1188.47 187.138 1186.02 187.902 Q1183.58 188.666 1180.81 190.217 L1180.81 185.494 Q1183.63 184.36 1186.08 183.782 Q1188.54 183.203 1190.58 183.203 Q1195.95 183.203 1199.14 185.888 Q1202.33 188.573 1202.33 193.064 Q1202.33 195.194 1201.52 197.115 Q1200.74 199.013 1198.63 201.606 Q1198.05 202.277 1194.95 205.494 Q1191.85 208.689 1186.2 214.453 Z" fill="#000000" fill-rule="evenodd" fill-opacity="1" /><path clip-path="url(#clip310)" d="M1216.36 214.453 L1232.68 214.453 L1232.68 218.388 L1210.74 218.388 L1210.74 214.453 Q1213.4 211.698 1217.98 207.068 Q1222.59 202.416 1223.77 201.073 Q1226.01 198.55 1226.89 196.814 Q1227.8 195.055 1227.8 193.365 Q1227.8 190.61 1225.85 188.874 Q1223.93 187.138 1220.83 187.138 Q1218.63 187.138 1216.18 187.902 Q1213.75 188.666 1210.97 190.217 L1210.97 185.494 Q1213.79 184.36 1216.25 183.782 Q1218.7 183.203 1220.74 183.203 Q1226.11 183.203 1229.3 185.888 Q1232.5 188.573 1232.5 193.064 Q1232.5 195.194 1231.69 197.115 Q1230.9 199.013 1228.79 201.606 Q1228.21 202.277 1225.11 205.494 Q1222.01 208.689 1216.36 214.453 Z" fill="#000000" fill-rule="evenodd" fill-opacity="1" /><path clip-path="url(#clip310)" d="M1242.5 212.508 L1247.38 212.508 L1247.38 218.388 L1242.5 218.388 L1242.5 212.508 Z" fill="#000000" fill-rule="evenodd" fill-opacity="1" /><path clip-path="url(#clip310)" d="M1258.38 214.453 L1266.01 214.453 L1266.01 188.087 L1257.7 189.754 L1257.7 185.494 L1265.97 183.828 L1270.64 183.828 L1270.64 214.453 L1278.28 214.453 L1278.28 218.388 L1258.38 218.388 L1258.38 214.453 Z" fill="#000000" fill-rule="evenodd" fill-opacity="1" /><path clip-path="url(#clip310)" d="M1288.54 214.453 L1296.18 214.453 L1296.18 188.087 L1287.87 189.754 L1287.87 185.494 L1296.13 183.828 L1300.81 183.828 L1300.81 214.453 L1308.45 214.453 L1308.45 218.388 L1288.54 218.388 L1288.54 214.453 Z" fill="#000000" fill-rule="evenodd" fill-opacity="1" /><path clip-path="url(#clip310)" d="M1328.47 199.244 Q1325.32 199.244 1323.47 201.397 Q1321.64 203.55 1321.64 207.3 Q1321.64 211.027 1323.47 213.203 Q1325.32 215.355 1328.47 215.355 Q1331.62 215.355 1333.44 213.203 Q1335.3 211.027 1335.3 207.3 Q1335.3 203.55 1333.44 201.397 Q1331.62 199.244 1328.47 199.244 M1337.75 184.592 L1337.75 188.851 Q1335.99 188.018 1334.19 187.578 Q1332.4 187.138 1330.64 187.138 Q1326.01 187.138 1323.56 190.263 Q1321.13 193.388 1320.78 199.707 Q1322.15 197.693 1324.21 196.629 Q1326.27 195.541 1328.75 195.541 Q1333.95 195.541 1336.96 198.712 Q1340 201.86 1340 207.3 Q1340 212.624 1336.85 215.842 Q1333.7 219.059 1328.47 219.059 Q1322.47 219.059 1319.3 214.476 Q1316.13 209.869 1316.13 201.143 Q1316.13 192.948 1320.02 188.087 Q1323.91 183.203 1330.46 183.203 Q1332.22 183.203 1334 183.55 Q1335.81 183.897 1337.75 184.592 Z" fill="#000000" fill-rule="evenodd" fill-opacity="1" /><path clip-path="url(#clip310)" d="M1362.7 183.828 L1369.67 183.828 L1378.49 207.346 L1387.36 183.828 L1394.32 183.828 L1394.32 218.388 L1389.76 218.388 L1389.76 188.041 L1380.85 211.744 L1376.15 211.744 L1367.24 188.041 L1367.24 218.388 L1362.7 218.388 L1362.7 183.828 Z" fill="#000000" fill-rule="evenodd" fill-opacity="1" /><path clip-path="url(#clip310)" d="M1415.2 205.355 Q1410.04 205.355 1408.05 206.536 Q1406.06 207.717 1406.06 210.564 Q1406.06 212.832 1407.54 214.175 Q1409.05 215.494 1411.62 215.494 Q1415.16 215.494 1417.29 212.994 Q1419.44 210.471 1419.44 206.305 L1419.44 205.355 L1415.2 205.355 M1423.7 203.596 L1423.7 218.388 L1419.44 218.388 L1419.44 214.453 Q1417.98 216.814 1415.81 217.948 Q1413.63 219.059 1410.48 219.059 Q1406.5 219.059 1404.14 216.837 Q1401.8 214.592 1401.8 210.842 Q1401.8 206.467 1404.72 204.244 Q1407.66 202.022 1413.47 202.022 L1419.44 202.022 L1419.44 201.606 Q1419.44 198.666 1417.5 197.068 Q1415.57 195.448 1412.08 195.448 Q1409.86 195.448 1407.75 195.981 Q1405.64 196.513 1403.7 197.578 L1403.7 193.643 Q1406.04 192.74 1408.24 192.3 Q1410.44 191.837 1412.52 191.837 Q1418.14 191.837 1420.92 194.754 Q1423.7 197.67 1423.7 203.596 Z" fill="#000000" fill-rule="evenodd" fill-opacity="1" /><path clip-path="url(#clip310)" d="M1431.8 182.416 L1435.5 182.416 Q1438.98 187.879 1440.69 193.11 Q1442.43 198.342 1442.43 203.504 Q1442.43 208.689 1440.69 213.943 Q1438.98 219.198 1435.5 224.638 L1431.8 224.638 Q1434.88 219.337 1436.38 214.105 Q1437.91 208.851 1437.91 203.504 Q1437.91 198.156 1436.38 192.948 Q1434.88 187.74 1431.8 182.416 Z" fill="#000000" fill-rule="evenodd" fill-opacity="1" /></svg>
