<?xml version="1.0" encoding="utf-8"?>
<svg xmlns="http://www.w3.org/2000/svg" xmlns:xlink="http://www.w3.org/1999/xlink" width="600" height="400" viewBox="0 0 2400 1600">
<defs>
  <clipPath id="clip220">
    <rect x="0" y="0" width="2400" height="1600"/>
  </clipPath>
</defs>
<path clip-path="url(#clip220)" d="
M0 1600 L2400 1600 L2400 0 L0 0  Z
  " fill="#ffffff" fill-rule="evenodd" fill-opacity="1"/>
<defs>
  <clipPath id="clip221">
    <rect x="480" y="0" width="1681" height="1600"/>
  </clipPath>
</defs>
<path clip-path="url(#clip220)" d="
M264.287 1552.76 L2352.76 1552.76 L2352.76 47.2441 L264.287 47.2441  Z
  " fill="#ffffff" fill-rule="evenodd" fill-opacity="1"/>
<defs>
  <clipPath id="clip222">
    <rect x="264" y="47" width="2089" height="1507"/>
  </clipPath>
</defs>
<polyline clip-path="url(#clip220)" style="stroke:#000000; stroke-linecap:butt; stroke-linejoin:round; stroke-width:4; stroke-opacity:1; fill:none" points="
  264.287,1552.76 2352.76,1552.76 
  "/>
<polyline clip-path="url(#clip220)" style="stroke:#000000; stroke-linecap:butt; stroke-linejoin:round; stroke-width:4; stroke-opacity:1; fill:none" points="
  264.287,47.2441 2352.76,47.2441 
  "/>
<polyline clip-path="url(#clip222)" style="stroke:#000000; stroke-linecap:butt; stroke-linejoin:round; stroke-width:2; stroke-opacity:0.1; fill:none" points="
  264.287,1470.56 2352.76,1470.56 
  "/>
<polyline clip-path="url(#clip222)" style="stroke:#000000; stroke-linecap:butt; stroke-linejoin:round; stroke-width:2; stroke-opacity:0.1; fill:none" points="
  264.287,1173.9 2352.76,1173.9 
  "/>
<polyline clip-path="url(#clip222)" style="stroke:#000000; stroke-linecap:butt; stroke-linejoin:round; stroke-width:2; stroke-opacity:0.1; fill:none" points="
  264.287,877.251 2352.76,877.251 
  "/>
<polyline clip-path="url(#clip222)" style="stroke:#000000; stroke-linecap:butt; stroke-linejoin:round; stroke-width:2; stroke-opacity:0.1; fill:none" points="
  264.287,580.598 2352.76,580.598 
  "/>
<polyline clip-path="url(#clip222)" style="stroke:#000000; stroke-linecap:butt; stroke-linejoin:round; stroke-width:2; stroke-opacity:0.1; fill:none" points="
  264.287,283.946 2352.76,283.946 
  "/>
<polyline clip-path="url(#clip220)" style="stroke:#000000; stroke-linecap:butt; stroke-linejoin:round; stroke-width:4; stroke-opacity:1; fill:none" points="
  264.287,1552.76 264.287,47.2441 
  "/>
<polyline clip-path="url(#clip220)" style="stroke:#000000; stroke-linecap:butt; stroke-linejoin:round; stroke-width:4; stroke-opacity:1; fill:none" points="
  2352.76,1552.76 2352.76,47.2441 
  "/>
<polyline clip-path="url(#clip220)" style="stroke:#000000; stroke-linecap:butt; stroke-linejoin:round; stroke-width:4; stroke-opacity:1; fill:none" points="
  264.287,1470.56 283.185,1470.56 
  "/>
<polyline clip-path="url(#clip220)" style="stroke:#000000; stroke-linecap:butt; stroke-linejoin:round; stroke-width:4; stroke-opacity:1; fill:none" points="
  264.287,1173.9 283.185,1173.9 
  "/>
<polyline clip-path="url(#clip220)" style="stroke:#000000; stroke-linecap:butt; stroke-linejoin:round; stroke-width:4; stroke-opacity:1; fill:none" points="
  264.287,877.251 283.185,877.251 
  "/>
<polyline clip-path="url(#clip220)" style="stroke:#000000; stroke-linecap:butt; stroke-linejoin:round; stroke-width:4; stroke-opacity:1; fill:none" points="
  264.287,580.598 283.185,580.598 
  "/>
<polyline clip-path="url(#clip220)" style="stroke:#000000; stroke-linecap:butt; stroke-linejoin:round; stroke-width:4; stroke-opacity:1; fill:none" points="
  264.287,283.946 283.185,283.946 
  "/>
<path clip-path="url(#clip220)" d="M119.885 1483.9 L136.204 1483.9 L136.204 1487.84 L114.26 1487.84 L114.26 1483.9 Q116.922 1481.15 121.505 1476.52 Q126.112 1471.86 127.292 1470.52 Q129.538 1468 130.417 1466.26 Q131.32 1464.5 131.32 1462.81 Q131.32 1460.06 129.376 1458.32 Q127.455 1456.59 124.353 1456.59 Q122.154 1456.59 119.7 1457.35 Q117.269 1458.11 114.492 1459.67 L114.492 1454.94 Q117.316 1453.81 119.769 1453.23 Q122.223 1452.65 124.26 1452.65 Q129.63 1452.65 132.825 1455.34 Q136.019 1458.02 136.019 1462.51 Q136.019 1464.64 135.209 1466.56 Q134.422 1468.46 132.316 1471.05 Q131.737 1471.73 128.635 1474.94 Q125.533 1478.14 119.885 1483.9 Z" fill="#000000" fill-rule="evenodd" fill-opacity="1" /><path clip-path="url(#clip220)" d="M156.598 1468.69 Q153.45 1468.69 151.598 1470.85 Q149.769 1473 149.769 1476.75 Q149.769 1480.48 151.598 1482.65 Q153.45 1484.8 156.598 1484.8 Q159.746 1484.8 161.575 1482.65 Q163.427 1480.48 163.427 1476.75 Q163.427 1473 161.575 1470.85 Q159.746 1468.69 156.598 1468.69 M165.88 1454.04 L165.88 1458.3 Q164.121 1457.47 162.315 1457.03 Q160.533 1456.59 158.774 1456.59 Q154.144 1456.59 151.691 1459.71 Q149.26 1462.84 148.913 1469.16 Q150.278 1467.14 152.339 1466.08 Q154.399 1464.99 156.876 1464.99 Q162.084 1464.99 165.093 1468.16 Q168.126 1471.31 168.126 1476.75 Q168.126 1482.07 164.977 1485.29 Q161.829 1488.51 156.598 1488.51 Q150.603 1488.51 147.431 1483.92 Q144.26 1479.32 144.26 1470.59 Q144.26 1462.4 148.149 1457.54 Q152.038 1452.65 158.589 1452.65 Q160.348 1452.65 162.13 1453 Q163.936 1453.35 165.88 1454.04 Z" fill="#000000" fill-rule="evenodd" fill-opacity="1" /><path clip-path="url(#clip220)" d="M186.181 1456.36 Q182.57 1456.36 180.741 1459.92 Q178.936 1463.46 178.936 1470.59 Q178.936 1477.7 180.741 1481.26 Q182.57 1484.8 186.181 1484.8 Q189.815 1484.8 191.621 1481.26 Q193.45 1477.7 193.45 1470.59 Q193.45 1463.46 191.621 1459.92 Q189.815 1456.36 186.181 1456.36 M186.181 1452.65 Q191.991 1452.65 195.047 1457.26 Q198.125 1461.84 198.125 1470.59 Q198.125 1479.32 195.047 1483.92 Q191.991 1488.51 186.181 1488.51 Q180.371 1488.51 177.292 1483.92 Q174.237 1479.32 174.237 1470.59 Q174.237 1461.84 177.292 1457.26 Q180.371 1452.65 186.181 1452.65 Z" fill="#000000" fill-rule="evenodd" fill-opacity="1" /><path clip-path="url(#clip220)" d="M216.343 1456.36 Q212.732 1456.36 210.903 1459.92 Q209.098 1463.46 209.098 1470.59 Q209.098 1477.7 210.903 1481.26 Q212.732 1484.8 216.343 1484.8 Q219.977 1484.8 221.783 1481.26 Q223.611 1477.7 223.611 1470.59 Q223.611 1463.46 221.783 1459.92 Q219.977 1456.36 216.343 1456.36 M216.343 1452.65 Q222.153 1452.65 225.209 1457.26 Q228.287 1461.84 228.287 1470.59 Q228.287 1479.32 225.209 1483.92 Q222.153 1488.51 216.343 1488.51 Q210.533 1488.51 207.454 1483.92 Q204.399 1479.32 204.399 1470.59 Q204.399 1461.84 207.454 1457.26 Q210.533 1452.65 216.343 1452.65 Z" fill="#000000" fill-rule="evenodd" fill-opacity="1" /><path clip-path="url(#clip220)" d="M119.885 1187.25 L136.204 1187.25 L136.204 1191.18 L114.26 1191.18 L114.26 1187.25 Q116.922 1184.49 121.505 1179.86 Q126.112 1175.21 127.292 1173.87 Q129.538 1171.35 130.417 1169.61 Q131.32 1167.85 131.32 1166.16 Q131.32 1163.41 129.376 1161.67 Q127.455 1159.93 124.353 1159.93 Q122.154 1159.93 119.7 1160.7 Q117.269 1161.46 114.492 1163.01 L114.492 1158.29 Q117.316 1157.16 119.769 1156.58 Q122.223 1156 124.26 1156 Q129.63 1156 132.825 1158.68 Q136.019 1161.37 136.019 1165.86 Q136.019 1167.99 135.209 1169.91 Q134.422 1171.81 132.316 1174.4 Q131.737 1175.07 128.635 1178.29 Q125.533 1181.48 119.885 1187.25 Z" fill="#000000" fill-rule="evenodd" fill-opacity="1" /><path clip-path="url(#clip220)" d="M144.839 1156.62 L167.061 1156.62 L167.061 1158.61 L154.515 1191.18 L149.63 1191.18 L161.436 1160.56 L144.839 1160.56 L144.839 1156.62 Z" fill="#000000" fill-rule="evenodd" fill-opacity="1" /><path clip-path="url(#clip220)" d="M186.181 1159.7 Q182.57 1159.7 180.741 1163.27 Q178.936 1166.81 178.936 1173.94 Q178.936 1181.05 180.741 1184.61 Q182.57 1188.15 186.181 1188.15 Q189.815 1188.15 191.621 1184.61 Q193.45 1181.05 193.45 1173.94 Q193.45 1166.81 191.621 1163.27 Q189.815 1159.7 186.181 1159.7 M186.181 1156 Q191.991 1156 195.047 1160.61 Q198.125 1165.19 198.125 1173.94 Q198.125 1182.67 195.047 1187.27 Q191.991 1191.86 186.181 1191.86 Q180.371 1191.86 177.292 1187.27 Q174.237 1182.67 174.237 1173.94 Q174.237 1165.19 177.292 1160.61 Q180.371 1156 186.181 1156 Z" fill="#000000" fill-rule="evenodd" fill-opacity="1" /><path clip-path="url(#clip220)" d="M216.343 1159.7 Q212.732 1159.7 210.903 1163.27 Q209.098 1166.81 209.098 1173.94 Q209.098 1181.05 210.903 1184.61 Q212.732 1188.15 216.343 1188.15 Q219.977 1188.15 221.783 1184.61 Q223.611 1181.05 223.611 1173.94 Q223.611 1166.81 221.783 1163.27 Q219.977 1159.7 216.343 1159.7 M216.343 1156 Q222.153 1156 225.209 1160.61 Q228.287 1165.19 228.287 1173.94 Q228.287 1182.67 225.209 1187.27 Q222.153 1191.86 216.343 1191.86 Q210.533 1191.86 207.454 1187.27 Q204.399 1182.67 204.399 1173.94 Q204.399 1165.19 207.454 1160.61 Q210.533 1156 216.343 1156 Z" fill="#000000" fill-rule="evenodd" fill-opacity="1" /><path clip-path="url(#clip220)" d="M119.885 890.596 L136.204 890.596 L136.204 894.531 L114.26 894.531 L114.26 890.596 Q116.922 887.841 121.505 883.212 Q126.112 878.559 127.292 877.217 Q129.538 874.693 130.417 872.957 Q131.32 871.198 131.32 869.508 Q131.32 866.754 129.376 865.018 Q127.455 863.281 124.353 863.281 Q122.154 863.281 119.7 864.045 Q117.269 864.809 114.492 866.36 L114.492 861.638 Q117.316 860.504 119.769 859.925 Q122.223 859.346 124.26 859.346 Q129.63 859.346 132.825 862.031 Q136.019 864.717 136.019 869.207 Q136.019 871.337 135.209 873.258 Q134.422 875.156 132.316 877.749 Q131.737 878.42 128.635 881.638 Q125.533 884.832 119.885 890.596 Z" fill="#000000" fill-rule="evenodd" fill-opacity="1" /><path clip-path="url(#clip220)" d="M156.019 878.119 Q152.686 878.119 150.765 879.902 Q148.866 881.684 148.866 884.809 Q148.866 887.934 150.765 889.716 Q152.686 891.499 156.019 891.499 Q159.353 891.499 161.274 889.716 Q163.195 887.911 163.195 884.809 Q163.195 881.684 161.274 879.902 Q159.376 878.119 156.019 878.119 M151.343 876.129 Q148.334 875.388 146.644 873.328 Q144.978 871.267 144.978 868.305 Q144.978 864.161 147.917 861.754 Q150.88 859.346 156.019 859.346 Q161.181 859.346 164.121 861.754 Q167.061 864.161 167.061 868.305 Q167.061 871.267 165.371 873.328 Q163.704 875.388 160.718 876.129 Q164.098 876.916 165.973 879.207 Q167.871 881.499 167.871 884.809 Q167.871 889.832 164.792 892.517 Q161.737 895.203 156.019 895.203 Q150.302 895.203 147.223 892.517 Q144.167 889.832 144.167 884.809 Q144.167 881.499 146.066 879.207 Q147.964 876.916 151.343 876.129 M149.63 868.744 Q149.63 871.43 151.297 872.934 Q152.987 874.439 156.019 874.439 Q159.028 874.439 160.718 872.934 Q162.431 871.43 162.431 868.744 Q162.431 866.059 160.718 864.555 Q159.028 863.05 156.019 863.05 Q152.987 863.05 151.297 864.555 Q149.63 866.059 149.63 868.744 Z" fill="#000000" fill-rule="evenodd" fill-opacity="1" /><path clip-path="url(#clip220)" d="M186.181 863.05 Q182.57 863.05 180.741 866.615 Q178.936 870.156 178.936 877.286 Q178.936 884.392 180.741 887.957 Q182.57 891.499 186.181 891.499 Q189.815 891.499 191.621 887.957 Q193.45 884.392 193.45 877.286 Q193.45 870.156 191.621 866.615 Q189.815 863.05 186.181 863.05 M186.181 859.346 Q191.991 859.346 195.047 863.953 Q198.125 868.536 198.125 877.286 Q198.125 886.013 195.047 890.619 Q191.991 895.203 186.181 895.203 Q180.371 895.203 177.292 890.619 Q174.237 886.013 174.237 877.286 Q174.237 868.536 177.292 863.953 Q180.371 859.346 186.181 859.346 Z" fill="#000000" fill-rule="evenodd" fill-opacity="1" /><path clip-path="url(#clip220)" d="M216.343 863.05 Q212.732 863.05 210.903 866.615 Q209.098 870.156 209.098 877.286 Q209.098 884.392 210.903 887.957 Q212.732 891.499 216.343 891.499 Q219.977 891.499 221.783 887.957 Q223.611 884.392 223.611 877.286 Q223.611 870.156 221.783 866.615 Q219.977 863.05 216.343 863.05 M216.343 859.346 Q222.153 859.346 225.209 863.953 Q228.287 868.536 228.287 877.286 Q228.287 886.013 225.209 890.619 Q222.153 895.203 216.343 895.203 Q210.533 895.203 207.454 890.619 Q204.399 886.013 204.399 877.286 Q204.399 868.536 207.454 863.953 Q210.533 859.346 216.343 859.346 Z" fill="#000000" fill-rule="evenodd" fill-opacity="1" /><path clip-path="url(#clip220)" d="M119.885 593.943 L136.204 593.943 L136.204 597.878 L114.26 597.878 L114.26 593.943 Q116.922 591.189 121.505 586.559 Q126.112 581.906 127.292 580.564 Q129.538 578.041 130.417 576.304 Q131.32 574.545 131.32 572.855 Q131.32 570.101 129.376 568.365 Q127.455 566.629 124.353 566.629 Q122.154 566.629 119.7 567.393 Q117.269 568.156 114.492 569.707 L114.492 564.985 Q117.316 563.851 119.769 563.272 Q122.223 562.693 124.26 562.693 Q129.63 562.693 132.825 565.379 Q136.019 568.064 136.019 572.555 Q136.019 574.684 135.209 576.605 Q134.422 578.504 132.316 581.096 Q131.737 581.767 128.635 584.985 Q125.533 588.179 119.885 593.943 Z" fill="#000000" fill-rule="evenodd" fill-opacity="1" /><path clip-path="url(#clip220)" d="M146.158 597.161 L146.158 592.902 Q147.917 593.735 149.723 594.175 Q151.528 594.615 153.265 594.615 Q157.894 594.615 160.325 591.513 Q162.778 588.388 163.126 582.045 Q161.783 584.036 159.723 585.101 Q157.663 586.166 155.163 586.166 Q149.978 586.166 146.945 583.041 Q143.936 579.892 143.936 574.453 Q143.936 569.129 147.084 565.911 Q150.232 562.693 155.464 562.693 Q161.459 562.693 164.607 567.3 Q167.778 571.883 167.778 580.633 Q167.778 588.804 163.89 593.689 Q160.024 598.55 153.473 598.55 Q151.714 598.55 149.908 598.203 Q148.103 597.855 146.158 597.161 M155.464 582.508 Q158.612 582.508 160.44 580.355 Q162.292 578.203 162.292 574.453 Q162.292 570.726 160.44 568.573 Q158.612 566.397 155.464 566.397 Q152.316 566.397 150.464 568.573 Q148.635 570.726 148.635 574.453 Q148.635 578.203 150.464 580.355 Q152.316 582.508 155.464 582.508 Z" fill="#000000" fill-rule="evenodd" fill-opacity="1" /><path clip-path="url(#clip220)" d="M186.181 566.397 Q182.57 566.397 180.741 569.962 Q178.936 573.504 178.936 580.633 Q178.936 587.74 180.741 591.304 Q182.57 594.846 186.181 594.846 Q189.815 594.846 191.621 591.304 Q193.45 587.74 193.45 580.633 Q193.45 573.504 191.621 569.962 Q189.815 566.397 186.181 566.397 M186.181 562.693 Q191.991 562.693 195.047 567.3 Q198.125 571.883 198.125 580.633 Q198.125 589.36 195.047 593.966 Q191.991 598.55 186.181 598.55 Q180.371 598.55 177.292 593.966 Q174.237 589.36 174.237 580.633 Q174.237 571.883 177.292 567.3 Q180.371 562.693 186.181 562.693 Z" fill="#000000" fill-rule="evenodd" fill-opacity="1" /><path clip-path="url(#clip220)" d="M216.343 566.397 Q212.732 566.397 210.903 569.962 Q209.098 573.504 209.098 580.633 Q209.098 587.74 210.903 591.304 Q212.732 594.846 216.343 594.846 Q219.977 594.846 221.783 591.304 Q223.611 587.74 223.611 580.633 Q223.611 573.504 221.783 569.962 Q219.977 566.397 216.343 566.397 M216.343 562.693 Q222.153 562.693 225.209 567.3 Q228.287 571.883 228.287 580.633 Q228.287 589.36 225.209 593.966 Q222.153 598.55 216.343 598.55 Q210.533 598.55 207.454 593.966 Q204.399 589.36 204.399 580.633 Q204.399 571.883 207.454 567.3 Q210.533 562.693 216.343 562.693 Z" fill="#000000" fill-rule="evenodd" fill-opacity="1" /><path clip-path="url(#clip220)" d="M130.024 282.592 Q133.38 283.309 135.255 285.578 Q137.154 287.846 137.154 291.179 Q137.154 296.295 133.635 299.096 Q130.117 301.897 123.635 301.897 Q121.459 301.897 119.144 301.457 Q116.853 301.04 114.399 300.184 L114.399 295.67 Q116.343 296.804 118.658 297.383 Q120.973 297.962 123.496 297.962 Q127.894 297.962 130.186 296.226 Q132.501 294.49 132.501 291.179 Q132.501 288.124 130.348 286.411 Q128.218 284.675 124.399 284.675 L120.371 284.675 L120.371 280.832 L124.584 280.832 Q128.033 280.832 129.862 279.467 Q131.691 278.078 131.691 275.485 Q131.691 272.823 129.792 271.411 Q127.917 269.976 124.399 269.976 Q122.478 269.976 120.279 270.393 Q118.08 270.809 115.441 271.689 L115.441 267.522 Q118.103 266.781 120.418 266.411 Q122.755 266.041 124.816 266.041 Q130.14 266.041 133.242 268.471 Q136.343 270.879 136.343 274.999 Q136.343 277.869 134.7 279.86 Q133.056 281.828 130.024 282.592 Z" fill="#000000" fill-rule="evenodd" fill-opacity="1" /><path clip-path="url(#clip220)" d="M156.019 269.744 Q152.408 269.744 150.579 273.309 Q148.774 276.851 148.774 283.98 Q148.774 291.087 150.579 294.652 Q152.408 298.193 156.019 298.193 Q159.653 298.193 161.459 294.652 Q163.288 291.087 163.288 283.98 Q163.288 276.851 161.459 273.309 Q159.653 269.744 156.019 269.744 M156.019 266.041 Q161.829 266.041 164.885 270.647 Q167.964 275.23 167.964 283.98 Q167.964 292.707 164.885 297.314 Q161.829 301.897 156.019 301.897 Q150.209 301.897 147.13 297.314 Q144.075 292.707 144.075 283.98 Q144.075 275.23 147.13 270.647 Q150.209 266.041 156.019 266.041 Z" fill="#000000" fill-rule="evenodd" fill-opacity="1" /><path clip-path="url(#clip220)" d="M186.181 269.744 Q182.57 269.744 180.741 273.309 Q178.936 276.851 178.936 283.98 Q178.936 291.087 180.741 294.652 Q182.57 298.193 186.181 298.193 Q189.815 298.193 191.621 294.652 Q193.45 291.087 193.45 283.98 Q193.45 276.851 191.621 273.309 Q189.815 269.744 186.181 269.744 M186.181 266.041 Q191.991 266.041 195.047 270.647 Q198.125 275.23 198.125 283.98 Q198.125 292.707 195.047 297.314 Q191.991 301.897 186.181 301.897 Q180.371 301.897 177.292 297.314 Q174.237 292.707 174.237 283.98 Q174.237 275.23 177.292 270.647 Q180.371 266.041 186.181 266.041 Z" fill="#000000" fill-rule="evenodd" fill-opacity="1" /><path clip-path="url(#clip220)" d="M216.343 269.744 Q212.732 269.744 210.903 273.309 Q209.098 276.851 209.098 283.98 Q209.098 291.087 210.903 294.652 Q212.732 298.193 216.343 298.193 Q219.977 298.193 221.783 294.652 Q223.611 291.087 223.611 283.98 Q223.611 276.851 221.783 273.309 Q219.977 269.744 216.343 269.744 M216.343 266.041 Q222.153 266.041 225.209 270.647 Q228.287 275.23 228.287 283.98 Q228.287 292.707 225.209 297.314 Q222.153 301.897 216.343 301.897 Q210.533 301.897 207.454 297.314 Q204.399 292.707 204.399 283.98 Q204.399 275.23 207.454 270.647 Q210.533 266.041 216.343 266.041 Z" fill="#000000" fill-rule="evenodd" fill-opacity="1" /><path clip-path="url(#clip220)" d="M22.818 922.094 L46.4666 930.815 L46.4666 913.341 L22.818 922.094 M16.4842 925.723 L16.4842 918.434 L64.0042 900.324 L64.0042 907.008 L51.8138 911.336 L51.8138 932.757 L64.0042 937.085 L64.0042 943.865 L16.4842 925.723 Z" fill="#000000" fill-rule="evenodd" fill-opacity="1" /><path clip-path="url(#clip220)" d="M45.7664 870.182 Q39.4007 870.182 35.8996 872.824 Q32.3984 875.434 32.3984 880.176 Q32.3984 884.887 35.8996 887.528 Q39.4007 890.138 45.7664 890.138 Q52.1003 890.138 55.6014 887.528 Q59.1026 884.887 59.1026 880.176 Q59.1026 875.434 55.6014 872.824 Q52.1003 870.182 45.7664 870.182 M59.58 864.325 Q68.683 864.325 73.1071 868.368 Q77.5631 872.41 77.5631 880.749 Q77.5631 883.836 77.0857 886.574 Q76.6401 889.311 75.6852 891.889 L69.9879 891.889 Q71.3884 889.311 72.0568 886.796 Q72.7252 884.282 72.7252 881.672 Q72.7252 875.911 69.7015 873.046 Q66.7096 870.182 60.6303 870.182 L57.7339 870.182 Q60.885 871.996 62.4446 874.829 Q64.0042 877.662 64.0042 881.608 Q64.0042 888.165 59.0071 892.175 Q54.01 896.186 45.7664 896.186 Q37.491 896.186 32.4939 892.175 Q27.4968 888.165 27.4968 881.608 Q27.4968 877.662 29.0564 874.829 Q30.616 871.996 33.7671 870.182 L28.3562 870.182 L28.3562 864.325 L59.58 864.325 Z" fill="#000000" fill-rule="evenodd" fill-opacity="1" /><path clip-path="url(#clip220)" d="M44.7161 821.771 L47.5806 821.771 L47.5806 848.698 Q53.6281 848.316 56.8109 845.069 Q59.9619 841.791 59.9619 835.966 Q59.9619 832.592 59.1344 829.441 Q58.3069 826.259 56.6518 823.139 L62.1899 823.139 Q63.5267 826.29 64.227 829.601 Q64.9272 832.911 64.9272 836.316 Q64.9272 844.846 59.9619 849.843 Q54.9967 854.809 46.5303 854.809 Q37.7774 854.809 32.6531 850.098 Q27.4968 845.356 27.4968 837.335 Q27.4968 830.142 32.1438 825.972 Q36.7589 821.771 44.7161 821.771 M42.9973 827.627 Q38.1912 827.691 35.3266 830.333 Q32.4621 832.943 32.4621 837.271 Q32.4621 842.173 35.2312 845.133 Q38.0002 848.061 43.0292 848.507 L42.9973 827.627 Z" fill="#000000" fill-rule="evenodd" fill-opacity="1" /><path clip-path="url(#clip220)" d="M14.5426 777.37 Q21.8632 781.635 29.0246 783.704 Q36.186 785.773 43.5384 785.773 Q50.8908 785.773 58.1159 783.704 Q65.3091 781.603 72.5979 777.37 L72.5979 782.462 Q65.1182 787.237 57.8931 789.624 Q50.668 791.979 43.5384 791.979 Q36.4406 791.979 29.2474 789.624 Q22.0542 787.269 14.5426 782.462 L14.5426 777.37 Z" fill="#000000" fill-rule="evenodd" fill-opacity="1" /><path clip-path="url(#clip220)" d="M16.4842 765.752 L16.4842 756.172 L48.8219 744.045 L16.4842 731.855 L16.4842 722.275 L64.0042 722.275 L64.0042 728.545 L22.277 728.545 L54.8694 740.799 L54.8694 747.26 L22.277 759.514 L64.0042 759.514 L64.0042 765.752 L16.4842 765.752 Z" fill="#000000" fill-rule="evenodd" fill-opacity="1" /><path clip-path="url(#clip220)" d="M46.0847 693.565 Q46.0847 700.663 47.7079 703.4 Q49.3312 706.138 53.2461 706.138 Q56.3653 706.138 58.2114 704.101 Q60.0256 702.032 60.0256 698.499 Q60.0256 693.629 56.5881 690.701 Q53.1188 687.741 47.3897 687.741 L46.0847 687.741 L46.0847 693.565 M43.6657 681.884 L64.0042 681.884 L64.0042 687.741 L58.5933 687.741 Q61.8398 689.746 63.3994 692.738 Q64.9272 695.73 64.9272 700.058 Q64.9272 705.533 61.8716 708.779 Q58.7843 711.994 53.6281 711.994 Q47.6125 711.994 44.5569 707.984 Q41.5014 703.941 41.5014 695.953 L41.5014 687.741 L40.9285 687.741 Q36.8862 687.741 34.6901 690.414 Q32.4621 693.056 32.4621 697.862 Q32.4621 700.918 33.1941 703.814 Q33.9262 706.711 35.3903 709.384 L29.9795 709.384 Q28.7381 706.169 28.1334 703.146 Q27.4968 700.122 27.4968 697.257 Q27.4968 689.523 31.5072 685.704 Q35.5176 681.884 43.6657 681.884 Z" fill="#000000" fill-rule="evenodd" fill-opacity="1" /><path clip-path="url(#clip220)" d="M14.5426 670.744 L14.5426 665.652 Q22.0542 660.877 29.2474 658.522 Q36.4406 656.135 43.5384 656.135 Q50.668 656.135 57.8931 658.522 Q65.1182 660.877 72.5979 665.652 L72.5979 670.744 Q65.3091 666.511 58.1159 664.442 Q50.8908 662.342 43.5384 662.342 Q36.186 662.342 29.0246 664.442 Q21.8632 666.511 14.5426 670.744 Z" fill="#000000" fill-rule="evenodd" fill-opacity="1" /><polyline clip-path="url(#clip222)" style="stroke:#009af9; stroke-linecap:butt; stroke-linejoin:round; stroke-width:4; stroke-opacity:1; fill:none" points="
  323.395,1420.2 323.395,1221.89 
  "/>
<polyline clip-path="url(#clip222)" style="stroke:#009af9; stroke-linecap:butt; stroke-linejoin:round; stroke-width:4; stroke-opacity:1; fill:none" points="
  379.688,1383.97 379.688,1183.96 
  "/>
<polyline clip-path="url(#clip222)" style="stroke:#009af9; stroke-linecap:butt; stroke-linejoin:round; stroke-width:4; stroke-opacity:1; fill:none" points="
  435.981,1383.19 435.981,1184.73 
  "/>
<polyline clip-path="url(#clip222)" style="stroke:#009af9; stroke-linecap:butt; stroke-linejoin:round; stroke-width:4; stroke-opacity:1; fill:none" points="
  492.274,1374.08 492.274,1173.08 
  "/>
<polyline clip-path="url(#clip222)" style="stroke:#009af9; stroke-linecap:butt; stroke-linejoin:round; stroke-width:4; stroke-opacity:1; fill:none" points="
  548.567,1369.29 548.567,1171.34 
  "/>
<polyline clip-path="url(#clip222)" style="stroke:#009af9; stroke-linecap:butt; stroke-linejoin:round; stroke-width:4; stroke-opacity:1; fill:none" points="
  604.86,1364.08 604.86,1163.5 
  "/>
<polyline clip-path="url(#clip222)" style="stroke:#009af9; stroke-linecap:butt; stroke-linejoin:round; stroke-width:4; stroke-opacity:1; fill:none" points="
  661.153,1356.59 661.153,1158.53 
  "/>
<polyline clip-path="url(#clip222)" style="stroke:#009af9; stroke-linecap:butt; stroke-linejoin:round; stroke-width:4; stroke-opacity:1; fill:none" points="
  717.446,1354.8 717.446,1156.17 
  "/>
<polyline clip-path="url(#clip222)" style="stroke:#009af9; stroke-linecap:butt; stroke-linejoin:round; stroke-width:4; stroke-opacity:1; fill:none" points="
  773.739,1348.15 773.739,1147.98 
  "/>
<polyline clip-path="url(#clip222)" style="stroke:#009af9; stroke-linecap:butt; stroke-linejoin:round; stroke-width:4; stroke-opacity:1; fill:none" points="
  830.032,1331.75 830.032,1134.13 
  "/>
<polyline clip-path="url(#clip222)" style="stroke:#009af9; stroke-linecap:butt; stroke-linejoin:round; stroke-width:4; stroke-opacity:1; fill:none" points="
  886.324,1331.37 886.324,1132.72 
  "/>
<polyline clip-path="url(#clip222)" style="stroke:#009af9; stroke-linecap:butt; stroke-linejoin:round; stroke-width:4; stroke-opacity:1; fill:none" points="
  942.617,1324.52 942.617,1125.34 
  "/>
<polyline clip-path="url(#clip222)" style="stroke:#009af9; stroke-linecap:butt; stroke-linejoin:round; stroke-width:4; stroke-opacity:1; fill:none" points="
  998.91,1313.36 998.91,1112.17 
  "/>
<polyline clip-path="url(#clip222)" style="stroke:#009af9; stroke-linecap:butt; stroke-linejoin:round; stroke-width:4; stroke-opacity:1; fill:none" points="
  1055.2,1311.25 1055.2,1112.5 
  "/>
<polyline clip-path="url(#clip222)" style="stroke:#009af9; stroke-linecap:butt; stroke-linejoin:round; stroke-width:4; stroke-opacity:1; fill:none" points="
  1111.5,1306.7 1111.5,1100.44 
  "/>
<polyline clip-path="url(#clip222)" style="stroke:#009af9; stroke-linecap:butt; stroke-linejoin:round; stroke-width:4; stroke-opacity:1; fill:none" points="
  1167.79,1294.78 1167.79,1095.15 
  "/>
<polyline clip-path="url(#clip222)" style="stroke:#009af9; stroke-linecap:butt; stroke-linejoin:round; stroke-width:4; stroke-opacity:1; fill:none" points="
  1224.08,1293 1224.08,1092.77 
  "/>
<polyline clip-path="url(#clip222)" style="stroke:#009af9; stroke-linecap:butt; stroke-linejoin:round; stroke-width:4; stroke-opacity:1; fill:none" points="
  1280.38,1268.15 1280.38,1069.57 
  "/>
<polyline clip-path="url(#clip222)" style="stroke:#009af9; stroke-linecap:butt; stroke-linejoin:round; stroke-width:4; stroke-opacity:1; fill:none" points="
  1336.67,1262.65 1336.67,1049.56 
  "/>
<polyline clip-path="url(#clip222)" style="stroke:#009af9; stroke-linecap:butt; stroke-linejoin:round; stroke-width:4; stroke-opacity:1; fill:none" points="
  1392.96,1253.95 1392.96,1056.48 
  "/>
<polyline clip-path="url(#clip222)" style="stroke:#009af9; stroke-linecap:butt; stroke-linejoin:round; stroke-width:4; stroke-opacity:1; fill:none" points="
  1449.25,1241.72 1449.25,1042.01 
  "/>
<polyline clip-path="url(#clip222)" style="stroke:#009af9; stroke-linecap:butt; stroke-linejoin:round; stroke-width:4; stroke-opacity:1; fill:none" points="
  1505.55,1231.04 1505.55,1033.71 
  "/>
<polyline clip-path="url(#clip222)" style="stroke:#009af9; stroke-linecap:butt; stroke-linejoin:round; stroke-width:4; stroke-opacity:1; fill:none" points="
  1561.84,1227.28 1561.84,1029.16 
  "/>
<polyline clip-path="url(#clip222)" style="stroke:#009af9; stroke-linecap:butt; stroke-linejoin:round; stroke-width:4; stroke-opacity:1; fill:none" points="
  1618.13,1225.05 1618.13,1025.46 
  "/>
<polyline clip-path="url(#clip222)" style="stroke:#009af9; stroke-linecap:butt; stroke-linejoin:round; stroke-width:4; stroke-opacity:1; fill:none" points="
  1674.43,1216.57 1674.43,1020.29 
  "/>
<polyline clip-path="url(#clip222)" style="stroke:#009af9; stroke-linecap:butt; stroke-linejoin:round; stroke-width:4; stroke-opacity:1; fill:none" points="
  1730.72,1187.6 1730.72,989.334 
  "/>
<polyline clip-path="url(#clip222)" style="stroke:#009af9; stroke-linecap:butt; stroke-linejoin:round; stroke-width:4; stroke-opacity:1; fill:none" points="
  1787.01,1185.4 1787.01,987.972 
  "/>
<polyline clip-path="url(#clip222)" style="stroke:#009af9; stroke-linecap:butt; stroke-linejoin:round; stroke-width:4; stroke-opacity:1; fill:none" points="
  1843.3,1181.16 1843.3,980.947 
  "/>
<polyline clip-path="url(#clip222)" style="stroke:#009af9; stroke-linecap:butt; stroke-linejoin:round; stroke-width:4; stroke-opacity:1; fill:none" points="
  1899.6,1161.7 1899.6,965.393 
  "/>
<polyline clip-path="url(#clip222)" style="stroke:#009af9; stroke-linecap:butt; stroke-linejoin:round; stroke-width:4; stroke-opacity:1; fill:none" points="
  1955.89,1147.61 1955.89,947.449 
  "/>
<polyline clip-path="url(#clip222)" style="stroke:#009af9; stroke-linecap:butt; stroke-linejoin:round; stroke-width:4; stroke-opacity:1; fill:none" points="
  2012.18,1139.06 2012.18,942.948 
  "/>
<polyline clip-path="url(#clip222)" style="stroke:#009af9; stroke-linecap:butt; stroke-linejoin:round; stroke-width:4; stroke-opacity:1; fill:none" points="
  2068.48,974.809 2068.48,777.32 
  "/>
<polyline clip-path="url(#clip222)" style="stroke:#009af9; stroke-linecap:butt; stroke-linejoin:round; stroke-width:4; stroke-opacity:1; fill:none" points="
  2124.77,922.932 2124.77,725.369 
  "/>
<polyline clip-path="url(#clip222)" style="stroke:#009af9; stroke-linecap:butt; stroke-linejoin:round; stroke-width:4; stroke-opacity:1; fill:none" points="
  2181.06,784.334 2181.06,585.706 
  "/>
<polyline clip-path="url(#clip222)" style="stroke:#009af9; stroke-linecap:butt; stroke-linejoin:round; stroke-width:4; stroke-opacity:1; fill:none" points="
  2237.36,305.779 2237.36,113.786 
  "/>
<polyline clip-path="url(#clip222)" style="stroke:#009af9; stroke-linecap:butt; stroke-linejoin:round; stroke-width:4; stroke-opacity:1; fill:none" points="
  2293.65,281.061 2293.65,89.8529 
  "/>
<line clip-path="url(#clip222)" x1="331.395" y1="1420.2" x2="315.395" y2="1420.2" style="stroke:#009af9; stroke-width:3.2; stroke-opacity:1"/>
<line clip-path="url(#clip222)" x1="331.395" y1="1221.89" x2="315.395" y2="1221.89" style="stroke:#009af9; stroke-width:3.2; stroke-opacity:1"/>
<line clip-path="url(#clip222)" x1="387.688" y1="1383.97" x2="371.688" y2="1383.97" style="stroke:#009af9; stroke-width:3.2; stroke-opacity:1"/>
<line clip-path="url(#clip222)" x1="387.688" y1="1183.96" x2="371.688" y2="1183.96" style="stroke:#009af9; stroke-width:3.2; stroke-opacity:1"/>
<line clip-path="url(#clip222)" x1="443.981" y1="1383.19" x2="427.981" y2="1383.19" style="stroke:#009af9; stroke-width:3.2; stroke-opacity:1"/>
<line clip-path="url(#clip222)" x1="443.981" y1="1184.73" x2="427.981" y2="1184.73" style="stroke:#009af9; stroke-width:3.2; stroke-opacity:1"/>
<line clip-path="url(#clip222)" x1="500.274" y1="1374.08" x2="484.274" y2="1374.08" style="stroke:#009af9; stroke-width:3.2; stroke-opacity:1"/>
<line clip-path="url(#clip222)" x1="500.274" y1="1173.08" x2="484.274" y2="1173.08" style="stroke:#009af9; stroke-width:3.2; stroke-opacity:1"/>
<line clip-path="url(#clip222)" x1="556.567" y1="1369.29" x2="540.567" y2="1369.29" style="stroke:#009af9; stroke-width:3.2; stroke-opacity:1"/>
<line clip-path="url(#clip222)" x1="556.567" y1="1171.34" x2="540.567" y2="1171.34" style="stroke:#009af9; stroke-width:3.2; stroke-opacity:1"/>
<line clip-path="url(#clip222)" x1="612.86" y1="1364.08" x2="596.86" y2="1364.08" style="stroke:#009af9; stroke-width:3.2; stroke-opacity:1"/>
<line clip-path="url(#clip222)" x1="612.86" y1="1163.5" x2="596.86" y2="1163.5" style="stroke:#009af9; stroke-width:3.2; stroke-opacity:1"/>
<line clip-path="url(#clip222)" x1="669.153" y1="1356.59" x2="653.153" y2="1356.59" style="stroke:#009af9; stroke-width:3.2; stroke-opacity:1"/>
<line clip-path="url(#clip222)" x1="669.153" y1="1158.53" x2="653.153" y2="1158.53" style="stroke:#009af9; stroke-width:3.2; stroke-opacity:1"/>
<line clip-path="url(#clip222)" x1="725.446" y1="1354.8" x2="709.446" y2="1354.8" style="stroke:#009af9; stroke-width:3.2; stroke-opacity:1"/>
<line clip-path="url(#clip222)" x1="725.446" y1="1156.17" x2="709.446" y2="1156.17" style="stroke:#009af9; stroke-width:3.2; stroke-opacity:1"/>
<line clip-path="url(#clip222)" x1="781.739" y1="1348.15" x2="765.739" y2="1348.15" style="stroke:#009af9; stroke-width:3.2; stroke-opacity:1"/>
<line clip-path="url(#clip222)" x1="781.739" y1="1147.98" x2="765.739" y2="1147.98" style="stroke:#009af9; stroke-width:3.2; stroke-opacity:1"/>
<line clip-path="url(#clip222)" x1="838.032" y1="1331.75" x2="822.032" y2="1331.75" style="stroke:#009af9; stroke-width:3.2; stroke-opacity:1"/>
<line clip-path="url(#clip222)" x1="838.032" y1="1134.13" x2="822.032" y2="1134.13" style="stroke:#009af9; stroke-width:3.2; stroke-opacity:1"/>
<line clip-path="url(#clip222)" x1="894.324" y1="1331.37" x2="878.324" y2="1331.37" style="stroke:#009af9; stroke-width:3.2; stroke-opacity:1"/>
<line clip-path="url(#clip222)" x1="894.324" y1="1132.72" x2="878.324" y2="1132.72" style="stroke:#009af9; stroke-width:3.2; stroke-opacity:1"/>
<line clip-path="url(#clip222)" x1="950.617" y1="1324.52" x2="934.617" y2="1324.52" style="stroke:#009af9; stroke-width:3.2; stroke-opacity:1"/>
<line clip-path="url(#clip222)" x1="950.617" y1="1125.34" x2="934.617" y2="1125.34" style="stroke:#009af9; stroke-width:3.2; stroke-opacity:1"/>
<line clip-path="url(#clip222)" x1="1006.91" y1="1313.36" x2="990.91" y2="1313.36" style="stroke:#009af9; stroke-width:3.2; stroke-opacity:1"/>
<line clip-path="url(#clip222)" x1="1006.91" y1="1112.17" x2="990.91" y2="1112.17" style="stroke:#009af9; stroke-width:3.2; stroke-opacity:1"/>
<line clip-path="url(#clip222)" x1="1063.2" y1="1311.25" x2="1047.2" y2="1311.25" style="stroke:#009af9; stroke-width:3.2; stroke-opacity:1"/>
<line clip-path="url(#clip222)" x1="1063.2" y1="1112.5" x2="1047.2" y2="1112.5" style="stroke:#009af9; stroke-width:3.2; stroke-opacity:1"/>
<line clip-path="url(#clip222)" x1="1119.5" y1="1306.7" x2="1103.5" y2="1306.7" style="stroke:#009af9; stroke-width:3.2; stroke-opacity:1"/>
<line clip-path="url(#clip222)" x1="1119.5" y1="1100.44" x2="1103.5" y2="1100.44" style="stroke:#009af9; stroke-width:3.2; stroke-opacity:1"/>
<line clip-path="url(#clip222)" x1="1175.79" y1="1294.78" x2="1159.79" y2="1294.78" style="stroke:#009af9; stroke-width:3.2; stroke-opacity:1"/>
<line clip-path="url(#clip222)" x1="1175.79" y1="1095.15" x2="1159.79" y2="1095.15" style="stroke:#009af9; stroke-width:3.2; stroke-opacity:1"/>
<line clip-path="url(#clip222)" x1="1232.08" y1="1293" x2="1216.08" y2="1293" style="stroke:#009af9; stroke-width:3.2; stroke-opacity:1"/>
<line clip-path="url(#clip222)" x1="1232.08" y1="1092.77" x2="1216.08" y2="1092.77" style="stroke:#009af9; stroke-width:3.2; stroke-opacity:1"/>
<line clip-path="url(#clip222)" x1="1288.38" y1="1268.15" x2="1272.38" y2="1268.15" style="stroke:#009af9; stroke-width:3.2; stroke-opacity:1"/>
<line clip-path="url(#clip222)" x1="1288.38" y1="1069.57" x2="1272.38" y2="1069.57" style="stroke:#009af9; stroke-width:3.2; stroke-opacity:1"/>
<line clip-path="url(#clip222)" x1="1344.67" y1="1262.65" x2="1328.67" y2="1262.65" style="stroke:#009af9; stroke-width:3.2; stroke-opacity:1"/>
<line clip-path="url(#clip222)" x1="1344.67" y1="1049.56" x2="1328.67" y2="1049.56" style="stroke:#009af9; stroke-width:3.2; stroke-opacity:1"/>
<line clip-path="url(#clip222)" x1="1400.96" y1="1253.95" x2="1384.96" y2="1253.95" style="stroke:#009af9; stroke-width:3.2; stroke-opacity:1"/>
<line clip-path="url(#clip222)" x1="1400.96" y1="1056.48" x2="1384.96" y2="1056.48" style="stroke:#009af9; stroke-width:3.2; stroke-opacity:1"/>
<line clip-path="url(#clip222)" x1="1457.25" y1="1241.72" x2="1441.25" y2="1241.72" style="stroke:#009af9; stroke-width:3.2; stroke-opacity:1"/>
<line clip-path="url(#clip222)" x1="1457.25" y1="1042.01" x2="1441.25" y2="1042.01" style="stroke:#009af9; stroke-width:3.2; stroke-opacity:1"/>
<line clip-path="url(#clip222)" x1="1513.55" y1="1231.04" x2="1497.55" y2="1231.04" style="stroke:#009af9; stroke-width:3.2; stroke-opacity:1"/>
<line clip-path="url(#clip222)" x1="1513.55" y1="1033.71" x2="1497.55" y2="1033.71" style="stroke:#009af9; stroke-width:3.2; stroke-opacity:1"/>
<line clip-path="url(#clip222)" x1="1569.84" y1="1227.28" x2="1553.84" y2="1227.28" style="stroke:#009af9; stroke-width:3.2; stroke-opacity:1"/>
<line clip-path="url(#clip222)" x1="1569.84" y1="1029.16" x2="1553.84" y2="1029.16" style="stroke:#009af9; stroke-width:3.2; stroke-opacity:1"/>
<line clip-path="url(#clip222)" x1="1626.13" y1="1225.05" x2="1610.13" y2="1225.05" style="stroke:#009af9; stroke-width:3.2; stroke-opacity:1"/>
<line clip-path="url(#clip222)" x1="1626.13" y1="1025.46" x2="1610.13" y2="1025.46" style="stroke:#009af9; stroke-width:3.2; stroke-opacity:1"/>
<line clip-path="url(#clip222)" x1="1682.43" y1="1216.57" x2="1666.43" y2="1216.57" style="stroke:#009af9; stroke-width:3.2; stroke-opacity:1"/>
<line clip-path="url(#clip222)" x1="1682.43" y1="1020.29" x2="1666.43" y2="1020.29" style="stroke:#009af9; stroke-width:3.2; stroke-opacity:1"/>
<line clip-path="url(#clip222)" x1="1738.72" y1="1187.6" x2="1722.72" y2="1187.6" style="stroke:#009af9; stroke-width:3.2; stroke-opacity:1"/>
<line clip-path="url(#clip222)" x1="1738.72" y1="989.334" x2="1722.72" y2="989.334" style="stroke:#009af9; stroke-width:3.2; stroke-opacity:1"/>
<line clip-path="url(#clip222)" x1="1795.01" y1="1185.4" x2="1779.01" y2="1185.4" style="stroke:#009af9; stroke-width:3.2; stroke-opacity:1"/>
<line clip-path="url(#clip222)" x1="1795.01" y1="987.972" x2="1779.01" y2="987.972" style="stroke:#009af9; stroke-width:3.2; stroke-opacity:1"/>
<line clip-path="url(#clip222)" x1="1851.3" y1="1181.16" x2="1835.3" y2="1181.16" style="stroke:#009af9; stroke-width:3.2; stroke-opacity:1"/>
<line clip-path="url(#clip222)" x1="1851.3" y1="980.947" x2="1835.3" y2="980.947" style="stroke:#009af9; stroke-width:3.2; stroke-opacity:1"/>
<line clip-path="url(#clip222)" x1="1907.6" y1="1161.7" x2="1891.6" y2="1161.7" style="stroke:#009af9; stroke-width:3.2; stroke-opacity:1"/>
<line clip-path="url(#clip222)" x1="1907.6" y1="965.393" x2="1891.6" y2="965.393" style="stroke:#009af9; stroke-width:3.2; stroke-opacity:1"/>
<line clip-path="url(#clip222)" x1="1963.89" y1="1147.61" x2="1947.89" y2="1147.61" style="stroke:#009af9; stroke-width:3.2; stroke-opacity:1"/>
<line clip-path="url(#clip222)" x1="1963.89" y1="947.449" x2="1947.89" y2="947.449" style="stroke:#009af9; stroke-width:3.2; stroke-opacity:1"/>
<line clip-path="url(#clip222)" x1="2020.18" y1="1139.06" x2="2004.18" y2="1139.06" style="stroke:#009af9; stroke-width:3.2; stroke-opacity:1"/>
<line clip-path="url(#clip222)" x1="2020.18" y1="942.948" x2="2004.18" y2="942.948" style="stroke:#009af9; stroke-width:3.2; stroke-opacity:1"/>
<line clip-path="url(#clip222)" x1="2076.48" y1="974.809" x2="2060.48" y2="974.809" style="stroke:#009af9; stroke-width:3.2; stroke-opacity:1"/>
<line clip-path="url(#clip222)" x1="2076.48" y1="777.32" x2="2060.48" y2="777.32" style="stroke:#009af9; stroke-width:3.2; stroke-opacity:1"/>
<line clip-path="url(#clip222)" x1="2132.77" y1="922.932" x2="2116.77" y2="922.932" style="stroke:#009af9; stroke-width:3.2; stroke-opacity:1"/>
<line clip-path="url(#clip222)" x1="2132.77" y1="725.369" x2="2116.77" y2="725.369" style="stroke:#009af9; stroke-width:3.2; stroke-opacity:1"/>
<line clip-path="url(#clip222)" x1="2189.06" y1="784.334" x2="2173.06" y2="784.334" style="stroke:#009af9; stroke-width:3.2; stroke-opacity:1"/>
<line clip-path="url(#clip222)" x1="2189.06" y1="585.706" x2="2173.06" y2="585.706" style="stroke:#009af9; stroke-width:3.2; stroke-opacity:1"/>
<line clip-path="url(#clip222)" x1="2245.36" y1="305.779" x2="2229.36" y2="305.779" style="stroke:#009af9; stroke-width:3.2; stroke-opacity:1"/>
<line clip-path="url(#clip222)" x1="2245.36" y1="113.786" x2="2229.36" y2="113.786" style="stroke:#009af9; stroke-width:3.2; stroke-opacity:1"/>
<line clip-path="url(#clip222)" x1="2301.65" y1="281.061" x2="2285.65" y2="281.061" style="stroke:#009af9; stroke-width:3.2; stroke-opacity:1"/>
<line clip-path="url(#clip222)" x1="2301.65" y1="89.8529" x2="2285.65" y2="89.8529" style="stroke:#009af9; stroke-width:3.2; stroke-opacity:1"/>
<circle clip-path="url(#clip222)" cx="323.395" cy="1321.04" r="7" fill="#009af9" fill-rule="evenodd" fill-opacity="1" stroke="none"/>
<circle clip-path="url(#clip222)" cx="379.688" cy="1283.96" r="7" fill="#009af9" fill-rule="evenodd" fill-opacity="1" stroke="none"/>
<circle clip-path="url(#clip222)" cx="435.981" cy="1283.96" r="7" fill="#009af9" fill-rule="evenodd" fill-opacity="1" stroke="none"/>
<circle clip-path="url(#clip222)" cx="492.274" cy="1273.58" r="7" fill="#009af9" fill-rule="evenodd" fill-opacity="1" stroke="none"/>
<circle clip-path="url(#clip222)" cx="548.567" cy="1270.32" r="7" fill="#009af9" fill-rule="evenodd" fill-opacity="1" stroke="none"/>
<circle clip-path="url(#clip222)" cx="604.86" cy="1263.79" r="7" fill="#009af9" fill-rule="evenodd" fill-opacity="1" stroke="none"/>
<circle clip-path="url(#clip222)" cx="661.153" cy="1257.56" r="7" fill="#009af9" fill-rule="evenodd" fill-opacity="1" stroke="none"/>
<circle clip-path="url(#clip222)" cx="717.446" cy="1255.48" r="7" fill="#009af9" fill-rule="evenodd" fill-opacity="1" stroke="none"/>
<circle clip-path="url(#clip222)" cx="773.739" cy="1248.07" r="7" fill="#009af9" fill-rule="evenodd" fill-opacity="1" stroke="none"/>
<circle clip-path="url(#clip222)" cx="830.032" cy="1232.94" r="7" fill="#009af9" fill-rule="evenodd" fill-opacity="1" stroke="none"/>
<circle clip-path="url(#clip222)" cx="886.324" cy="1232.05" r="7" fill="#009af9" fill-rule="evenodd" fill-opacity="1" stroke="none"/>
<circle clip-path="url(#clip222)" cx="942.617" cy="1224.93" r="7" fill="#009af9" fill-rule="evenodd" fill-opacity="1" stroke="none"/>
<circle clip-path="url(#clip222)" cx="998.91" cy="1212.77" r="7" fill="#009af9" fill-rule="evenodd" fill-opacity="1" stroke="none"/>
<circle clip-path="url(#clip222)" cx="1055.2" cy="1211.88" r="7" fill="#009af9" fill-rule="evenodd" fill-opacity="1" stroke="none"/>
<circle clip-path="url(#clip222)" cx="1111.5" cy="1203.57" r="7" fill="#009af9" fill-rule="evenodd" fill-opacity="1" stroke="none"/>
<circle clip-path="url(#clip222)" cx="1167.79" cy="1194.97" r="7" fill="#009af9" fill-rule="evenodd" fill-opacity="1" stroke="none"/>
<circle clip-path="url(#clip222)" cx="1224.08" cy="1192.89" r="7" fill="#009af9" fill-rule="evenodd" fill-opacity="1" stroke="none"/>
<circle clip-path="url(#clip222)" cx="1280.38" cy="1168.86" r="7" fill="#009af9" fill-rule="evenodd" fill-opacity="1" stroke="none"/>
<circle clip-path="url(#clip222)" cx="1336.67" cy="1156.1" r="7" fill="#009af9" fill-rule="evenodd" fill-opacity="1" stroke="none"/>
<circle clip-path="url(#clip222)" cx="1392.96" cy="1155.21" r="7" fill="#009af9" fill-rule="evenodd" fill-opacity="1" stroke="none"/>
<circle clip-path="url(#clip222)" cx="1449.25" cy="1141.87" r="7" fill="#009af9" fill-rule="evenodd" fill-opacity="1" stroke="none"/>
<circle clip-path="url(#clip222)" cx="1505.55" cy="1132.37" r="7" fill="#009af9" fill-rule="evenodd" fill-opacity="1" stroke="none"/>
<circle clip-path="url(#clip222)" cx="1561.84" cy="1128.22" r="7" fill="#009af9" fill-rule="evenodd" fill-opacity="1" stroke="none"/>
<circle clip-path="url(#clip222)" cx="1618.13" cy="1125.25" r="7" fill="#009af9" fill-rule="evenodd" fill-opacity="1" stroke="none"/>
<circle clip-path="url(#clip222)" cx="1674.43" cy="1118.43" r="7" fill="#009af9" fill-rule="evenodd" fill-opacity="1" stroke="none"/>
<circle clip-path="url(#clip222)" cx="1730.72" cy="1088.47" r="7" fill="#009af9" fill-rule="evenodd" fill-opacity="1" stroke="none"/>
<circle clip-path="url(#clip222)" cx="1787.01" cy="1086.69" r="7" fill="#009af9" fill-rule="evenodd" fill-opacity="1" stroke="none"/>
<circle clip-path="url(#clip222)" cx="1843.3" cy="1081.05" r="7" fill="#009af9" fill-rule="evenodd" fill-opacity="1" stroke="none"/>
<circle clip-path="url(#clip222)" cx="1899.6" cy="1063.55" r="7" fill="#009af9" fill-rule="evenodd" fill-opacity="1" stroke="none"/>
<circle clip-path="url(#clip222)" cx="1955.89" cy="1047.53" r="7" fill="#009af9" fill-rule="evenodd" fill-opacity="1" stroke="none"/>
<circle clip-path="url(#clip222)" cx="2012.18" cy="1041" r="7" fill="#009af9" fill-rule="evenodd" fill-opacity="1" stroke="none"/>
<circle clip-path="url(#clip222)" cx="2068.48" cy="876.065" r="7" fill="#009af9" fill-rule="evenodd" fill-opacity="1" stroke="none"/>
<circle clip-path="url(#clip222)" cx="2124.77" cy="824.15" r="7" fill="#009af9" fill-rule="evenodd" fill-opacity="1" stroke="none"/>
<circle clip-path="url(#clip222)" cx="2181.06" cy="685.02" r="7" fill="#009af9" fill-rule="evenodd" fill-opacity="1" stroke="none"/>
<circle clip-path="url(#clip222)" cx="2237.36" cy="209.782" r="7" fill="#009af9" fill-rule="evenodd" fill-opacity="1" stroke="none"/>
<circle clip-path="url(#clip222)" cx="2293.65" cy="185.457" r="7" fill="#009af9" fill-rule="evenodd" fill-opacity="1" stroke="none"/>
<path clip-path="url(#clip222)" d="
M323.395 1510.15 L379.688 1510.15 L435.981 1510.15 L492.274 1510.15 L548.567 1510.15 L604.86 1510.15 L661.153 1510.15 L717.446 1510.15 L773.739 1510.15 L830.032 1510.15 
  L886.324 1510.15 L942.617 1510.15 L998.91 1510.15 L1055.2 1510.15 L1111.5 1510.15 L1167.79 1510.15 L1224.08 1510.15 L1280.38 1510.15 L1336.67 1510.15 L1392.96 1510.15 
  L1449.25 1510.15 L1505.55 1510.15 L1561.84 1510.15 L1618.13 1510.15 L1674.43 1510.15 L1730.72 1510.15 L1787.01 1510.15 L1843.3 1510.15 L1899.6 1510.15 L1955.89 1510.15 
  L2012.18 1510.15 L2068.48 1510.15 L2124.77 1510.15 L2181.06 1510.15 L2237.36 1510.15 L2293.65 1510.15 L2293.65 1346.4 L2237.36 1346.4 L2181.06 1346.4 L2124.77 1346.4 
  L2068.48 1346.4 L2012.18 1346.4 L1955.89 1346.4 L1899.6 1346.4 L1843.3 1346.4 L1787.01 1346.4 L1730.72 1346.4 L1674.43 1346.4 L1618.13 1346.4 L1561.84 1346.4 
  L1505.55 1346.4 L1449.25 1346.4 L1392.96 1346.4 L1336.67 1346.4 L1280.38 1346.4 L1224.08 1346.4 L1167.79 1346.4 L1111.5 1346.4 L1055.2 1346.4 L998.91 1346.4 
  L942.617 1346.4 L886.324 1346.4 L830.032 1346.4 L773.739 1346.4 L717.446 1346.4 L661.153 1346.4 L604.86 1346.4 L548.567 1346.4 L492.274 1346.4 L435.981 1346.4 
  L379.688 1346.4 L323.395 1346.4  Z
  " fill="#e26f46" fill-rule="evenodd" fill-opacity="0.6"/>
<polyline clip-path="url(#clip222)" style="stroke:#e26f46; stroke-linecap:butt; stroke-linejoin:round; stroke-width:4; stroke-opacity:0; fill:none" points="
  323.395,1510.15 379.688,1510.15 435.981,1510.15 492.274,1510.15 548.567,1510.15 604.86,1510.15 661.153,1510.15 717.446,1510.15 773.739,1510.15 830.032,1510.15 
  886.324,1510.15 942.617,1510.15 998.91,1510.15 1055.2,1510.15 1111.5,1510.15 1167.79,1510.15 1224.08,1510.15 1280.38,1510.15 1336.67,1510.15 1392.96,1510.15 
  1449.25,1510.15 1505.55,1510.15 1561.84,1510.15 1618.13,1510.15 1674.43,1510.15 1730.72,1510.15 1787.01,1510.15 1843.3,1510.15 1899.6,1510.15 1955.89,1510.15 
  2012.18,1510.15 2068.48,1510.15 2124.77,1510.15 2181.06,1510.15 2237.36,1510.15 2293.65,1510.15 
  "/>
<polyline clip-path="url(#clip222)" style="stroke:#000000; stroke-linecap:butt; stroke-linejoin:round; stroke-width:4; stroke-opacity:1; fill:none" stroke-dasharray="2, 4" points="
  323.395,1415.3 379.688,1415.3 435.981,1415.3 492.274,1415.3 548.567,1415.3 604.86,1415.3 661.153,1415.3 717.446,1415.3 773.739,1415.3 830.032,1415.3 
  886.324,1415.3 942.617,1415.3 998.91,1415.3 1055.2,1415.3 1111.5,1415.3 1167.79,1415.3 1224.08,1415.3 1280.38,1415.3 1336.67,1415.3 1392.96,1415.3 
  1449.25,1415.3 1505.55,1415.3 1561.84,1415.3 1618.13,1415.3 1674.43,1415.3 1730.72,1415.3 1787.01,1415.3 1843.3,1415.3 1899.6,1415.3 1955.89,1415.3 
  2012.18,1415.3 2068.48,1415.3 2124.77,1415.3 2181.06,1415.3 2237.36,1415.3 2293.65,1415.3 
  "/>
<path clip-path="url(#clip220)" d="
M333.903 252.948 L1490.43 252.948 L1490.43 97.4278 L333.903 97.4278  Z
  " fill="#ffffff" fill-rule="evenodd" fill-opacity="1"/>
<polyline clip-path="url(#clip220)" style="stroke:#ffffff; stroke-linecap:butt; stroke-linejoin:round; stroke-width:4; stroke-opacity:1; fill:none" points="
  333.903,252.948 1490.43,252.948 1490.43,97.4278 333.903,97.4278 333.903,252.948 
  "/>
<circle clip-path="url(#clip220)" cx="429.903" cy="149.268" r="23" fill="#009af9" fill-rule="evenodd" fill-opacity="1" stroke="none"/>
<path clip-path="url(#clip220)" d="M530.579 135.83 L530.579 162.705 L536.227 162.705 Q543.38 162.705 546.69 159.465 Q550.023 156.224 550.023 149.233 Q550.023 142.289 546.69 139.071 Q543.38 135.83 536.227 135.83 L530.579 135.83 M525.903 131.988 L535.509 131.988 Q545.556 131.988 550.255 136.178 Q554.954 140.344 554.954 149.233 Q554.954 158.168 550.232 162.358 Q545.509 166.548 535.509 166.548 L525.903 166.548 L525.903 131.988 Z" fill="#000000" fill-rule="evenodd" fill-opacity="1" /><path clip-path="url(#clip220)" d="M574.005 153.515 Q568.843 153.515 566.852 154.696 Q564.861 155.877 564.861 158.724 Q564.861 160.992 566.343 162.335 Q567.847 163.654 570.417 163.654 Q573.958 163.654 576.088 161.154 Q578.241 158.631 578.241 154.465 L578.241 153.515 L574.005 153.515 M582.5 151.756 L582.5 166.548 L578.241 166.548 L578.241 162.613 Q576.782 164.974 574.606 166.108 Q572.43 167.219 569.282 167.219 Q565.301 167.219 562.94 164.997 Q560.602 162.752 560.602 159.002 Q560.602 154.627 563.518 152.404 Q566.458 150.182 572.268 150.182 L578.241 150.182 L578.241 149.766 Q578.241 146.826 576.296 145.228 Q574.375 143.608 570.88 143.608 Q568.657 143.608 566.551 144.141 Q564.444 144.673 562.5 145.738 L562.5 141.803 Q564.838 140.9 567.037 140.46 Q569.236 139.997 571.319 139.997 Q576.944 139.997 579.722 142.914 Q582.5 145.83 582.5 151.756 Z" fill="#000000" fill-rule="evenodd" fill-opacity="1" /><path clip-path="url(#clip220)" d="M595.486 133.261 L595.486 140.622 L604.259 140.622 L604.259 143.932 L595.486 143.932 L595.486 158.006 Q595.486 161.177 596.342 162.08 Q597.222 162.983 599.884 162.983 L604.259 162.983 L604.259 166.548 L599.884 166.548 Q594.953 166.548 593.079 164.719 Q591.204 162.867 591.204 158.006 L591.204 143.932 L588.079 143.932 L588.079 140.622 L591.204 140.622 L591.204 133.261 L595.486 133.261 Z" fill="#000000" fill-rule="evenodd" fill-opacity="1" /><path clip-path="url(#clip220)" d="M621.643 153.515 Q616.481 153.515 614.49 154.696 Q612.5 155.877 612.5 158.724 Q612.5 160.992 613.981 162.335 Q615.486 163.654 618.055 163.654 Q621.597 163.654 623.726 161.154 Q625.879 158.631 625.879 154.465 L625.879 153.515 L621.643 153.515 M630.138 151.756 L630.138 166.548 L625.879 166.548 L625.879 162.613 Q624.421 164.974 622.245 166.108 Q620.069 167.219 616.921 167.219 Q612.94 167.219 610.578 164.997 Q608.24 162.752 608.24 159.002 Q608.24 154.627 611.157 152.404 Q614.097 150.182 619.907 150.182 L625.879 150.182 L625.879 149.766 Q625.879 146.826 623.935 145.228 Q622.014 143.608 618.518 143.608 Q616.296 143.608 614.19 144.141 Q612.083 144.673 610.139 145.738 L610.139 141.803 Q612.477 140.9 614.676 140.46 Q616.875 139.997 618.958 139.997 Q624.583 139.997 627.361 142.914 Q630.138 145.83 630.138 151.756 Z" fill="#000000" fill-rule="evenodd" fill-opacity="1" /><path clip-path="url(#clip220)" d="M664.212 130.576 Q661.111 135.9 659.606 141.108 Q658.101 146.316 658.101 151.664 Q658.101 157.011 659.606 162.265 Q661.134 167.497 664.212 172.798 L660.509 172.798 Q657.037 167.358 655.3 162.103 Q653.587 156.849 653.587 151.664 Q653.587 146.502 655.3 141.27 Q657.013 136.039 660.509 130.576 L664.212 130.576 Z" fill="#000000" fill-rule="evenodd" fill-opacity="1" /><path clip-path="url(#clip220)" d="M682.522 143.608 Q679.097 143.608 677.106 146.293 Q675.115 148.955 675.115 153.608 Q675.115 158.261 677.083 160.946 Q679.073 163.608 682.522 163.608 Q685.925 163.608 687.916 160.923 Q689.907 158.238 689.907 153.608 Q689.907 149.002 687.916 146.316 Q685.925 143.608 682.522 143.608 M682.522 139.997 Q688.078 139.997 691.249 143.608 Q694.421 147.219 694.421 153.608 Q694.421 159.974 691.249 163.608 Q688.078 167.219 682.522 167.219 Q676.944 167.219 673.773 163.608 Q670.624 159.974 670.624 153.608 Q670.624 147.219 673.773 143.608 Q676.944 139.997 682.522 139.997 Z" fill="#000000" fill-rule="evenodd" fill-opacity="1" /><path clip-path="url(#clip220)" d="M720.092 153.608 Q720.092 148.909 718.147 146.247 Q716.226 143.562 712.846 143.562 Q709.467 143.562 707.522 146.247 Q705.601 148.909 705.601 153.608 Q705.601 158.307 707.522 160.992 Q709.467 163.654 712.846 163.654 Q716.226 163.654 718.147 160.992 Q720.092 158.307 720.092 153.608 M705.601 144.557 Q706.944 142.242 708.981 141.131 Q711.041 139.997 713.888 139.997 Q718.61 139.997 721.55 143.747 Q724.513 147.497 724.513 153.608 Q724.513 159.719 721.55 163.469 Q718.61 167.219 713.888 167.219 Q711.041 167.219 708.981 166.108 Q706.944 164.974 705.601 162.659 L705.601 166.548 L701.319 166.548 L701.319 130.529 L705.601 130.529 L705.601 144.557 Z" fill="#000000" fill-rule="evenodd" fill-opacity="1" /><path clip-path="url(#clip220)" d="M748.101 141.386 L748.101 145.414 Q746.295 144.488 744.351 144.025 Q742.406 143.562 740.323 143.562 Q737.152 143.562 735.555 144.534 Q733.981 145.506 733.981 147.451 Q733.981 148.932 735.115 149.789 Q736.249 150.622 739.675 151.386 L741.133 151.71 Q745.67 152.682 747.568 154.465 Q749.49 156.224 749.49 159.395 Q749.49 163.006 746.619 165.113 Q743.772 167.219 738.772 167.219 Q736.689 167.219 734.42 166.802 Q732.175 166.409 729.675 165.599 L729.675 161.201 Q732.036 162.427 734.328 163.052 Q736.619 163.654 738.865 163.654 Q741.874 163.654 743.494 162.636 Q745.115 161.594 745.115 159.719 Q745.115 157.983 743.934 157.057 Q742.777 156.131 738.818 155.275 L737.337 154.928 Q733.379 154.094 731.619 152.381 Q729.86 150.645 729.86 147.636 Q729.86 143.978 732.453 141.988 Q735.045 139.997 739.814 139.997 Q742.175 139.997 744.258 140.344 Q746.342 140.691 748.101 141.386 Z" fill="#000000" fill-rule="evenodd" fill-opacity="1" /><path clip-path="url(#clip220)" d="M778.448 152.52 L778.448 154.603 L758.865 154.603 Q759.142 159.002 761.504 161.316 Q763.888 163.608 768.124 163.608 Q770.578 163.608 772.869 163.006 Q775.184 162.404 777.453 161.201 L777.453 165.228 Q775.161 166.201 772.753 166.71 Q770.346 167.219 767.869 167.219 Q761.666 167.219 758.031 163.608 Q754.42 159.997 754.42 153.84 Q754.42 147.474 757.846 143.747 Q761.295 139.997 767.129 139.997 Q772.36 139.997 775.392 143.377 Q778.448 146.733 778.448 152.52 M774.189 151.27 Q774.142 147.775 772.221 145.691 Q770.323 143.608 767.175 143.608 Q763.61 143.608 761.457 145.622 Q759.328 147.636 759.004 151.293 L774.189 151.27 Z" fill="#000000" fill-rule="evenodd" fill-opacity="1" /><path clip-path="url(#clip220)" d="M800.462 144.603 Q799.744 144.187 798.888 144.002 Q798.054 143.793 797.036 143.793 Q793.425 143.793 791.48 146.154 Q789.559 148.492 789.559 152.89 L789.559 166.548 L785.277 166.548 L785.277 140.622 L789.559 140.622 L789.559 144.65 Q790.902 142.289 793.054 141.154 Q795.207 139.997 798.286 139.997 Q798.726 139.997 799.258 140.066 Q799.79 140.113 800.439 140.229 L800.462 144.603 Z" fill="#000000" fill-rule="evenodd" fill-opacity="1" /><path clip-path="url(#clip220)" d="M801.874 140.622 L806.388 140.622 L814.489 162.381 L822.591 140.622 L827.105 140.622 L817.383 166.548 L811.596 166.548 L801.874 140.622 Z" fill="#000000" fill-rule="evenodd" fill-opacity="1" /><path clip-path="url(#clip220)" d="M855.16 152.52 L855.16 154.603 L835.577 154.603 Q835.855 159.002 838.216 161.316 Q840.6 163.608 844.836 163.608 Q847.29 163.608 849.582 163.006 Q851.897 162.404 854.165 161.201 L854.165 165.228 Q851.873 166.201 849.466 166.71 Q847.059 167.219 844.582 167.219 Q838.378 167.219 834.744 163.608 Q831.133 159.997 831.133 153.84 Q831.133 147.474 834.559 143.747 Q838.008 139.997 843.841 139.997 Q849.073 139.997 852.105 143.377 Q855.16 146.733 855.16 152.52 M850.901 151.27 Q850.855 147.775 848.934 145.691 Q847.035 143.608 843.887 143.608 Q840.323 143.608 838.17 145.622 Q836.04 147.636 835.716 151.293 L850.901 151.27 Z" fill="#000000" fill-rule="evenodd" fill-opacity="1" /><path clip-path="url(#clip220)" d="M879.211 144.557 L879.211 130.529 L883.47 130.529 L883.47 166.548 L879.211 166.548 L879.211 162.659 Q877.869 164.974 875.808 166.108 Q873.771 167.219 870.901 167.219 Q866.202 167.219 863.239 163.469 Q860.299 159.719 860.299 153.608 Q860.299 147.497 863.239 143.747 Q866.202 139.997 870.901 139.997 Q873.771 139.997 875.808 141.131 Q877.869 142.242 879.211 144.557 M864.697 153.608 Q864.697 158.307 866.619 160.992 Q868.563 163.654 871.943 163.654 Q875.322 163.654 877.267 160.992 Q879.211 158.307 879.211 153.608 Q879.211 148.909 877.267 146.247 Q875.322 143.562 871.943 143.562 Q868.563 143.562 866.619 146.247 Q864.697 148.909 864.697 153.608 Z" fill="#000000" fill-rule="evenodd" fill-opacity="1" /><path clip-path="url(#clip220)" d="M919.095 153.515 Q913.933 153.515 911.943 154.696 Q909.952 155.877 909.952 158.724 Q909.952 160.992 911.433 162.335 Q912.938 163.654 915.507 163.654 Q919.049 163.654 921.179 161.154 Q923.331 158.631 923.331 154.465 L923.331 153.515 L919.095 153.515 M927.591 151.756 L927.591 166.548 L923.331 166.548 L923.331 162.613 Q921.873 164.974 919.697 166.108 Q917.521 167.219 914.373 167.219 Q910.392 167.219 908.031 164.997 Q905.693 162.752 905.693 159.002 Q905.693 154.627 908.609 152.404 Q911.549 150.182 917.359 150.182 L923.331 150.182 L923.331 149.766 Q923.331 146.826 921.387 145.228 Q919.466 143.608 915.97 143.608 Q913.748 143.608 911.642 144.141 Q909.535 144.673 907.591 145.738 L907.591 141.803 Q909.929 140.9 912.128 140.46 Q914.327 139.997 916.41 139.997 Q922.035 139.997 924.813 142.914 Q927.591 145.83 927.591 151.756 Z" fill="#000000" fill-rule="evenodd" fill-opacity="1" /><path clip-path="url(#clip220)" d="M953.424 153.284 Q953.424 148.654 951.503 146.108 Q949.604 143.562 946.155 143.562 Q942.729 143.562 940.808 146.108 Q938.91 148.654 938.91 153.284 Q938.91 157.89 940.808 160.437 Q942.729 162.983 946.155 162.983 Q949.604 162.983 951.503 160.437 Q953.424 157.89 953.424 153.284 M957.683 163.33 Q957.683 169.951 954.743 173.168 Q951.803 176.409 945.739 176.409 Q943.493 176.409 941.503 176.062 Q939.512 175.738 937.637 175.043 L937.637 170.9 Q939.512 171.918 941.341 172.404 Q943.169 172.89 945.067 172.89 Q949.257 172.89 951.34 170.691 Q953.424 168.515 953.424 164.094 L953.424 161.988 Q952.104 164.279 950.044 165.414 Q947.984 166.548 945.114 166.548 Q940.345 166.548 937.429 162.914 Q934.512 159.279 934.512 153.284 Q934.512 147.266 937.429 143.631 Q940.345 139.997 945.114 139.997 Q947.984 139.997 950.044 141.131 Q952.104 142.266 953.424 144.557 L953.424 140.622 L957.683 140.622 L957.683 163.33 Z" fill="#000000" fill-rule="evenodd" fill-opacity="1" /><path clip-path="url(#clip220)" d="M988.632 152.52 L988.632 154.603 L969.049 154.603 Q969.326 159.002 971.688 161.316 Q974.072 163.608 978.308 163.608 Q980.762 163.608 983.053 163.006 Q985.368 162.404 987.637 161.201 L987.637 165.228 Q985.345 166.201 982.938 166.71 Q980.53 167.219 978.053 167.219 Q971.85 167.219 968.215 163.608 Q964.604 159.997 964.604 153.84 Q964.604 147.474 968.03 143.747 Q971.479 139.997 977.313 139.997 Q982.544 139.997 985.576 143.377 Q988.632 146.733 988.632 152.52 M984.373 151.27 Q984.326 147.775 982.405 145.691 Q980.507 143.608 977.359 143.608 Q973.794 143.608 971.641 145.622 Q969.512 147.636 969.188 151.293 L984.373 151.27 Z" fill="#000000" fill-rule="evenodd" fill-opacity="1" /><path clip-path="url(#clip220)" d="M1012.15 141.386 L1012.15 145.414 Q1010.34 144.488 1008.4 144.025 Q1006.46 143.562 1004.37 143.562 Q1001.2 143.562 999.604 144.534 Q998.03 145.506 998.03 147.451 Q998.03 148.932 999.164 149.789 Q1000.3 150.622 1003.72 151.386 L1005.18 151.71 Q1009.72 152.682 1011.62 154.465 Q1013.54 156.224 1013.54 159.395 Q1013.54 163.006 1010.67 165.113 Q1007.82 167.219 1002.82 167.219 Q1000.74 167.219 998.47 166.802 Q996.224 166.409 993.725 165.599 L993.725 161.201 Q996.086 162.427 998.377 163.052 Q1000.67 163.654 1002.91 163.654 Q1005.92 163.654 1007.54 162.636 Q1009.16 161.594 1009.16 159.719 Q1009.16 157.983 1007.98 157.057 Q1006.83 156.131 1002.87 155.275 L1001.39 154.928 Q997.428 154.094 995.669 152.381 Q993.91 150.645 993.91 147.636 Q993.91 143.978 996.502 141.988 Q999.095 139.997 1003.86 139.997 Q1006.22 139.997 1008.31 140.344 Q1010.39 140.691 1012.15 141.386 Z" fill="#000000" fill-rule="evenodd" fill-opacity="1" /><path clip-path="url(#clip220)" d="M1019.65 130.576 L1023.35 130.576 Q1026.83 136.039 1028.54 141.27 Q1030.28 146.502 1030.28 151.664 Q1030.28 156.849 1028.54 162.103 Q1026.83 167.358 1023.35 172.798 L1019.65 172.798 Q1022.73 167.497 1024.23 162.265 Q1025.76 157.011 1025.76 151.664 Q1025.76 146.316 1024.23 141.108 Q1022.73 135.9 1019.65 130.576 Z" fill="#000000" fill-rule="evenodd" fill-opacity="1" /><path clip-path="url(#clip220)" d="
M357.903 221.844 L501.903 221.844 L501.903 180.372 L357.903 180.372 L357.903 221.844  Z
  " fill="#e26f46" fill-rule="evenodd" fill-opacity="0.6"/>
<polyline clip-path="url(#clip220)" style="stroke:#e26f46; stroke-linecap:butt; stroke-linejoin:round; stroke-width:4; stroke-opacity:0; fill:none" points="
  357.903,180.372 501.903,180.372 
  "/>
<path clip-path="url(#clip220)" d="M525.903 183.828 L532.87 183.828 L541.69 207.346 L550.556 183.828 L557.523 183.828 L557.523 218.388 L552.963 218.388 L552.963 188.041 L544.051 211.744 L539.352 211.744 L530.44 188.041 L530.44 218.388 L525.903 218.388 L525.903 183.828 Z" fill="#000000" fill-rule="evenodd" fill-opacity="1" /><path clip-path="url(#clip220)" d="M576.667 195.448 Q573.241 195.448 571.25 198.133 Q569.259 200.795 569.259 205.448 Q569.259 210.101 571.227 212.786 Q573.218 215.448 576.667 215.448 Q580.069 215.448 582.06 212.763 Q584.051 210.078 584.051 205.448 Q584.051 200.842 582.06 198.156 Q580.069 195.448 576.667 195.448 M576.667 191.837 Q582.222 191.837 585.393 195.448 Q588.565 199.059 588.565 205.448 Q588.565 211.814 585.393 215.448 Q582.222 219.059 576.667 219.059 Q571.088 219.059 567.917 215.448 Q564.768 211.814 564.768 205.448 Q564.768 199.059 567.917 195.448 Q571.088 191.837 576.667 191.837 Z" fill="#000000" fill-rule="evenodd" fill-opacity="1" /><path clip-path="url(#clip220)" d="M612.685 196.397 L612.685 182.369 L616.944 182.369 L616.944 218.388 L612.685 218.388 L612.685 214.499 Q611.342 216.814 609.282 217.948 Q607.245 219.059 604.375 219.059 Q599.676 219.059 596.713 215.309 Q593.773 211.559 593.773 205.448 Q593.773 199.337 596.713 195.587 Q599.676 191.837 604.375 191.837 Q607.245 191.837 609.282 192.971 Q611.342 194.082 612.685 196.397 M598.171 205.448 Q598.171 210.147 600.092 212.832 Q602.037 215.494 605.416 215.494 Q608.796 215.494 610.74 212.832 Q612.685 210.147 612.685 205.448 Q612.685 200.749 610.74 198.087 Q608.796 195.402 605.416 195.402 Q602.037 195.402 600.092 198.087 Q598.171 200.749 598.171 205.448 Z" fill="#000000" fill-rule="evenodd" fill-opacity="1" /><path clip-path="url(#clip220)" d="M647.893 204.36 L647.893 206.443 L628.31 206.443 Q628.588 210.842 630.949 213.156 Q633.333 215.448 637.569 215.448 Q640.023 215.448 642.314 214.846 Q644.629 214.244 646.898 213.041 L646.898 217.068 Q644.606 218.041 642.199 218.55 Q639.791 219.059 637.314 219.059 Q631.111 219.059 627.476 215.448 Q623.865 211.837 623.865 205.68 Q623.865 199.314 627.291 195.587 Q630.74 191.837 636.574 191.837 Q641.805 191.837 644.837 195.217 Q647.893 198.573 647.893 204.36 M643.634 203.11 Q643.587 199.615 641.666 197.531 Q639.768 195.448 636.62 195.448 Q633.055 195.448 630.902 197.462 Q628.773 199.476 628.449 203.133 L643.634 203.11 Z" fill="#000000" fill-rule="evenodd" fill-opacity="1" /><path clip-path="url(#clip220)" d="M654.884 182.369 L659.143 182.369 L659.143 218.388 L654.884 218.388 L654.884 182.369 Z" fill="#000000" fill-rule="evenodd" fill-opacity="1" /><path clip-path="url(#clip220)" d="M693.356 182.416 Q690.254 187.74 688.749 192.948 Q687.245 198.156 687.245 203.504 Q687.245 208.851 688.749 214.105 Q690.277 219.337 693.356 224.638 L689.652 224.638 Q686.18 219.198 684.444 213.943 Q682.731 208.689 682.731 203.504 Q682.731 198.342 684.444 193.11 Q686.157 187.879 689.652 182.416 L693.356 182.416 Z" fill="#000000" fill-rule="evenodd" fill-opacity="1" /><path clip-path="url(#clip220)" d="M706.249 214.453 L722.569 214.453 L722.569 218.388 L700.624 218.388 L700.624 214.453 Q703.286 211.698 707.87 207.068 Q712.476 202.416 713.657 201.073 Q715.902 198.55 716.782 196.814 Q717.684 195.055 717.684 193.365 Q717.684 190.61 715.74 188.874 Q713.819 187.138 710.717 187.138 Q708.518 187.138 706.064 187.902 Q703.633 188.666 700.856 190.217 L700.856 185.494 Q703.68 184.36 706.133 183.782 Q708.587 183.203 710.624 183.203 Q715.995 183.203 719.189 185.888 Q722.383 188.573 722.383 193.064 Q722.383 195.194 721.573 197.115 Q720.786 199.013 718.68 201.606 Q718.101 202.277 714.999 205.494 Q711.897 208.689 706.249 214.453 Z" fill="#000000" fill-rule="evenodd" fill-opacity="1" /><path clip-path="url(#clip220)" d="M742.962 199.244 Q739.814 199.244 737.962 201.397 Q736.133 203.55 736.133 207.3 Q736.133 211.027 737.962 213.203 Q739.814 215.355 742.962 215.355 Q746.11 215.355 747.939 213.203 Q749.791 211.027 749.791 207.3 Q749.791 203.55 747.939 201.397 Q746.11 199.244 742.962 199.244 M752.244 184.592 L752.244 188.851 Q750.485 188.018 748.68 187.578 Q746.897 187.138 745.138 187.138 Q740.508 187.138 738.055 190.263 Q735.624 193.388 735.277 199.707 Q736.643 197.693 738.703 196.629 Q740.763 195.541 743.24 195.541 Q748.448 195.541 751.457 198.712 Q754.49 201.86 754.49 207.3 Q754.49 212.624 751.342 215.842 Q748.193 219.059 742.962 219.059 Q736.967 219.059 733.795 214.476 Q730.624 209.869 730.624 201.143 Q730.624 192.948 734.513 188.087 Q738.402 183.203 744.953 183.203 Q746.712 183.203 748.494 183.55 Q750.3 183.897 752.244 184.592 Z" fill="#000000" fill-rule="evenodd" fill-opacity="1" /><path clip-path="url(#clip220)" d="M763.355 214.453 L770.994 214.453 L770.994 188.087 L762.684 189.754 L762.684 185.494 L770.948 183.828 L775.624 183.828 L775.624 214.453 L783.263 214.453 L783.263 218.388 L763.355 218.388 L763.355 214.453 Z" fill="#000000" fill-rule="evenodd" fill-opacity="1" /><path clip-path="url(#clip220)" d="M802.707 201.976 Q799.374 201.976 797.452 203.758 Q795.554 205.541 795.554 208.666 Q795.554 211.791 797.452 213.573 Q799.374 215.355 802.707 215.355 Q806.04 215.355 807.962 213.573 Q809.883 211.767 809.883 208.666 Q809.883 205.541 807.962 203.758 Q806.063 201.976 802.707 201.976 M798.031 199.985 Q795.022 199.244 793.332 197.184 Q791.665 195.124 791.665 192.161 Q791.665 188.018 794.605 185.61 Q797.568 183.203 802.707 183.203 Q807.869 183.203 810.809 185.61 Q813.749 188.018 813.749 192.161 Q813.749 195.124 812.059 197.184 Q810.392 199.244 807.406 199.985 Q810.786 200.772 812.661 203.064 Q814.559 205.355 814.559 208.666 Q814.559 213.689 811.48 216.374 Q808.425 219.059 802.707 219.059 Q796.989 219.059 793.911 216.374 Q790.855 213.689 790.855 208.666 Q790.855 205.355 792.753 203.064 Q794.652 200.772 798.031 199.985 M796.318 192.601 Q796.318 195.286 797.985 196.791 Q799.675 198.295 802.707 198.295 Q805.716 198.295 807.406 196.791 Q809.119 195.286 809.119 192.601 Q809.119 189.916 807.406 188.411 Q805.716 186.907 802.707 186.907 Q799.675 186.907 797.985 188.411 Q796.318 189.916 796.318 192.601 Z" fill="#000000" fill-rule="evenodd" fill-opacity="1" /><path clip-path="url(#clip220)" d="M822.869 212.508 L827.753 212.508 L827.753 218.388 L822.869 218.388 L822.869 212.508 Z" fill="#000000" fill-rule="evenodd" fill-opacity="1" /><path clip-path="url(#clip220)" d="M848.517 199.244 Q845.369 199.244 843.517 201.397 Q841.688 203.55 841.688 207.3 Q841.688 211.027 843.517 213.203 Q845.369 215.355 848.517 215.355 Q851.665 215.355 853.494 213.203 Q855.346 211.027 855.346 207.3 Q855.346 203.55 853.494 201.397 Q851.665 199.244 848.517 199.244 M857.799 184.592 L857.799 188.851 Q856.04 188.018 854.235 187.578 Q852.452 187.138 850.693 187.138 Q846.063 187.138 843.61 190.263 Q841.179 193.388 840.832 199.707 Q842.198 197.693 844.258 196.629 Q846.318 195.541 848.795 195.541 Q854.003 195.541 857.012 198.712 Q860.045 201.86 860.045 207.3 Q860.045 212.624 856.897 215.842 Q853.748 219.059 848.517 219.059 Q842.522 219.059 839.35 214.476 Q836.179 209.869 836.179 201.143 Q836.179 192.948 840.068 188.087 Q843.957 183.203 850.508 183.203 Q852.267 183.203 854.049 183.55 Q855.855 183.897 857.799 184.592 Z" fill="#000000" fill-rule="evenodd" fill-opacity="1" /><path clip-path="url(#clip220)" d="M872.128 214.453 L888.447 214.453 L888.447 218.388 L866.503 218.388 L866.503 214.453 Q869.165 211.698 873.748 207.068 Q878.355 202.416 879.535 201.073 Q881.781 198.55 882.66 196.814 Q883.563 195.055 883.563 193.365 Q883.563 190.61 881.619 188.874 Q879.697 187.138 876.596 187.138 Q874.396 187.138 871.943 187.902 Q869.512 188.666 866.734 190.217 L866.734 185.494 Q869.559 184.36 872.012 183.782 Q874.466 183.203 876.503 183.203 Q881.873 183.203 885.068 185.888 Q888.262 188.573 888.262 193.064 Q888.262 195.194 887.452 197.115 Q886.665 199.013 884.558 201.606 Q883.98 202.277 880.878 205.494 Q877.776 208.689 872.128 214.453 Z" fill="#000000" fill-rule="evenodd" fill-opacity="1" /><path clip-path="url(#clip220)" d="M908.262 201.976 Q904.929 201.976 903.007 203.758 Q901.109 205.541 901.109 208.666 Q901.109 211.791 903.007 213.573 Q904.929 215.355 908.262 215.355 Q911.595 215.355 913.517 213.573 Q915.438 211.767 915.438 208.666 Q915.438 205.541 913.517 203.758 Q911.618 201.976 908.262 201.976 M903.586 199.985 Q900.577 199.244 898.887 197.184 Q897.22 195.124 897.22 192.161 Q897.22 188.018 900.16 185.61 Q903.123 183.203 908.262 183.203 Q913.424 183.203 916.364 185.61 Q919.304 188.018 919.304 192.161 Q919.304 195.124 917.614 197.184 Q915.947 199.244 912.961 199.985 Q916.341 200.772 918.216 203.064 Q920.114 205.355 920.114 208.666 Q920.114 213.689 917.035 216.374 Q913.98 219.059 908.262 219.059 Q902.544 219.059 899.466 216.374 Q896.41 213.689 896.41 208.666 Q896.41 205.355 898.308 203.064 Q900.206 200.772 903.586 199.985 M901.873 192.601 Q901.873 195.286 903.54 196.791 Q905.23 198.295 908.262 198.295 Q911.271 198.295 912.961 196.791 Q914.674 195.286 914.674 192.601 Q914.674 189.916 912.961 188.411 Q911.271 186.907 908.262 186.907 Q905.23 186.907 903.54 188.411 Q901.873 189.916 901.873 192.601 Z" fill="#000000" fill-rule="evenodd" fill-opacity="1" /><path clip-path="url(#clip220)" d="M960.229 188.666 L960.229 201.559 L973.123 201.559 L973.123 205.494 L960.229 205.494 L960.229 218.388 L956.34 218.388 L956.34 205.494 L943.447 205.494 L943.447 201.559 L956.34 201.559 L956.34 188.666 L960.229 188.666 Z" fill="#000000" fill-rule="evenodd" fill-opacity="1" /><path clip-path="url(#clip220)" d="M987.243 214.453 L1003.56 214.453 L1003.56 218.388 L981.618 218.388 L981.618 214.453 Q984.28 211.698 988.863 207.068 Q993.47 202.416 994.65 201.073 Q996.896 198.55 997.775 196.814 Q998.678 195.055 998.678 193.365 Q998.678 190.61 996.734 188.874 Q994.812 187.138 991.711 187.138 Q989.512 187.138 987.058 187.902 Q984.627 188.666 981.85 190.217 L981.85 185.494 Q984.674 184.36 987.127 183.782 Q989.581 183.203 991.618 183.203 Q996.988 183.203 1000.18 185.888 Q1003.38 188.573 1003.38 193.064 Q1003.38 195.194 1002.57 197.115 Q1001.78 199.013 999.674 201.606 Q999.095 202.277 995.993 205.494 Q992.891 208.689 987.243 214.453 Z" fill="#000000" fill-rule="evenodd" fill-opacity="1" /><path clip-path="url(#clip220)" d="M1027.54 199.754 Q1030.9 200.471 1032.78 202.74 Q1034.67 205.008 1034.67 208.342 Q1034.67 213.457 1031.15 216.258 Q1027.64 219.059 1021.15 219.059 Q1018.98 219.059 1016.66 218.619 Q1014.37 218.203 1011.92 217.346 L1011.92 212.832 Q1013.86 213.967 1016.18 214.545 Q1018.49 215.124 1021.02 215.124 Q1025.41 215.124 1027.71 213.388 Q1030.02 211.652 1030.02 208.342 Q1030.02 205.286 1027.87 203.573 Q1025.74 201.837 1021.92 201.837 L1017.89 201.837 L1017.89 197.994 L1022.1 197.994 Q1025.55 197.994 1027.38 196.629 Q1029.21 195.24 1029.21 192.647 Q1029.21 189.985 1027.31 188.573 Q1025.44 187.138 1021.92 187.138 Q1020 187.138 1017.8 187.555 Q1015.6 187.971 1012.96 188.851 L1012.96 184.684 Q1015.62 183.944 1017.94 183.573 Q1020.28 183.203 1022.34 183.203 Q1027.66 183.203 1030.76 185.633 Q1033.86 188.041 1033.86 192.161 Q1033.86 195.031 1032.22 197.022 Q1030.58 198.99 1027.54 199.754 Z" fill="#000000" fill-rule="evenodd" fill-opacity="1" /><path clip-path="url(#clip220)" d="M1043.54 212.508 L1048.42 212.508 L1048.42 218.388 L1043.54 218.388 L1043.54 212.508 Z" fill="#000000" fill-rule="evenodd" fill-opacity="1" /><path clip-path="url(#clip220)" d="M1062.64 214.453 L1078.96 214.453 L1078.96 218.388 L1057.01 218.388 L1057.01 214.453 Q1059.67 211.698 1064.26 207.068 Q1068.86 202.416 1070.04 201.073 Q1072.29 198.55 1073.17 196.814 Q1074.07 195.055 1074.07 193.365 Q1074.07 190.61 1072.13 188.874 Q1070.21 187.138 1067.1 187.138 Q1064.9 187.138 1062.45 187.902 Q1060.02 188.666 1057.24 190.217 L1057.24 185.494 Q1060.07 184.36 1062.52 183.782 Q1064.97 183.203 1067.01 183.203 Q1072.38 183.203 1075.58 185.888 Q1078.77 188.573 1078.77 193.064 Q1078.77 195.194 1077.96 197.115 Q1077.17 199.013 1075.07 201.606 Q1074.49 202.277 1071.39 205.494 Q1068.28 208.689 1062.64 214.453 Z" fill="#000000" fill-rule="evenodd" fill-opacity="1" /><path clip-path="url(#clip220)" d="M1092.8 214.453 L1109.12 214.453 L1109.12 218.388 L1087.17 218.388 L1087.17 214.453 Q1089.84 211.698 1094.42 207.068 Q1099.02 202.416 1100.21 201.073 Q1102.45 198.55 1103.33 196.814 Q1104.23 195.055 1104.23 193.365 Q1104.23 190.61 1102.29 188.874 Q1100.37 187.138 1097.27 187.138 Q1095.07 187.138 1092.61 187.902 Q1090.18 188.666 1087.4 190.217 L1087.4 185.494 Q1090.23 184.36 1092.68 183.782 Q1095.14 183.203 1097.17 183.203 Q1102.54 183.203 1105.74 185.888 Q1108.93 188.573 1108.93 193.064 Q1108.93 195.194 1108.12 197.115 Q1107.34 199.013 1105.23 201.606 Q1104.65 202.277 1101.55 205.494 Q1098.45 208.689 1092.8 214.453 Z" fill="#000000" fill-rule="evenodd" fill-opacity="1" /><path clip-path="url(#clip220)" d="M1118.98 183.828 L1137.33 183.828 L1137.33 187.763 L1123.26 187.763 L1123.26 196.235 Q1124.28 195.888 1125.3 195.726 Q1126.32 195.541 1127.33 195.541 Q1133.12 195.541 1136.5 198.712 Q1139.88 201.883 1139.88 207.3 Q1139.88 212.879 1136.41 215.98 Q1132.94 219.059 1126.62 219.059 Q1124.44 219.059 1122.17 218.689 Q1119.93 218.318 1117.52 217.578 L1117.52 212.879 Q1119.6 214.013 1121.83 214.568 Q1124.05 215.124 1126.52 215.124 Q1130.53 215.124 1132.87 213.017 Q1135.21 210.911 1135.21 207.3 Q1135.21 203.689 1132.87 201.582 Q1130.53 199.476 1126.52 199.476 Q1124.65 199.476 1122.77 199.893 Q1120.92 200.309 1118.98 201.189 L1118.98 183.828 Z" fill="#000000" fill-rule="evenodd" fill-opacity="1" /><path clip-path="url(#clip220)" d="M1156.06 183.828 L1160 183.828 L1147.96 222.786 L1144.02 222.786 L1156.06 183.828 Z" fill="#000000" fill-rule="evenodd" fill-opacity="1" /><path clip-path="url(#clip220)" d="M1162.31 203.504 L1174.79 203.504 L1174.79 207.3 L1162.31 207.3 L1162.31 203.504 Z" fill="#000000" fill-rule="evenodd" fill-opacity="1" /><path clip-path="url(#clip220)" d="M1196.34 199.754 Q1199.7 200.471 1201.57 202.74 Q1203.47 205.008 1203.47 208.342 Q1203.47 213.457 1199.95 216.258 Q1196.43 219.059 1189.95 219.059 Q1187.77 219.059 1185.46 218.619 Q1183.17 218.203 1180.71 217.346 L1180.71 212.832 Q1182.66 213.967 1184.97 214.545 Q1187.29 215.124 1189.81 215.124 Q1194.21 215.124 1196.5 213.388 Q1198.82 211.652 1198.82 208.342 Q1198.82 205.286 1196.66 203.573 Q1194.53 201.837 1190.71 201.837 L1186.69 201.837 L1186.69 197.994 L1190.9 197.994 Q1194.35 197.994 1196.18 196.629 Q1198.01 195.24 1198.01 192.647 Q1198.01 189.985 1196.11 188.573 Q1194.23 187.138 1190.71 187.138 Q1188.79 187.138 1186.59 187.555 Q1184.39 187.971 1181.76 188.851 L1181.76 184.684 Q1184.42 183.944 1186.73 183.573 Q1189.07 183.203 1191.13 183.203 Q1196.45 183.203 1199.56 185.633 Q1202.66 188.041 1202.66 192.161 Q1202.66 195.031 1201.02 197.022 Q1199.37 198.99 1196.34 199.754 Z" fill="#000000" fill-rule="evenodd" fill-opacity="1" /><path clip-path="url(#clip220)" d="M1213.14 214.453 L1220.78 214.453 L1220.78 188.087 L1212.47 189.754 L1212.47 185.494 L1220.74 183.828 L1225.41 183.828 L1225.41 214.453 L1233.05 214.453 L1233.05 218.388 L1213.14 218.388 L1213.14 214.453 Z" fill="#000000" fill-rule="evenodd" fill-opacity="1" /><path clip-path="url(#clip220)" d="M1242.5 212.508 L1247.38 212.508 L1247.38 218.388 L1242.5 218.388 L1242.5 212.508 Z" fill="#000000" fill-rule="evenodd" fill-opacity="1" /><path clip-path="url(#clip220)" d="M1257.7 217.67 L1257.7 213.411 Q1259.46 214.244 1261.27 214.684 Q1263.07 215.124 1264.81 215.124 Q1269.44 215.124 1271.87 212.022 Q1274.32 208.897 1274.67 202.555 Q1273.33 204.545 1271.27 205.61 Q1269.21 206.675 1266.71 206.675 Q1261.52 206.675 1258.49 203.55 Q1255.48 200.402 1255.48 194.962 Q1255.48 189.638 1258.63 186.42 Q1261.78 183.203 1267.01 183.203 Q1273.01 183.203 1276.15 187.809 Q1279.32 192.393 1279.32 201.143 Q1279.32 209.314 1275.44 214.198 Q1271.57 219.059 1265.02 219.059 Q1263.26 219.059 1261.45 218.712 Q1259.65 218.365 1257.7 217.67 M1267.01 203.018 Q1270.16 203.018 1271.99 200.865 Q1273.84 198.712 1273.84 194.962 Q1273.84 191.235 1271.99 189.082 Q1270.16 186.907 1267.01 186.907 Q1263.86 186.907 1262.01 189.082 Q1260.18 191.235 1260.18 194.962 Q1260.18 198.712 1262.01 200.865 Q1263.86 203.018 1267.01 203.018 Z" fill="#000000" fill-rule="evenodd" fill-opacity="1" /><path clip-path="url(#clip220)" d="M1286.55 183.828 L1308.77 183.828 L1308.77 185.819 L1296.22 218.388 L1291.34 218.388 L1303.14 187.763 L1286.55 187.763 L1286.55 183.828 Z" fill="#000000" fill-rule="evenodd" fill-opacity="1" /><path clip-path="url(#clip220)" d="M1332.06 199.754 Q1335.41 200.471 1337.29 202.74 Q1339.19 205.008 1339.19 208.342 Q1339.19 213.457 1335.67 216.258 Q1332.15 219.059 1325.67 219.059 Q1323.49 219.059 1321.18 218.619 Q1318.88 218.203 1316.43 217.346 L1316.43 212.832 Q1318.38 213.967 1320.69 214.545 Q1323.01 215.124 1325.53 215.124 Q1329.93 215.124 1332.22 213.388 Q1334.53 211.652 1334.53 208.342 Q1334.53 205.286 1332.38 203.573 Q1330.25 201.837 1326.43 201.837 L1322.4 201.837 L1322.4 197.994 L1326.62 197.994 Q1330.07 197.994 1331.89 196.629 Q1333.72 195.24 1333.72 192.647 Q1333.72 189.985 1331.82 188.573 Q1329.95 187.138 1326.43 187.138 Q1324.51 187.138 1322.31 187.555 Q1320.11 187.971 1317.47 188.851 L1317.47 184.684 Q1320.13 183.944 1322.45 183.573 Q1324.79 183.203 1326.85 183.203 Q1332.17 183.203 1335.27 185.633 Q1338.38 188.041 1338.38 192.161 Q1338.38 195.031 1336.73 197.022 Q1335.09 198.99 1332.06 199.754 Z" fill="#000000" fill-rule="evenodd" fill-opacity="1" /><path clip-path="url(#clip220)" d="M1362.7 183.828 L1369.67 183.828 L1378.49 207.346 L1387.36 183.828 L1394.32 183.828 L1394.32 218.388 L1389.76 218.388 L1389.76 188.041 L1380.85 211.744 L1376.15 211.744 L1367.24 188.041 L1367.24 218.388 L1362.7 218.388 L1362.7 183.828 Z" fill="#000000" fill-rule="evenodd" fill-opacity="1" /><path clip-path="url(#clip220)" d="M1415.2 205.355 Q1410.04 205.355 1408.05 206.536 Q1406.06 207.717 1406.06 210.564 Q1406.06 212.832 1407.54 214.175 Q1409.05 215.494 1411.62 215.494 Q1415.16 215.494 1417.29 212.994 Q1419.44 210.471 1419.44 206.305 L1419.44 205.355 L1415.2 205.355 M1423.7 203.596 L1423.7 218.388 L1419.44 218.388 L1419.44 214.453 Q1417.98 216.814 1415.81 217.948 Q1413.63 219.059 1410.48 219.059 Q1406.5 219.059 1404.14 216.837 Q1401.8 214.592 1401.8 210.842 Q1401.8 206.467 1404.72 204.244 Q1407.66 202.022 1413.47 202.022 L1419.44 202.022 L1419.44 201.606 Q1419.44 198.666 1417.5 197.068 Q1415.57 195.448 1412.08 195.448 Q1409.86 195.448 1407.75 195.981 Q1405.64 196.513 1403.7 197.578 L1403.7 193.643 Q1406.04 192.74 1408.24 192.3 Q1410.44 191.837 1412.52 191.837 Q1418.14 191.837 1420.92 194.754 Q1423.7 197.67 1423.7 203.596 Z" fill="#000000" fill-rule="evenodd" fill-opacity="1" /><path clip-path="url(#clip220)" d="M1431.8 182.416 L1435.5 182.416 Q1438.98 187.879 1440.69 193.11 Q1442.43 198.342 1442.43 203.504 Q1442.43 208.689 1440.69 213.943 Q1438.98 219.198 1435.5 224.638 L1431.8 224.638 Q1434.88 219.337 1436.38 214.105 Q1437.91 208.851 1437.91 203.504 Q1437.91 198.156 1436.38 192.948 Q1434.88 187.74 1431.8 182.416 Z" fill="#000000" fill-rule="evenodd" fill-opacity="1" /></svg>
